<?xml version="1.0" standalone="no"?>
<!DOCTYPE svg PUBLIC "-//W3C//DTD SVG 1.1//EN" "http://www.w3.org/Graphics/SVG/1.1/DTD/svg11.dtd" >
<svg>
<metadata>
Created by FontForge 20090914 at Thu Dec 12 17:19:41 2019
 By www-data
Copyright (c) 2010 by Andryushkin Artem, Jovanny Lemonad. All rights reserved.
</metadata>
<defs>
<font id="Flow" horiz-adv-x="669" >
  <font-face 
    font-family="Flow"
    font-weight="400"
    font-stretch="normal"
    units-per-em="2048"
    panose-1="2 0 5 6 5 0 0 2 0 4"
    ascent="1536"
    descent="-512"
    x-height="1038"
    cap-height="1432"
    bbox="-367 -855.089 1902.06 1883.52"
    underline-thickness="102"
    underline-position="-102"
    unicode-range="U+000D-U+E000"
  />
<missing-glyph horiz-adv-x="748" 
d="M68 0v1365h544v-1365h-544zM136 68h408v1229h-408v-1229z" />
    <glyph glyph-name=".notdef" horiz-adv-x="748" 
d="M68 0v1365h544v-1365h-544zM136 68h408v1229h-408v-1229z" />
    <glyph glyph-name="glyph1" horiz-adv-x="2048" 
 />
    <glyph glyph-name="glyph1" horiz-adv-x="2048" 
 />
    <glyph glyph-name="uni000D" unicode="&#xd;" horiz-adv-x="2048" 
 />
    <glyph glyph-name="space" unicode=" " horiz-adv-x="614" 
 />
    <glyph glyph-name="exclam" unicode="!" horiz-adv-x="589" 
d="M88 49c-12.667 32.667 -6.00098 57.668 19.999 75.001s55.667 23.666 89 18.999c38 -4.66699 66.167 -20 84.5 -46s20 -51.5 5 -76.5s-44.833 -38.5 -89.5 -40.5c-21.333 -1.33301 -42.666 4.66699 -63.999 18s-36.333 30.333 -45 51zM192.999 426.001
c30 114.667 65.667 281.834 107 501.501s74.333 379.5 99 479.5c6 26 25.667 43 59 51c32 7.33301 57.333 3 76 -13c13.333 -12.667 17 -29.334 11 -50.001c-22.667 -94 -55 -252.333 -97 -475s-78.667 -392.667 -110 -510c-6.66699 -25.333 -26 -42 -58 -50
c-32 -7.33301 -57 -2.66602 -75 14.001c-13.333 13.333 -17.333 30.666 -12 51.999z" />
    <glyph glyph-name="quotedbl" unicode="&#x22;" horiz-adv-x="479" 
d="M88 1069c12.667 37.333 34.665 90.3311 65.998 158.998s53 120 65 154c9.33301 28.667 29.333 48.334 60 59.001c30 10 52 6.33301 66 -11c10.667 -12.667 12.334 -30.667 5.00098 -54c-12.667 -36.667 -35.167 -89.167 -67.5 -157.5s-54.833 -120.833 -67.5 -157.5
c-9.33301 -27.333 -29.333 -46 -60 -56c-29.333 -9.33301 -50.666 -5.66602 -63.999 11.001c-9.33301 12 -10.333 29.667 -3 53zM335.498 1010c-3.66699 20.667 -2.16797 38.9961 4.49902 54.9961c10.667 38 28.834 93.833 54.501 167.5s43.834 129.167 54.501 166.5
c4 16.667 14.167 29.834 30.5 39.501s32.5 10.834 48.5 3.50098c17.333 -9.33301 27.666 -24.666 30.999 -45.999s1.33301 -40.333 -6 -57c-11.333 -42 -30 -99.833 -56 -173.5s-43.667 -125.5 -53 -155.5c-4 -18.667 -14 -32.667 -30 -42s-32.333 -9.66602 -49 -0.999023
c-16 8 -25.833 22.333 -29.5 43z" />
    <glyph glyph-name="numbersign" unicode="#" horiz-adv-x="1107" 
d="M43 492c-5.33301 26 1.66309 50.6641 20.9961 73.9971c13.333 16 29 25.333 47 28c54.667 6.66699 105 10 151 10c14.667 65.333 33.667 145.333 57 240c-40.667 -3.33301 -64.334 -6 -71.001 -8c-5.33301 0 -15.666 -0.666992 -30.999 -2s-27 -2.16602 -35 -2.49902
s-18 0.333984 -30 2.00098s-22.333 4.5 -31 8.5c-10 4 -17.667 10.333 -23 19s-8.16602 18 -8.49902 28s0.833984 20.5 3.50098 31.5s7.16699 21 13.5 30s13.5 16.833 21.5 23.5s17.167 10.834 27.5 12.501s20.5 0.5 30.5 -3.5c8.66699 -5.33301 50.334 -3.33301 125.001 6
c24.667 3.33301 38.334 5.33301 41.001 6c26.667 122 46 227.333 58 316c3.33301 27.333 21.666 46 54.999 56c32.667 8.66699 59.334 5.66699 80.001 -9c14.667 -10 20.667 -23.667 18 -41c-11.333 -105.333 -29 -210.666 -53 -315.999c66 2 130 3 192 3l32.5 132
c17 68.667 30.833 121.334 41.5 158.001c5.33301 25.333 25 41.666 59 48.999c34 6.66699 60.667 1.33398 80 -15.999c13.333 -12 17.666 -27.667 12.999 -47c-27.333 -109.333 -49.333 -202.333 -66 -279c22 0 55.167 -0.333008 99.5 -1s77.5 -1 99.5 -1
c28.667 -1.33301 44 -17.333 46 -48c2 -30 -7.66699 -57 -29 -81c-15.333 -15.333 -31.333 -23.333 -48 -24c-21.333 1.33301 -43.666 2.33301 -66.999 3s-48.666 1.16699 -75.999 1.5s-48.666 0.833008 -63.999 1.5c-19.333 -69.333 -39.666 -150 -60.999 -242
c64.667 2 132.334 9 203.001 21c34 7.33301 54 -3.33398 60 -32.001c5.33301 -26 -2 -51.333 -22 -76c-12.667 -16 -27.667 -25.667 -45 -29c-82.667 -14.667 -160.334 -23 -233.001 -25l-88 -324c-6.66699 -26.667 -27.334 -43.334 -62.001 -50.001
c-33.333 -6.66699 -60 -1.33398 -80 15.999c-13.333 12.667 -18 28.334 -14 47.001c16 50.667 44 154.334 84 311.001c-19.333 0 -49.333 0.333008 -90 1s-71.334 1 -92.001 1l-39 -167l-43 -183c-4 -23.333 -19.667 -38.333 -47 -45s-52.833 -3 -76.5 11
s-32.834 34 -27.501 60c11.333 57.333 36.333 164.666 75 321.999c-3.33301 -0.666992 -20.5 -2.16699 -51.5 -4.5s-54.167 -4.83301 -69.5 -7.5c-34.667 -4.66699 -55 7 -61 35zM415.996 609.997c21.333 0 52.835 -1.00195 94.502 -3.00195s72.167 -3 91.5 -3
c5.33301 22.667 15.666 62.334 30.999 119.001s26.333 100.334 33 131.001c-20.667 0 -51.834 -0.333008 -93.501 -1s-73.5 -1 -95.5 -1c-24 -109.333 -44.333 -190 -61 -242z" />
    <glyph glyph-name="dollar" unicode="$" horiz-adv-x="888" 
d="M-79 183.5c4.66699 10.333 13.999 20.168 27.999 29.501c21.333 12.667 45.5 14.167 72.5 4.5s45.833 -24.167 56.5 -43.5v-2c13.333 -5.33301 22.666 -9.33301 27.999 -12l20 -11.5l21 -12c5.33301 -3 11.833 -6.16699 19.5 -9.5s15.5 -6 23.5 -8
c18 -7.33301 40 -13 66 -17c34 210 73 413 117 609c-79.333 71.333 -137.333 140.333 -174 207c-36.667 70.667 -48.834 142.5 -36.501 215.5s46.833 137.5 103.5 193.5c72.667 70.667 158.667 107 258 109c8 26 17.667 73 29 141c4.66699 26.667 23.334 48 56.001 64
c32.667 16.667 58 19 76 7c12 -8 16.333 -22 13 -42c-13.333 -65.333 -24.666 -125.666 -33.999 -180.999c60 -10 118.667 -27.667 176 -53c27.333 -12 43.333 -30 48 -54s-2 -42.667 -20 -56s-41 -14 -69 -2c-56 27.333 -108 43.666 -156 48.999
c-43.333 -186 -84.333 -373 -123 -561l39 -30.5l42.5 -33.5c7.66699 -6 19.667 -16 36 -30s28.833 -25.333 37.5 -34s18.334 -19 29.001 -31s19.667 -23.333 27 -34c36 -54 55.667 -112.167 59 -174.5s-7 -119.666 -31 -171.999s-60.333 -98.666 -109 -138.999
s-104.334 -66.833 -167.001 -79.5c-2 0 -17 -2 -45 -6s-49.667 -6.33301 -65 -7c-1.33301 -19.333 -4.66602 -47.333 -9.99902 -84s-8.33301 -57 -9 -61c-4 -27.333 -22.333 -49 -55 -65c-31.333 -15.333 -56 -17 -74 -5c-12 8 -16.667 21.667 -14 41
c1.33301 23.333 5 56.166 11 98.499s9.66699 71.166 11 86.499c-52 8.66699 -101 23.667 -147 45c-2 1.33301 -10.833 6 -26.5 14s-28.667 15 -39 21s-23.5 14.167 -39.5 24.5s-28.167 20.166 -36.5 29.499s-15.5 19.333 -21.5 30s-6.66699 21.167 -2 31.5zM310.999 1102
c-20 -88 9.99902 -172.001 89.999 -252.001c28.667 122.667 62.334 274.334 101.001 455.001c-26 -8 -45.333 -15.667 -58 -23c-72.667 -45.333 -117 -105.333 -133 -180zM392.998 102.001c67.333 13.333 124.166 41.6689 170.499 85.002s72.833 98.333 79.5 165
c3.33301 55.333 -8.16699 102.666 -34.5 141.999s-65.166 78.666 -116.499 117.999c-44.667 -203.333 -77.667 -373.333 -99 -510z" />
    <glyph glyph-name="percent" unicode="%" horiz-adv-x="1355" 
d="M67 1152.5c15.333 84.333 55.668 152.167 121.001 203.5c26.667 20 54.334 37.667 83.001 53s60 28.333 94 39s67.667 13.5 101 8.5s63 -18.833 89 -41.5c12.667 -12 19.667 -30.333 21 -55s-2.33398 -46 -11.001 -64c30 2.66699 49.333 -15 58 -53
c20 -85.333 18.5 -169 -4.5 -251s-68.833 -145.667 -137.5 -191c-76.667 -45.333 -147.834 -56.5 -213.501 -33.5s-120.167 73.833 -163.5 152.5c-40 70.667 -52.333 148.167 -37 232.5zM154.002 80.001c35.333 90 98.668 183.999 190.001 281.999
c102.667 114 186.667 216.667 252 308l262.5 383l237.5 350c20.667 29.333 44 35.333 70 18c21.333 -14.667 33.666 -36 36.999 -64c2 -20 -2.33301 -36.667 -13 -50l-116.5 -176l-124 -187l-114.5 -169l-126 -179c-89.333 -128 -168.666 -229 -237.999 -303
c-2.66699 -3.33301 -13.5 -15 -32.5 -35s-31.167 -33 -36.5 -39l-31.5 -35.5c-15.667 -17.667 -26.834 -31.5 -33.501 -41.5l-26 -38.5c-10.667 -15.667 -19.5 -30.667 -26.5 -45s-13.167 -29.166 -18.5 -44.499c-13.333 -34.667 -33.666 -48.667 -60.999 -42
c-22 5.33301 -38.333 20.666 -49 45.999c-8.66699 20.667 -9.33398 41.334 -2.00098 62.001zM177.504 1105.5c-5.66699 -29 0.834961 -58.165 19.502 -87.498c13.333 -25.333 28.833 -46.5 46.5 -63.5s37 -29.5 58 -37.5s43.667 -9.16699 68 -3.5s48.5 18.5 72.5 38.5
c68.667 61.333 90.667 145.333 66 252c-5.33301 22.667 -2 44.667 10 66c-8 0 -16 4 -24 12c-13.333 11.333 -29.833 18 -49.5 20s-40 -0.333008 -61 -7s-40.333 -14.334 -58 -23.001s-34.167 -18.334 -49.5 -29.001c-26.667 -19.333 -48.334 -39.833 -65.001 -61.5
s-27.834 -47 -33.501 -76zM714.006 248.502c1.33301 59 15.332 114.832 41.999 167.499c47.333 92 112 162.333 194 211c38 21.333 77.333 35.833 118 43.5s90.334 13.5 149.001 17.5c30.667 2 49.834 -7.16699 57.501 -27.5s4.16699 -39.833 -10.5 -58.5
c2 -0.666992 4 -1.66699 6 -3s4.16699 -3 6.5 -5s4.16602 -3.33301 5.49902 -4c30 -38 47 -81.667 51 -131s-1.5 -96.166 -16.5 -140.499s-36.833 -87.833 -65.5 -130.5c-44 -61.333 -98.333 -112.5 -163 -153.5s-129 -54.5 -193 -40.5c-60 13.333 -105.5 44.333 -136.5 93
s-45.833 102.5 -44.5 161.5zM868.005 203.001c26.667 -57.333 57.6641 -85.334 92.9971 -84.001c27.333 0.666992 55.333 10 84 28s53.5 41.333 74.5 70s38.333 59.334 52 92.001s19.834 65.834 18.501 99.501s-11 62.167 -29 85.5
c-6.66699 8.66699 -10.167 19.167 -10.5 31.5s2.5 22.833 8.5 31.5c-41.333 -2.66699 -77.666 -9.33398 -108.999 -20.001s-60.666 -28 -87.999 -52s-50.333 -55.333 -69 -94c-36 -76 -44.333 -138.667 -25 -188z" />
    <glyph glyph-name="ampersand" unicode="&#x26;" horiz-adv-x="1241" 
d="M-22 190c-26.667 70.667 -23.332 143.999 10.001 219.999c66.667 159.333 188.667 293 366 401c12.667 8.66699 47.667 28.334 105 59.001c-27.333 49.333 -48 102.666 -62 159.999c-12.667 54.667 -16.667 108 -12 160s22.834 100.333 54.501 145
s74.167 76.334 127.5 95.001c33.333 12.667 71.333 19 114 19s84.167 -5.33301 124.5 -16s76.5 -29.5 108.5 -56.5s53 -59.167 63 -96.5c42.667 -133.333 -27.666 -260.333 -210.999 -381c-36 -23.333 -75.667 -46 -119 -68c60.667 -102 97 -166 109 -192
c30 -70.667 67.333 -141.667 112 -213l70.5 71.5l89.5 90l76 71.5c19.333 19.333 46.666 25 81.999 17c30.667 -6.66699 48.667 -20 54 -40c3.33301 -15.333 -3 -30.666 -19 -45.999c-18 -16 -36.833 -33.833 -56.5 -53.5l-64 -65.5l-53.5 -55l-103 -103
c68 -90 128 -163.667 180 -221c23.333 -24.667 22.666 -47.334 -2.00098 -68.001c-22 -19.333 -49 -27.333 -81 -24c-18.667 2 -33.334 8.66699 -44.001 20c-56 60 -111.333 125 -166 195c-258.667 -216 -492 -276.667 -700 -182c-75.333 34 -126.333 86.333 -153 157z
M114.002 261.999c0 -27.333 8.49902 -52.168 25.499 -74.501s42.167 -39.833 75.5 -52.5c78 -30 158.833 -30.833 242.5 -2.5s164.5 73.5 242.5 135.5l29 25.5l29 25.5c-25.333 36 -51.333 80 -78 132c-21.333 36.667 -49.833 90.5 -85.5 161.5
s-59.834 118.167 -72.501 141.5c-4 2.66699 -6 4.66699 -6 6c-101.333 -58.667 -186 -120.334 -254 -185.001c-16.667 -18 -33.167 -38.5 -49.5 -61.5s-32.666 -49.167 -48.999 -78.5s-28.666 -58.666 -36.999 -87.999s-12.5 -57.666 -12.5 -84.999zM545.001 1221
c-20 -84.667 -5.66504 -178.998 43.002 -282.998c31.333 17.333 47.666 26.333 48.999 27l59 38c14 9.33301 31.5 22.666 52.5 39.999s38 35.5 51 54.5s22.167 38.833 27.5 59.5c16 56.667 3.5 102 -37.5 136s-88.333 44.667 -142 32s-87.834 -47.334 -102.501 -104.001z
" />
    <glyph glyph-name="quotesingle" unicode="'" horiz-adv-x="212" 
d="M84 1032c6 38 19.001 93.333 39.001 166s33 127.334 39 164.001c4.66699 30 22 52.667 52 68c28 14 50 13.667 66 -1c12 -10.667 16.333 -27.667 13 -51c-6 -38.667 -19.667 -94.667 -41 -168s-35 -128.666 -41 -165.999
c-4.66699 -28.667 -21.334 -50.334 -50.001 -65.001c-27.333 -14.667 -49 -14.334 -65 0.999023c-11.333 10.667 -15.333 28 -12 52z" />
    <glyph glyph-name="parenleft" unicode="(" horiz-adv-x="505" 
d="M52 477c16.667 126 49.001 254.84 97.001 386.507s104.167 253.667 168.5 366s136.833 221.166 217.5 326.499c20.667 29.333 42 33.666 64 12.999c19.333 -18.667 28.666 -44.334 27.999 -77.001c-0.666992 -19.333 -5.66699 -35.333 -15 -48
c-292 -378.667 -441.333 -737.667 -448 -1077c-2.66699 -144 13.666 -265 48.999 -363c10.667 -42.667 29.667 -88.334 57 -137.001l14 -26l14.5 -27c3.66699 -6.66699 7 -15.334 10 -26.001s4.5 -21.334 4.5 -32.001c0 -26 -7 -45.333 -21 -58s-29.667 -16.834 -47 -12.501
s-30.666 15.5 -39.999 33.5c-70.667 114 -118 237.333 -142 370s-27.667 262 -11 388z" />
    <glyph glyph-name="parenright" unicode=")" horiz-adv-x="501" 
d="M-161 -258c-4.66699 17.333 1.33203 34.333 17.999 51c107.333 112 195.666 235.667 264.999 371s118 275.166 146 419.499s36.5 292.166 25.5 443.499s-41.833 300 -92.5 446c-9.33301 24.667 -3.16602 44.834 18.501 60.501s46.834 21.334 75.501 17.001
s47 -17.5 55 -39.5c92.667 -267.333 127 -527.333 103 -780c-40.667 -382.667 -200.667 -720.667 -480 -1014c-21.333 -21.333 -49 -27 -83 -17c-28.667 8 -45.667 22 -51 42z" />
    <glyph glyph-name="asterisk" unicode="*" horiz-adv-x="704" 
d="M90 1163c7.33301 19.333 20.498 33.835 39.498 43.502s39.167 14.5 60.5 14.5c14 1.33301 34.167 2.66602 60.5 3.99902s40.5 2 42.5 2c-11.333 22 -26.333 46.333 -45 73c-12 20 -9.83301 43.667 6.5 71s36.5 45.5 60.5 54.5s44 5.5 60 -10.5c22 -36 41 -65.333 57 -88
c37.333 45.333 81.666 85 132.999 119c33.333 24 59.666 26.667 78.999 8c16 -15.333 18.667 -36 8 -62c-6.66699 -18 -19.334 -33.333 -38.001 -46c-36 -24 -76 -61.667 -120 -113c70.667 2.66699 123 4 157 4c18.667 0 32.834 -6.33301 42.501 -19
s11.167 -27.334 4.5 -44.001c-10.667 -18.667 -26.167 -33.334 -46.5 -44.001s-40.166 -16 -59.499 -16h-53c0.666992 -2 5.83398 -13.833 15.501 -35.5s16.5 -38.5 20.5 -50.5c9.33301 -25.333 -0.666992 -52 -30 -80c-26.667 -26 -52.334 -37.333 -77.001 -34
c-15.333 1.33301 -26 10 -32 26c-35.333 80 -55.666 125 -60.999 135c-7.33301 -12 -18.166 -28.167 -32.499 -48.5s-24.166 -34.833 -29.499 -43.5c-20 -30.667 -46.667 -47 -80 -49c-26 -1.33301 -41.667 7 -47 25c-4 14.667 2.33301 33 19 55
c1.33301 2.66699 21 33.334 59 92.001c-86 -4 -131 -6 -135 -6c-16.667 -1.33301 -29.5 5 -38.5 19s-9.16699 28.667 -0.5 44z" />
    <glyph glyph-name="plus" unicode="+" horiz-adv-x="1007" 
d="M41.5 684c-1 14.667 4.83496 28.167 17.502 40.5s31.334 18.5 56.001 18.5c96.667 0 212 2.33301 346 7l53 301c3.33301 21.333 11.666 40.833 24.999 58.5s29.666 29.5 48.999 35.5s35.666 4.66699 48.999 -4s18 -22.334 14 -41.001l-30.5 -173.5l-30.5 -174.5
c102 4 203 6 303 6c16.667 0 31.167 -4.16699 43.5 -12.5s20.5 -18.333 24.5 -30s5 -23.167 3 -34.5s-9.16699 -21.166 -21.5 -29.499s-28.166 -12.5 -47.499 -12.5c-108.667 0 -217.334 -2 -326.001 -6c-25.333 -142 -41 -233 -47 -273
c-4 -20.667 -12.833 -39.5 -26.5 -56.5s-30.834 -29.5 -51.501 -37.5c-18 -6 -33.333 -4.83301 -46 3.5s-17.667 21.5 -15 39.5l55 318c-29.333 0 -73.5 -0.333008 -132.5 -1s-102.833 -1 -131.5 -1h-6h-53c-21.333 0 -38.666 6.16699 -51.999 18.5s-20.5 25.833 -21.5 40.5
z" />
    <glyph glyph-name="comma" unicode="," horiz-adv-x="360" 
d="M-35 74c-14 40 -3.83203 73.1641 30.501 99.4971s71.166 33.5 110.499 21.5c49.333 -13.333 84.666 -36.166 105.999 -68.499s29.333 -68.166 24 -107.499s-17.666 -78.333 -36.999 -117s-43.333 -73 -72 -103c-22.667 -21.333 -51 -28.666 -85 -21.999
c-28.667 5.33301 -45 18 -49 38c-2.66699 15.333 4.33301 32 21 50c22 22 40.5 47 55.5 75s21.167 54.667 18.5 80v5c-21.333 -10 -45.333 -10.333 -72 -1s-43.667 26 -51 50z" />
    <glyph glyph-name="hyphen" unicode="-" 
d="M42 576c-0.666992 25.333 11.333 49.333 36 72c18 16 36.333 24 55 24h488c32 0 48 -13 48 -39c0.666992 -25.333 -11.333 -49.333 -36 -72c-18 -16 -36.333 -24 -55 -24h-488c-32 0 -48 13 -48 39z" />
    <glyph glyph-name="period" unicode="." horiz-adv-x="268" 
d="M-35 69c-8.66699 24.667 -6.66797 48.0039 5.99902 70.0039c11.333 17.333 27.833 29.166 49.5 35.499s42.167 6.16602 61.5 -0.500977c14.667 -4.66699 27 -13.834 37 -27.501s12.667 -27.834 8 -42.501c11.333 -8.66699 17 -20.834 17 -36.501
s-5.66699 -29.167 -17 -40.5c-15.333 -15.333 -34.166 -24.166 -56.499 -26.499s-42.5 1.5 -60.5 11.5c-21.333 13.333 -36.333 32.333 -45 57z" />
    <glyph glyph-name="slash" unicode="/" horiz-adv-x="841" 
d="M-118 -156c-6 16.667 -4.33301 33.333 5 50l175.5 298.5l198 334.5l172.5 283l209 327.5l198 283.5c20 27.333 45.333 38.666 76 33.999c24.667 -4 39.667 -16 45 -36c4 -18 -1 -37 -15 -57l-196.5 -281l-201.5 -315l-171.5 -282l-190 -322.5l-172.5 -294.5
c-29.333 -42 -61.333 -60.333 -96 -55c-18 4.66699 -30 15.334 -36 32.001z" />
    <glyph glyph-name="zero" unicode="0" horiz-adv-x="1101" 
d="M115 211c-46 165.333 -42.667 338.668 10 520.001c72 268.667 170.333 466 295 592c87.333 87.333 174 131 260 131c41.333 0 82 -9.33301 122 -28s74.833 -43.167 104.5 -73.5s55.167 -63.166 76.5 -98.499s37 -71 47 -107c42.667 -159.333 41 -326.333 -5 -501
s-125.667 -331.334 -239 -470.001c-54.667 -65.333 -119 -116 -193 -152s-150 -48.667 -228 -38c-60.667 8 -113 32.167 -157 72.5s-75 91.166 -93 152.499zM212.5 421.502c3 -57 12.834 -106.167 29.501 -147.5c25.333 -68 70.333 -112.5 135 -133.5s130 -14.5 196 19.5
c110.667 52.667 201 170 271 352c49.333 155.333 74 317 74 485c0 52.667 -16.833 107.667 -50.5 165s-77.334 100 -131.001 128s-113.5 24.667 -179.5 -10c-37.333 -22 -70 -52.5 -98 -91.5s-55.333 -84.833 -82 -137.5c-41.333 -78 -77.333 -159.833 -108 -245.5
s-48.667 -162.5 -54 -230.5c-4.66699 -45.333 -5.5 -96.5 -2.5 -153.5z" />
    <glyph glyph-name="one" unicode="1" horiz-adv-x="704" 
d="M-78 45c-4.66699 17.333 -1.33594 33.001 9.99707 47.001s26.333 21 45 21h289c62 343.333 140.667 719.333 236 1128l-293 -223c-29.333 -21.333 -51.666 -19.333 -66.999 6c-14.667 23.333 -17 50.666 -7 81.999c6 18.667 15.667 33 29 43
c182 131.333 320.667 237.666 416 318.999c26.667 22 48.334 20.667 65.001 -4s21.334 -49.667 14.001 -75c-80.667 -313.333 -172.667 -738.666 -276 -1276h166c22 0 42 -5 60 -15s30 -24.333 36 -43c4.66699 -17.333 1.66699 -32.5 -9 -45.5s-25.334 -19.5 -44.001 -19.5
h-576c-47.333 0 -78.666 18.333 -93.999 55z" />
    <glyph glyph-name="two" unicode="2" horiz-adv-x="876" 
d="M-80 74c1.33301 8.66699 4.00488 17.333 8.00488 26s8 16 12 22s10 13.167 18 21.5l18 18.5c4 4 11 10.167 21 18.5s16.333 13.833 19 16.5l67.5 60l82.5 73c130.667 130.667 223.334 227.667 278.001 291c93.333 102 170.666 203.667 231.999 305
c60 97.333 91.333 175 94 233c2.66699 40 -11.333 75.167 -42 105.5s-67.334 49.833 -110.001 58.5c-96 20 -198.333 -10.667 -307 -92c-24.667 -19.333 -47.5 -24.333 -68.5 -15s-31 25 -30 47s12.833 43.333 35.5 64c44 34 93.5 62.167 148.5 84.5
s111.5 37.166 169.5 44.499s114.5 0.833008 169.5 -19.5s100.5 -54.833 136.5 -103.5c21.333 -28 34.666 -59.5 39.999 -94.5s5.16602 -68.167 -0.500977 -99.5s-16.667 -66.166 -33 -104.499s-32 -70.333 -47 -96s-32.833 -54.5 -53.5 -86.5
c-148.667 -219.333 -333.667 -428.333 -555 -627c-72 -64 -110 -98 -114 -102c50 0 88 1.33301 114 4c212.667 0 372.334 -1.33301 479.001 -4c32 -0.666992 47.667 -13.667 47 -39c-0.666992 -24 -13.334 -46.333 -38.001 -67c-18 -16 -36.667 -23.667 -56 -23
c-160 4 -319.667 4 -479 0c-5.33301 0 -21.833 -1 -49.5 -3s-51.834 -2.83301 -72.501 -2.5s-43.167 2.5 -67.5 6.5s-42.333 12.667 -54 26s-15.834 31 -12.501 53z" />
    <glyph glyph-name="three" unicode="3" horiz-adv-x="905" 
d="M-98 142c7.33301 21.333 23.998 35.9951 49.998 43.9951c22 6.66699 42.667 4.66699 62 -6c54.667 -28.667 113 -47.334 175 -56.001s121.333 -7.16699 178 4.5s107.834 37.5 153.501 77.5s78.167 92 97.5 156c25.333 94.667 27 168.667 5 222
c-12 29.333 -29.333 53.5 -52 72.5s-47.334 31.833 -74.001 38.5s-55.334 11.334 -86.001 14.001s-60.334 2.66699 -89.001 0c-23.333 -1.33301 -45.666 7.83398 -66.999 27.501s-23 39.834 -5 60.501l111 123.5l124.5 137.5l108.5 116.5l123 128.5
c-33.333 0.666992 -100.166 3 -200.499 7s-177.5 6.33301 -231.5 7c-29.333 0.666992 -50.666 11.167 -63.999 31.5s-14 40.333 -2 60s33.333 28.834 64 27.501c30 -0.666992 95 -3 195 -7s165 -6.16699 195 -6.5s95 -0.166016 195 0.500977
c30.667 2 53.667 -7.66699 69 -29s12.333 -43.666 -9 -66.999l-23 -27c-24.667 -24.667 -42.334 -43.667 -53.001 -57c-16 -18 -41.167 -44.667 -75.5 -80l-76.5 -80l-117.5 -128l-117.5 -128c60 -7.33301 109.667 -23 149 -47c76.667 -44 127.334 -92.333 152.001 -145
c19.333 -52 28.333 -104.167 27 -156.5s-10.333 -103.833 -27 -154.5c-28 -82 -73.667 -149.5 -137 -202.5s-133.833 -88.167 -211.5 -105.5s-158.667 -20.833 -243 -10.5s-162.833 34.5 -235.5 72.5c-33.333 16 -45.666 37.333 -36.999 64z" />
    <glyph glyph-name="four" unicode="4" horiz-adv-x="968" 
d="M0.5 507.5c-0.333008 20.333 3.50195 38.166 11.502 53.499c21.333 31.333 46.666 65 75.999 101l74 88.5l88 98.5l80 89l136.5 155.5l164 187.5l135.5 157c23.333 22.667 47.333 25.167 72 7.5s37.667 -42.167 39 -73.5c2 -8 2 -16 0 -24
c-48.667 -224.667 -98 -476 -148 -754c41.333 0 98.666 -1.33301 171.999 -4c24 -2 42.5 -16 55.5 -42s15.833 -51.667 8.5 -77s-24 -37.666 -50 -36.999c-93.333 5.33301 -165 8 -215 8l-75 -381c-5.33301 -26 -24.333 -46.333 -57 -61
c-33.333 -14.667 -59 -15.334 -77 -2.00098c-12 8.66699 -16 22.334 -12 41.001c9.33301 45.333 22.5 113 39.5 203l38.5 202c-148 -2 -311.667 -7.33301 -491 -16c-18 -1.33301 -33.333 6.5 -46 23.5s-19.167 35.667 -19.5 56zM217.002 590
c123.333 4 246.334 5.99902 369.001 5.99902l49.5 264c21.667 117.333 38.5 205.333 50.5 264l-276 -315l-93.5 -105.5c-43.667 -48.333 -76.834 -86.166 -99.501 -113.499z" />
    <glyph glyph-name="five" unicode="5" horiz-adv-x="899" 
d="M-33 74c-11.333 22 -8.1709 44.832 9.49609 68.499s38.334 37.5 62.001 41.5s42.167 -3.33301 55.5 -22c6 -9.33301 23 -18.333 51 -27c49.333 -8 88.333 -12 117 -12c124.667 0 214.667 32.667 270 98c42 50 69.833 116.667 83.5 200s4.5 154 -27.5 212
c-20.667 31.333 -42.167 55.833 -64.5 73.5s-48.833 26.5 -79.5 26.5c-21.333 -0.666992 -52.666 -3.33398 -93.999 -8.00098s-72 -7.33398 -92 -8.00098c-14 -1.33301 -26.167 3.33398 -36.5 14.001s-15.166 23 -14.499 37c8 60 18 122.5 30 187.5s26.333 138.167 43 219.5
l37 185c9.33301 39.333 32 64 68 74c16.667 14.667 36.334 18 59.001 10c14 -7.33301 31 -12.333 51 -15s38 -3.5 54 -2.5s36.167 2.5 60.5 4.5s41.833 3 52.5 3c84.667 6.66699 161.667 10 231 10c28 0 43 -14.333 45 -43c2.66699 -29.333 -6.66602 -56.333 -27.999 -81
c-15.333 -17.333 -32 -26 -50 -26c-27.333 -0.666992 -74.333 -2.5 -141 -5.5s-118 -4.5 -154 -4.5c-9.33301 0 -22.333 -0.333008 -39 -1s-31.667 -1 -45 -1s-25.666 0.666992 -36.999 2c-41.333 -204.667 -68.666 -347.334 -81.999 -428.001c2.66699 0 12.5 1 29.5 3
s28.167 3.16699 33.5 3.5s15.166 0.833008 29.499 1.5s25.666 0.833984 33.999 0.500977s18.333 -1.16602 30 -2.49902s22.5 -3.33301 32.5 -6c40 -10 76 -30.167 108 -60.5s56.667 -66.166 74 -107.499c32.667 -80.667 40 -172 22 -274s-55.333 -185.333 -112 -250
c-49.333 -56.667 -109.833 -99.5 -181.5 -128.5s-147.834 -44.167 -228.501 -45.5c-150 0 -238.667 28 -266 84z" />
    <glyph glyph-name="six" unicode="6" horiz-adv-x="972" 
d="M88 530c-8.66699 22.667 -7.33594 46 3.99707 70c0 24.667 0.666992 41.667 2 51c10 102.667 58 213.334 144 332.001c100 128 213.333 238.667 340 332c44 30 80.167 53.5 108.5 70.5s65 34 110 51s86.833 25.5 125.5 25.5c28.667 0.666992 45 -13.666 49 -42.999
c4 -30 -4.33301 -57.667 -25 -83c-14 -17.333 -30.333 -26.333 -49 -27c-27.333 0 -55.333 -4.5 -84 -13.5s-58.834 -23.333 -90.501 -43s-56.167 -35.667 -73.5 -48s-42 -30.833 -74 -55.5c-134.667 -108 -235.667 -218 -303 -330c-22 -36 -36.333 -70 -43 -102
c44 30.667 88.333 56.667 133 78s91.334 37.833 140.001 49.5s96.834 13.5 144.501 5.5s90.834 -26.333 129.501 -55c48.667 -37.333 83.167 -88.833 103.5 -154.5s26.833 -132.334 19.5 -200.001s-25.5 -133.667 -54.5 -198s-65.5 -115.166 -109.5 -152.499
c-36 -32 -77 -58.333 -123 -79s-94.333 -33.834 -145 -39.501s-99 0.5 -145 18.5c-54.667 23.333 -99.167 60.5 -133.5 111.5s-58.166 108.5 -71.499 172.5c-19.333 83.333 -29 168.666 -29 255.999zM208.998 535c2.66699 -156 34 -270.999 94 -344.999
c44.667 -48 104.5 -70.167 179.5 -66.5s136.833 27.5 185.5 71.5c39.333 39.333 68 87.166 86 143.499s24 112.833 18 169.5c-6 59.333 -24.167 104.333 -54.5 135s-66.333 47.334 -108 50.001s-87.5 -2.83301 -137.5 -16.5s-97.333 -32.334 -142 -56.001
s-85 -49.5 -121 -77.5v-8z" />
    <glyph glyph-name="seven" unicode="7" horiz-adv-x="868" 
d="M10 102l225.502 378.999l196.5 328l217 360c8.66699 13.333 22.334 36.166 41.001 68.499s33 56.166 43 71.499c-36 -0.666992 -87.833 -1.83398 -155.5 -3.50098s-118.5 -2.66699 -152.5 -3s-86.333 -0.166016 -157 0.500977c-44.667 2 -74.334 7.66699 -89.001 17
c-12 7.33301 -20.333 17.333 -25 30c-12.667 25.333 -4.5 46.833 24.5 64.5s58.167 21.834 87.5 12.501h8c294 -12.667 507.667 -5 641 23c18 3.33301 35 -0.5 51 -11.5s23.667 -25.5 23 -43.5c0 -11.333 -6 -24.333 -18 -39c-3.33301 -15.333 -10.333 -25.666 -21 -30.999
c-19.333 -13.333 -38.333 -31.333 -57 -54s-33.334 -43 -44.001 -61s-24.5 -42.667 -41.5 -74l-35.5 -65l-106.5 -176.5l-106.5 -175.5l-180.5 -297.5l-235.5 -390.5c-14.667 -18.667 -34.834 -27.5 -60.501 -26.5s-47.667 11.833 -66 32.5s-20.5 42.334 -6.5 65.001z" />
    <glyph glyph-name="eight" unicode="8" horiz-adv-x="993" 
d="M42.5 291c1.66699 49.333 12.166 98.3311 31.499 146.998c10.667 27.333 25.667 53.833 45 79.5s38.166 47.334 56.499 65.001s42.833 36.834 73.5 57.501s55.334 36.5 74.001 47.5l80 45.5c-54 54 -97 114 -129 180c-49.333 105.333 -62 197.666 -38 276.999
c24.667 73.333 77.667 138 159 194c144 96 278 114 402 54c63.333 -31.333 107.666 -75 132.999 -131s28.666 -117.667 9.99902 -185c-1.33301 -6 -4.66602 -13.333 -9.99902 -22c3.33301 -12.667 4 -21 2 -25c-13.333 -74.667 -43.333 -139 -90 -193
s-107.667 -104.333 -183 -151c46.667 -38.667 83.834 -75.334 111.501 -110.001s45.167 -73.667 52.5 -117c16.667 -77.333 14.334 -156.666 -6.99902 -237.999s-61.333 -144.666 -120 -189.999c-48 -35.333 -102.833 -63 -164.5 -83s-126.5 -28 -194.5 -24
s-126.333 24 -175 60c-41.333 31.333 -72 70.5 -92 117.5s-29.167 95.167 -27.5 144.5zM167.499 310.498c0.333008 -49 12.832 -86.834 37.499 -113.501c30.667 -34.667 71 -57.667 121 -69s101 -13 153 -5c122.667 25.333 193.667 73 213 143
c12 35.333 16.667 76.833 14 124.5s-15.334 86.834 -38.001 117.501c-8.66699 10 -18 19.833 -28 29.5s-21 19.5 -33 29.5l-29.5 24l-34.5 26.5l-31 23.5c-16 -6.66699 -37.5 -17.167 -64.5 -31.5l-52.5 -27.5c-2 -1.33301 -10.667 -6.33301 -26 -15
s-24.833 -14.167 -28.5 -16.5l-25.5 -16c-13.333 -8.33301 -22.666 -14.5 -27.999 -18.5l-24 -18c-10.667 -8 -19 -15 -25 -21l-20 -21c-7.33301 -8 -13.666 -16 -18.999 -24c-21.333 -32 -31.833 -72.5 -31.5 -121.5zM355.998 1176
c-16 -38.667 -11.499 -83.8311 13.501 -135.498s56.167 -100.834 93.5 -147.501c31.333 -33.333 62 -60 92 -80c154 76 238 155.333 252 238c0 1.33301 4 15.666 12 42.999c-2.66699 14 -1.33398 29 3.99902 45c7.33301 27.333 6.16602 52.666 -3.50098 75.999
s-24.834 42 -45.501 56s-44.5 26 -71.5 36s-54 15.167 -81 15.5s-51.833 -1.5 -74.5 -5.5c-37.333 -10 -75.166 -28.167 -113.499 -54.5s-64.166 -55.166 -77.499 -86.499z" />
    <glyph glyph-name="nine" unicode="9" horiz-adv-x="1030" 
d="M87 86c6.66699 14 19.9971 24.335 39.9971 31.002c332 98 541 282.333 627 553c-240.667 -120 -415.667 -107.667 -525 37c-52 70 -81.167 160.667 -87.5 272s12.834 204 57.501 278c32.667 54 77.334 94.5 134.001 121.5s119 41.167 187 42.5
c82 0 153.833 -5.66699 215.5 -17s114.834 -35.666 159.501 -72.999c68.667 -62.667 99.334 -160.334 92.001 -293.001c-13.333 -168.667 -46 -319.334 -98 -452.001c-58.667 -150.667 -147.334 -272.834 -266.001 -366.501s-263.667 -166.834 -435 -219.501
c-31.333 -9.33301 -59 -1.66602 -83 23.001c-21.333 20.667 -27.333 41.667 -18 63zM302.997 952.002c0.666992 -2 2.16602 -11.168 4.49902 -27.501s4 -27.333 5 -33s3 -15.667 6 -30s5.83301 -25.333 8.5 -33s6.16699 -17 10.5 -28s9.33301 -20.5 15 -28.5
s11.834 -15.333 18.501 -22c21.333 -21.333 47 -34.333 77 -39s58.333 -4 85 2s57.167 17.667 91.5 35s61.5 32.5 81.5 45.5s43.333 29.167 70 48.5c14.667 6 23.667 9.33301 27 10c24 102.667 34.333 189.334 31 260.001c-2.66699 102 -41.667 160.667 -117 176
c-178 37.333 -297 18.333 -357 -57c-50 -70 -69 -163 -57 -279z" />
    <glyph glyph-name="colon" unicode=":" horiz-adv-x="430" 
d="M47.5 64c-8.33301 24 -6.5 46.333 5.5 67c11.333 16 26.833 26.833 46.5 32.5s39.167 5.83398 58.5 0.500977c14.667 -4 26.667 -12.5 36 -25.5s11.666 -26.5 6.99902 -40.5c10 -8.66699 15 -20.5 15 -35.5s-5 -27.5 -15 -37.5c-14 -14 -31.667 -22.333 -53 -25
s-40.666 0.666016 -57.999 9.99902c-20 12 -34.167 30 -42.5 54zM219 881c0.666992 6 2.66797 14.834 6.00098 26.501s5.33301 20.5 6 26.5c0 0.666992 0.333008 2.33398 1 5.00098s1 4.33398 1 5.00098v6c-2 11.333 5.66699 25.666 23 42.999c16.667 16.667 35 25 55 25
c22 2.66699 39 0 51 -8c11.333 -7.33301 19.666 -20.333 24.999 -39c0.666992 -4.66699 0.666992 -9.66699 0 -15s-1.66699 -11.333 -3 -18s-2.33301 -11.334 -3 -14.001c-4 -12 -6 -18.333 -6 -19c-8 -40.667 -34.667 -64.334 -80 -71.001c-20 -2.66699 -37.667 0 -53 8
c-15.333 15.333 -23 28.333 -23 39z" />
    <glyph glyph-name="semicolon" unicode=";" horiz-adv-x="413" 
d="M1.5 -152c0.333008 18.667 6.49902 35.334 18.499 50.001c29.333 32 47.333 54.333 54 67c2.66699 7.33301 8.66699 19 18 35c-23.333 -8 -42.333 -7.33301 -57 2c-16 10.667 -23.5 24.667 -22.5 42s7.16699 33.333 18.5 48c18.667 23.333 41.334 39.666 68.001 48.999
s54.334 8 83.001 -4c38 -18.667 56 -52 54 -100c-6.66699 -64 -43.667 -131 -111 -201c-39.333 -36 -73.333 -46.333 -102 -31c-14.667 10 -21.834 24.333 -21.501 43zM234.499 897.5c-7 21 -6.5 40.499 1.5 58.499c2.66699 12 6 20.333 10 25
c0 15.333 0.666992 26.333 2 33c6 17.333 17.5 29.166 34.5 35.499s32.167 4.5 45.5 -5.5c19.333 -15.333 32.5 -34.166 39.5 -56.499s6.83301 -44.833 -0.5 -67.5c-1.33301 -3.33301 -4 -9.33301 -8 -18s-7 -15 -9 -19c0 -1.33301 -0.666992 -2.66602 -2 -3.99902
c-6.66699 -17.333 -17 -29 -31 -35c-12.667 -6 -29 -3.33301 -49 8c-15.333 9.33301 -26.5 24.5 -33.5 45.5z" />
    <glyph glyph-name="less" unicode="&#x3c;" horiz-adv-x="1030" 
d="M41.5 636c-2.33301 11.333 2.16504 21.999 13.498 31.999c52.667 51.333 115.334 99.833 188.001 145.5s140.5 83.167 203.5 112.5s133.833 64.833 212.5 106.5s145.667 81.834 201 120.501c25.333 18 54.333 19.667 87 5c26.667 -12.667 40.667 -29.334 42 -50.001
c0.666992 -16.667 -8.66602 -31.667 -27.999 -45c-49.333 -36.667 -108.666 -73.334 -177.999 -110.001s-132.666 -68 -189.999 -94s-119.833 -58 -187.5 -96s-125.834 -77.333 -174.501 -118c67.333 -36.667 168.166 -82 302.499 -136s228.833 -94.667 283.5 -122
c32 -16 41.667 -37.333 29 -64c-10.667 -22 -29.667 -36.333 -57 -43c-20.667 -5.33301 -40 -3.66602 -58 5.00098c-52.667 26.667 -155.5 71.334 -308.5 134.001s-267.167 117.667 -342.5 165c-10 6 -18.333 13.333 -25 22s-11.167 18.667 -13.5 30z" />
    <glyph glyph-name="equal" unicode="=" horiz-adv-x="1064" 
d="M44 493c-5.33301 30 9.33203 56 43.999 78c16.667 10 36 15.833 58 17.5s41.5 1.16699 58.5 -1.5s36.167 -2.33398 57.5 0.999023c64 9.33301 128.167 15.166 192.5 17.499s144.833 2.33301 241.5 0s159 -3.5 187 -3.5c18 0 31.833 -6.66699 41.5 -20s10.167 -29 1.5 -47
c-9.33301 -18.667 -24 -33 -44 -43s-40.333 -15 -61 -15c-16.667 0.666992 -51.334 1.83398 -104.001 3.50098s-91.5 2.66699 -116.5 3s-58.167 0.5 -99.5 0.5s-79.333 -1 -114 -3c-13.333 -1.33301 -32.666 -3.66602 -57.999 -6.99902s-48.333 -6 -69 -8s-39.667 -3 -57 -3
c-37.333 -32.667 -74.666 -41 -111.999 -25c-27.333 10.667 -43 29 -47 55zM121.998 865c-8.66699 23.333 -3.66992 43.999 14.9971 61.999c14.667 14 34.667 21 60 21c109.333 0 193.833 0.333008 253.5 1s136 3.5 229 8.5s178.5 12.167 256.5 21.5
c30.667 4 55.334 -7 74.001 -33c16.667 -23.333 18 -44.666 4 -63.999c-9.33301 -13.333 -25.666 -21.333 -48.999 -24c-185.333 -20.667 -445.666 -31 -780.999 -31c-32 0 -52.667 12.667 -62 38z" />
    <glyph glyph-name="greater" unicode="&#x3e;" horiz-adv-x="1085" 
d="M43 345c4.66699 16 17.0029 29.3311 37.0029 39.998c70.667 35.333 145.667 70 225 104l272.5 112.5l227.5 92.5c-78.667 34 -187.667 85.667 -327 155l-290 142c-31.333 14.667 -42.333 35.667 -33 63c8 22.667 24.667 38.334 50 47.001
c21.333 7.33301 41.666 6.33301 60.999 -3c54.667 -25.333 131.5 -63 230.5 -113l272 -132.5c82.333 -38.333 161.5 -71.833 237.5 -100.5c14 -4.66699 24.5 -13.667 31.5 -27s8.16699 -27.333 3.5 -42s-16.334 -26 -35.001 -34c-71.333 -32 -204.333 -87 -399 -165
s-343.667 -143 -447 -195c-28.667 -15.333 -57.334 -14.333 -86.001 3c-24.667 14.667 -35 32.334 -31 53.001z" />
    <glyph glyph-name="question" unicode="?" horiz-adv-x="800" 
d="M86 55c-4 12.667 -2.00098 30.665 5.99902 53.998c12.667 28 34 47.667 64 59s56.667 6 80 -16c20.667 -26.667 26.667 -54.667 18 -84c-4 -18.667 -14.5 -34.667 -31.5 -48s-35.167 -20.666 -54.5 -21.999c-21.333 0 -35.666 5.33301 -42.999 16
c-0.666992 0.666992 -3.33398 5.66699 -8.00098 15c-15.333 6.66699 -25.666 15.334 -30.999 26.001zM146.999 1346c0 30 13.6699 56.4951 41.0029 79.4951s61 40.167 101 51.5s78.5 19.833 115.5 25.5s68.833 7.83398 95.5 6.50098c50.667 -2 98.167 -13.167 142.5 -33.5
s81.333 -50.333 111 -90s44.834 -85.167 45.501 -136.5c4 -72 -10.333 -143.333 -43 -214s-76.334 -137 -131.001 -199c-20 -22 -51.167 -53.5 -93.5 -94.5l-104 -103.5c-27 -28 -53.5 -63.333 -79.5 -106s-42.333 -84.667 -49 -126c-8 -35.333 -26 -52 -54 -50
c-23.333 2 -42.333 15.333 -57 40c-10.667 18.667 -14 38.334 -10 59.001c9.33301 50.667 26.833 99.334 52.5 146.001s55.834 89.334 90.501 128.001s69.667 75.834 105 111.501s71.666 75.167 108.999 118.5s67.333 85.333 90 126c15.333 28 27.166 54.833 35.499 80.5
s13 52.167 14 79.5s-7.5 50.5 -25.5 69.5s-45.333 31.5 -82 37.5c-102.667 12 -199.667 -7.33301 -291 -58c-2 -12.667 -7.33301 -22.167 -16 -28.5s-19.667 -8.16602 -33 -5.49902c-6.66699 0 -11.334 0.666992 -14.001 2c-18.667 4 -34.334 14.167 -47.001 30.5
s-19 34.166 -19 53.499z" />
    <glyph glyph-name="at" unicode="@" horiz-adv-x="1943" 
d="M135 756c25.333 92 58.1758 176.326 98.5088 252.993s93.166 147.667 158.499 213s139.333 116 222 152c73.333 32 155.333 56 246 72c6 0.666992 22.833 3.5 50.5 8.5s46 8.16699 55 9.5l49.5 7c24 3.33301 42.5 5.33301 55.5 6s29.333 1.66699 49 3
s38 1.66602 55 0.999023s33.833 -2 50.5 -4c131.333 -14.667 248.5 -57.667 351.5 -129s183.167 -165.666 240.5 -282.999c81.333 -155.333 104.333 -322.666 69 -501.999c-12 -67.333 -30.5 -130 -55.5 -188s-56.833 -111.5 -95.5 -160.5s-86.334 -89 -143.001 -120
s-119.667 -49.5 -189 -55.5c-51.333 -2.66699 -96.5 -1.16699 -135.5 4.5s-72.5 19.834 -100.5 42.501c-27.333 24.667 -42.333 61 -45 109c-41.333 -34 -85.5 -63.167 -132.5 -87.5s-95.333 -42.333 -145 -54s-96.667 -9.33398 -141 6.99902s-79.5 48.166 -105.5 95.499
c-48.667 92 -54 223 -16 393c10.667 46.667 20.667 85.667 30 117s23.833 67 43.5 107s42.167 72.333 67.5 97c56 56 118.333 96.667 187 122s139.5 31.333 212.5 18s138.5 -47 196.5 -101c22 2 42.167 -2.5 60.5 -13.5s27.5 -26.167 27.5 -45.5
c-2.66699 -48.667 -6 -84.334 -10 -107.001c0 -0.666992 -0.333008 -3 -1 -7s-1 -7.66699 -1 -11c-0.666992 -5.33301 -2.83398 -13.666 -6.50098 -24.999s-5.83398 -18.666 -6.50098 -21.999c0 -0.666992 -0.666992 -1.83398 -2 -3.50098s-2 -3.16699 -2 -4.5
c-4 -16 -13.167 -49.833 -27.5 -101.5s-24.166 -92.5 -29.499 -122.5c-10 -38.667 -20.333 -95.334 -31 -170.001c-10.667 -51.333 -13.334 -84.666 -8.00098 -99.999c4.66699 -14.667 21.667 -22.5 51 -23.5s55.833 1.16699 79.5 6.5s45.834 11 66.501 17
c57.333 29.333 103.666 66.333 138.999 111c55.333 74 94.333 162.833 117 266.5s24 200.5 4 290.5c-26.667 110.667 -71.334 209.5 -134.001 296.5s-142.334 148.5 -239.001 184.5c-44 17.333 -90.833 28.333 -140.5 33s-94.334 5 -134.001 1s-86.834 -11.333 -141.501 -22
c-96 -13.333 -164.333 -27.666 -205 -42.999c-90 -32.667 -169.667 -83.667 -239 -153s-123.5 -148.166 -162.5 -236.499s-67.333 -180.666 -85 -276.999s-23.834 -192.166 -18.501 -287.499c4.66699 -84.667 21.5 -165 50.5 -241s72.167 -139.667 129.5 -191
c81.333 -71.333 178.333 -119.333 291 -144c67.333 -20.667 145 -32 233 -34c12.667 0 35.334 -0.833008 68.001 -2.5s58.334 -2.66699 77.001 -3s41.167 0.833984 67.5 3.50098s49.166 7.33398 68.499 14.001c18 6.66699 37.167 8.33398 57.5 5.00098s36.5 -12 48.5 -26
c12 -16 14.333 -32.333 7 -49s-20 -28 -38 -34c-92.667 -30 -226.334 -37 -401.001 -21c-108 4.66699 -205.667 21 -293 49c-162.667 51.333 -286 131.333 -370 240c-162 208 -195.667 491.333 -101 850zM713.01 313.493c0 -13 0.666992 -23.332 2 -30.999l5 -28
c2 -11 4.5 -20.167 7.5 -27.5s6.66699 -14.833 11 -22.5s9.5 -14.5 15.5 -20.5c9.33301 -10.667 21.833 -16.834 37.5 -18.501s32.667 0.666016 51 6.99902s37 14.333 56 24s37.5 21 55.5 34s33.5 24.667 46.5 35l33.5 27.5c41.333 40 79 102 113 186
c10.667 32 36 99.667 76 203c6 20.667 12 63 18 127c-16.667 6.66699 -27 12 -31 16c-84 80 -170.667 98 -260 54c-66.667 -36.667 -111.667 -77.667 -135 -123c-50.667 -105.333 -81.334 -205.666 -92.001 -300.999c0 -2 -0.833008 -10 -2.5 -24s-2.66699 -23.333 -3 -28
s-1.16602 -14.167 -2.49902 -28.5s-2 -24.833 -2 -31.5v-29.5z" />
    <glyph glyph-name="A" unicode="A" horiz-adv-x="1118" 
d="M-58 34c-2 6.66699 -2.99707 13.6689 -2.99707 21.002c0 14 4 27.667 12 41l98 175.5l98 174.5c-1.33301 6 -2 11.667 -2 17c0 22 12.333 36.333 37 43l490 872c0.666992 18.667 5.66699 32.667 15 42s20.666 14 33.999 14c5.33301 1.33301 10.333 2 15 2
c12 0 24 -5.66699 36 -17c14 -14 21 -31 21 -51v-8v-4c9.33301 -256 40 -525.667 92 -809h6c22 1.33301 42.167 -2 60.5 -10s30.833 -21 37.5 -39c3.33301 -7.33301 5 -14.333 5 -21c0 -8.66699 -3 -17 -9 -25c-10.667 -14.667 -25 -22.667 -43 -24
c-4 0 -9.83301 -0.333008 -17.5 -1s-13.5 -1 -17.5 -1c18 -88 43.333 -199.333 76 -334c3.33301 -10.667 5 -20.334 5 -29.001c0 -16 -5.33301 -30 -16 -42c-16 -18 -35 -23.667 -57 -17s-37 25 -45 55c-31.333 121.333 -58.666 241.666 -81.999 360.999
c-18.667 0 -61.334 -0.166992 -128.001 -0.5s-115 -0.833008 -145 -1.5s-70.167 -3 -120.5 -7s-95.833 -10 -136.5 -18l-109 -190.5l-100 -175.5c-14.667 -26.667 -32.334 -40 -53.001 -40c-4.66699 0 -9.33398 0.666992 -14.001 2c-20.667 6 -34 21 -40 45z
M336.003 530.002c42.667 3.33301 85.5 5.83301 128.5 7.5s99.667 2.66699 170 3s113.5 0.5 129.5 0.5c-38 208 -64.667 410.667 -80 608z" />
    <glyph glyph-name="B" unicode="B" horiz-adv-x="1085" 
d="M45 80c45.333 152.667 91.4961 374.662 138.496 665.995s84.833 496 113.5 614c4.66699 19.333 19 33.333 43 42c13.333 4.66699 26.666 7 39.999 7c10 0 20 -1.33301 30 -4c56 24 117.333 39 184 45c18.667 2 37.334 2.66699 56.001 2c46.667 0 92 -5.33301 136 -16
c61.333 -15.333 116.333 -39.166 165 -71.499s85 -77.166 109 -134.499c16 -38.667 24.333 -80.667 25 -126c0 -22.667 -2 -46 -6 -70c-24 -131.333 -114 -226.666 -270 -285.999c44.667 -22.667 80 -48 106 -76c35.333 -38.667 58.333 -84 69 -136
c5.33301 -27.333 8.33301 -54.333 9 -81c0.666992 -24 -1.66602 -48 -6.99902 -72c-9.33301 -50 -26.666 -98.333 -51.999 -145c-19.333 -38 -43.833 -71.5 -73.5 -100.5s-60.667 -52.5 -93 -70.5s-69.666 -32.833 -111.999 -44.5s-82.166 -20.167 -119.499 -25.5
c-36 -5.33301 -78 -8.66602 -126 -9.99902c-32 -0.666992 -61 -1 -87 -1h-37c-34.667 0.666992 -75 2 -121 4c-20.667 0.666992 -36 1.33398 -46 2.00098c-22 2 -37 11.333 -45 28c-20.667 10.667 -31 25.334 -31 44.001c0 5.33301 0.666992 10.666 2 15.999z
M220.996 144.995c32 -1.33301 62.668 -1.66699 92.001 -1c121.333 0 219.666 8.66699 294.999 26c106.667 24 177.667 65.667 213 125c19.333 31.333 33.666 62.333 42.999 93c6 19.333 9 39 9 59c0.666992 11.333 -0.333008 23.666 -3 36.999
c-5.33301 34.667 -23 63 -53 85c-28.667 21.333 -64.167 39 -106.5 53s-77.5 23.167 -105.5 27.5s-68 9.83301 -120 16.5c-8.66699 2 -18 6.66699 -28 14c-50 -2 -92.333 -4 -127 -6c-41.333 -235.333 -77.666 -411.666 -108.999 -528.999zM347.997 794.994
c45.333 2.66699 78 5.33398 98 8.00098c12.667 15.333 29.334 22 50.001 20c5.33301 -0.666992 14.666 -2 27.999 -4s23.666 -3.33301 30.999 -4c32 5.33301 56.667 10.666 74 15.999c152.667 34 246 93 280 177c11.333 32.667 17 65.667 17 99
c0 8.66699 -0.666992 17.667 -2 27c-4 42.667 -19.167 82 -45.5 118s-60.5 59.667 -102.5 71c-32 8 -65.667 12 -101 12c-24 0.666992 -49 -1 -75 -5c-63.333 -9.33301 -118.666 -29.333 -165.999 -60c-16 -70 -44.667 -228.333 -86 -475z" />
    <glyph glyph-name="C" unicode="C" horiz-adv-x="1044" 
d="M90 430c-5.33301 40 -7.99707 78.6631 -7.99707 115.996c0 50.667 4.66699 99.334 14 146.001c49.333 260.667 141 454 275 580c64.667 60 137.667 104 219 132c76 26 152.333 39 229 39h17c81.333 -2 166.666 -16 255.999 -42c23.333 -6.66699 35 -19 35 -37
c0 -6.66699 -1.66699 -13.667 -5 -21c-9.33301 -24.667 -28 -44 -56 -58c-20.667 -10.667 -40 -13 -58 -7c-54.667 15.333 -107.334 25.333 -158.001 30c-21.333 2 -43 3 -65 3c-29.333 0.666992 -59 -1 -89 -5c-52 -6.66699 -101.167 -22.667 -147.5 -48
s-86.5 -59.666 -120.5 -102.999c-52 -64.667 -94 -139.167 -126 -223.5s-52.667 -170.166 -62 -257.499c-5.33301 -42 -8 -82 -8 -120c0 -114.667 25.667 -210 77 -286c67.333 -98.667 176.666 -148 327.999 -148c62.667 0 132.334 8.33301 209.001 25
c18 3.33301 34.167 -0.5 48.5 -11.5s20.5 -25.5 18.5 -43.5c-2 -19.333 -10.5 -35.333 -25.5 -48s-32.833 -21.334 -53.5 -26.001c-62.667 -13.333 -123 -21.666 -181 -24.999c-16.667 -0.666992 -33.334 -1 -50.001 -1c-42 0 -85 2.66699 -129 8
c-61.333 8 -118.333 27.833 -171 59.5s-95.667 73.834 -129 126.501c-44 70 -72 152 -84 246z" />
    <glyph glyph-name="D" unicode="D" horiz-adv-x="1189" 
d="M42 54c5.33301 29.333 21.332 54.3359 47.999 75.0029c-6.66699 11.333 -8 27 -4 47c50.667 307.333 118.334 667.666 203.001 1081c-17.333 6.66699 -26 22.667 -26 48c0.666992 4.66699 1 9 1 13c2.66699 33.333 16.334 57.666 41.001 72.999
c48.667 30 103.667 49 165 57c52.667 7.33301 112.334 10.666 179.001 9.99902h33c77.333 -2.66699 143.666 -10.334 198.999 -23.001s103.666 -37.667 144.999 -75c44.667 -39.333 80.167 -86.5 106.5 -141.5s42.833 -112.5 49.5 -172.5c4 -33.333 6 -67 6 -101
c0 -26.667 -1.33301 -53 -4 -79c-5.33301 -59.333 -16.333 -118 -33 -176c-79.333 -267.333 -205 -457.666 -377 -570.999c-134.667 -90 -295 -135 -481 -135c-68 0 -139.667 6 -215 18c-24.667 4.66699 -37 18 -37 40c0 3.33301 0.333008 7.33301 1 12zM192.999 135.003
c47.333 -6 93.001 -9 137.001 -9c160 0 295.667 39.333 407 118c135.333 94 230.333 241.333 285 442c12.667 46.667 21.667 93.334 27 140.001c4 32.667 6 66.667 6 102c0.666992 15.333 0.333984 30.666 -0.999023 45.999c-2.66699 51.333 -14 100 -34 146
s-48.667 83.667 -86 113c-37.333 30 -79 50.5 -125 61.5s-99.333 17.167 -160 18.5h-31h-34.5c-7 0 -17.833 -0.166992 -32.5 -0.5s-26.834 -0.833008 -36.501 -1.5s-20.834 -1.66699 -33.501 -3s-24.667 -3 -36 -5s-22.333 -4.33301 -33 -7
c1.33301 -10 0.666016 -22 -2.00098 -36c-83.333 -400 -151.666 -766 -204.999 -1098c-4 -10 -8 -19 -12 -27z" />
    <glyph glyph-name="E" unicode="E" horiz-adv-x="1015" 
d="M86 40c-2.66699 7.33301 -3.99512 14.6709 -3.99512 22.0039c0 10 2.66699 19.333 8 28c3.33301 5.33301 8.66602 10.666 15.999 15.999c21.333 62 65.666 282.5 132.999 661.5s100.333 578.5 99 598.5c2 16.667 11 31.834 27 45.501s33.667 22.5 53 26.5
c8 4 17.333 6 28 6c266.667 0 467 1.33301 601 4h5c30.667 0 46 -13 46 -39c0 -24.667 -11.667 -47.667 -35 -69c-18 -16 -36.333 -24.333 -55 -25c-178 -4 -356.333 -6 -535 -6c-32.667 -213.333 -60 -380 -82 -500c84.667 -0.666992 135.167 -1 151.5 -1
s66.666 2 150.999 6s134.5 6.33301 150.5 7h2c32.667 0 56.334 -13 71.001 -39c6.66699 -10.667 10 -21 10 -31c0 -11.333 -4.33301 -21.666 -13 -30.999c-11.333 -12.667 -28.666 -19.334 -51.999 -20.001c-34.667 -0.666992 -89.334 -2.83398 -164.001 -6.50098
s-129.334 -5.83398 -164.001 -6.50098h-23c-34 0 -80.667 1 -140 3c-35.333 -188 -74.333 -375 -117 -561c-1.33301 -1.33301 -2 -3.33301 -2 -6c58.667 -7.33301 122.667 -11 192 -11s129.666 1.66699 180.999 5s116.666 8.66602 195.999 15.999h11
c25.333 0.666992 43.333 -7.66602 54 -24.999c6 -10 9.33301 -20 10 -30c0 -10.667 -3.33301 -21.334 -10 -32.001c-12.667 -21.333 -33.667 -33.333 -63 -36c-91.333 -8.66699 -170.666 -15 -237.999 -19c-42.667 -2.66699 -88.334 -4 -137.001 -4
c-28 -0.666992 -57.333 -0.333984 -88 0.999023c-82.667 2.66699 -161.667 10 -237 22c-18.667 2.66699 -31 12.667 -37 30z" />
    <glyph glyph-name="F" unicode="F" horiz-adv-x="1038" 
d="M84 63c30.667 180.667 72.3301 385.001 124.997 613.001c-13.333 14 -18.666 29.333 -15.999 46s14 28 34 34l127 553c-6.66699 16 -9.5 33.667 -8.5 53s7.5 37.166 19.5 53.499s27 24.5 45 24.5h696c25.333 0 42 -13.333 50 -40c3.33301 -10.667 5 -21 5 -31
c0.666992 -16 -3 -32.333 -11 -49c-12 -26.667 -30.667 -40 -56 -40h-582l-121 -516c34 0.666992 105.333 2.16699 214 4.5s192.334 3.5 251.001 3.5c33.333 0 58.333 -13.333 75 -40c8 -12 11.833 -23.333 11.5 -34s-4.16602 -20 -11.499 -28
c-10.667 -12 -28 -18.333 -52 -19c-65.333 0 -158.333 -1.16699 -279 -3.5s-200 -3.83301 -238 -4.5c-52 -224.667 -92.667 -428 -122 -610c-4.66699 -23.333 -20.667 -37.666 -48 -42.999c-6.66699 -1.33301 -13.667 -2 -21 -2c-20.667 0 -39.667 5.33301 -57 16
c-20.667 12.667 -31 29 -31 49c0 3.33301 0.333008 6.66602 1 9.99902z" />
    <glyph glyph-name="G" unicode="G" horiz-adv-x="1183" 
d="M82 568c0.666992 77.333 9.66602 156.332 26.999 236.999c22 97.333 56.333 189.333 103 276s104.334 158.334 173.001 215.001c131.333 109.333 286.666 164 465.999 164c80 0 165 -11 255 -33c24 -5.33301 36 -22 36 -50c0 -25.333 -9.33301 -49 -28 -71
c-15.333 -18.667 -32.333 -28 -51 -28c-4.66699 0 -9.33398 0.666992 -14.001 2c-71.333 17.333 -140.333 27.333 -207 30h-24c-59.333 0 -119.666 -8.66699 -180.999 -26c-70 -19.333 -130.667 -51.333 -182 -96c-108.667 -94 -181.667 -215 -219 -363
c-10.667 -47.333 -18.667 -93.666 -24 -138.999c-3.33301 -36 -5 -73.333 -5 -112v-31c1.33301 -50 9 -98.333 23 -145s34.333 -88 61 -124c53.333 -67.333 128.333 -113.666 225 -138.999c28 -6.66699 55.667 -10 83 -10c90.667 0 176.334 37.667 257.001 113
c16 93.333 44 212.666 84 357.999c-10.667 -2 -31.334 -3 -62.001 -3c-11.333 0 -24 0.333008 -38 1h-75h-28h-4c-25.333 0 -40.333 14.333 -45 43c-0.666992 6 -1 11.667 -1 17c0 23.333 8 45.333 24 66c14.667 18 31.667 27.333 51 28h21c16.667 0 36.667 -0.333008 60 -1
s45.333 -1 66 -1h31c28.667 0.666992 55.334 3.33398 80.001 8.00098c5.33301 1.33301 10.666 2 15.999 2c18.667 0 31.667 -8.33301 39 -25c5.33301 -12 8 -25.333 8 -40c0 -10 -1.33301 -20.667 -4 -32c-61.333 -221.333 -103.666 -409.666 -126.999 -564.999
c-3.33301 -22.667 -13.333 -40.667 -30 -54s-33.834 -18.5 -51.501 -15.5s-29.834 13.833 -36.501 32.5c-80 -56 -166.667 -84 -260 -84c-21.333 0 -42.666 1.33301 -63.999 4c-50.667 6 -102.167 22.167 -154.5 48.5s-95.166 58.166 -128.499 95.499
c-50.667 57.333 -87.667 126.666 -111 207.999c-23.333 78 -35 154.333 -35 229c0 3.33301 0.333008 6.66602 1 9.99902z" />
    <glyph glyph-name="H" unicode="H" horiz-adv-x="1343" 
d="M86 86c44.667 194 88.334 396.002 131.001 606.002c-14.667 12.667 -24.334 30.334 -29.001 53.001s-2 43.167 8 61.5s26 27.5 48 27.5h2c38 205.333 76 393.666 114 564.999c3.33301 16.667 13 30.667 29 42c10 7.33301 20.333 11 31 11c6 0 12 -1.33301 18 -4
c18 -9.33301 29.5 -24.5 34.5 -45.5s4.5 -39.167 -1.5 -54.5l-106 -514c154.667 -1.33301 289.834 -2 405.501 -2s211.834 0.666992 288.501 2h10c39.333 198.667 70.666 365.667 93.999 501c3.33301 21.333 11.5 40 24.5 56s29.5 26 49.5 30
c18 3.33301 33.667 -0.333984 47 -11.001c11.333 -9.33301 17 -21 17 -35c0 -2.66699 -0.333008 -5.66699 -1 -9c-56.667 -318.667 -139.667 -753 -249 -1303c-6.66699 -28.667 -24.334 -48.667 -53.001 -60c-10.667 -4 -20.334 -6 -29.001 -6c-14.667 0 -27 5.33301 -37 16
c-13.333 12.667 -17.333 31.667 -12 57c54 270 93.333 473.333 118 610c-58 -1.33301 -145.667 -2 -263 -2s-264.333 0.666992 -441 2c-55.333 -280 -100.333 -495 -135 -645c-5.33301 -18 -15.666 -32.333 -30.999 -43c-9.33301 -6.66699 -19 -10 -29 -10
c-6 0 -12 1.33301 -18 4c-25.333 12.667 -38 35.667 -38 69c0 9.33301 1 19.666 3 30.999z" />
    <glyph glyph-name="I" unicode="I" horiz-adv-x="540" 
d="M84 72c86 362.667 172.001 797.332 258.001 1304c4 23.333 19.667 39.666 47 48.999c12.667 4.66699 25 7 37 7c14 0 27.667 -3 41 -9c21.333 -9.33301 32 -24.333 32 -45c0 -3.33301 -0.333008 -6.66602 -1 -9.99902c-78.667 -477.333 -165.334 -913 -260.001 -1307
c-5.33301 -26 -25.333 -42.667 -60 -50c-10 -2 -19.667 -3 -29 -3c-20 0 -37 5.66699 -51 17c-10.667 9.33301 -16 20.333 -16 33c0 4.66699 0.666992 9.33398 2 14.001z" />
    <glyph glyph-name="J" unicode="J" horiz-adv-x="626" 
d="M-76 53c-3.33301 9.33301 -4.99902 18.665 -4.99902 27.998c0 10 1.66699 20 5 30c4.66699 17.333 14.5 30.5 29.5 39.5s30.5 7.83301 46.5 -3.5c23.333 -18 46 -27 68 -27c62.667 0 119.667 72.667 171 218c19.333 56 40.666 134.333 63.999 235
c27.333 106 58.5 257.5 93.5 454.5s59.833 330.167 74.5 399.5c3.33301 18 13 31 29 39c8 4.66699 16 7 24 7s16.333 -2.33301 25 -7c16 -11.333 27 -27 33 -47c2.66699 -10 4 -20.333 4 -31c0 -9.33301 -1.33301 -18.666 -4 -27.999c-4 -18 -12 -65.667 -24 -143
c-54.667 -343.333 -109 -605.333 -163 -786c-94 -314 -201 -471 -321 -471c-38 0 -77 15.333 -117 46c-16 12.667 -27 28.334 -33 47.001z" />
    <glyph glyph-name="K" unicode="K" horiz-adv-x="1114" 
d="M43 61c76 290 133.337 531.006 172.004 723.006c4 21.333 13.667 67.166 29 137.499s26.166 122.166 32.499 155.499s13.666 77.666 21.999 132.999s13.833 106 16.5 152c2 25.333 16.333 44 43 56c16 6.66699 31.667 10 47 10c11.333 0 22.333 -2 33 -6
c24 -8 35.667 -22.333 35 -43v-5c-2 -35.333 -5 -71.333 -9 -108s-9.83301 -76.334 -17.5 -119.001l-19 -103.5c-5 -26.333 -13 -65.833 -24 -118.5l-22.5 -106c128 73.333 249.667 166.833 365 280.5s220.333 238.167 315 373.5c12 17.333 24 26 36 26
c8.66699 0 17.667 -4.33301 27 -13c20 -18.667 30.333 -44.667 31 -78c-0.666992 -20 -5.33398 -36.667 -14.001 -50c-179.333 -254 -378 -456 -596 -606c28 -24 56.833 -55.833 86.5 -95.5s50.5 -69.834 62.5 -90.501l64 -109c60.667 -103.333 128.334 -227 203.001 -371
c6 -10.667 9 -20.667 9 -30c0 -16.667 -9.33301 -30.334 -28 -41.001c-16 -10 -32.667 -15 -50 -15c-10.667 0 -21.334 2 -32.001 6c-18 6.66699 -31 17 -39 31l-59 110.5l-70.5 132l-60.5 109.5l-34.5 58c-16.333 28 -29.5 49.5 -39.5 64.5l-37.5 56.5
c-15 22.667 -30.167 42.667 -45.5 60s-31.333 33.333 -48 48c-11.333 -5.33301 -35.333 -18.333 -72 -39c-5.33301 -2.66699 -9.33301 -4 -12 -4c-36.667 -168.667 -84.334 -366 -143.001 -592c-6 -23.333 -23.333 -38.333 -52 -45c-10 -2.66699 -20 -4 -30 -4
c-17.333 0 -33.333 4 -48 12c-18.667 10 -28 24 -28 42c0 4.66699 0.666992 9.66699 2 15z" />
    <glyph glyph-name="L" unicode="L" horiz-adv-x="974" 
d="M45 68c4.66699 18 20.334 33.668 47.001 47.001c35.333 94 68 199 98 315s53.333 215.667 70 299s37.667 194.666 63 333.999s44.666 242.333 57.999 309c6 26.667 24.333 46 55 58c14 6 26.667 9 38 9c13.333 0 24.666 -4 33.999 -12
c12.667 -11.333 16.667 -28.333 12 -51l-58 -308l-63 -332.5c-16.667 -83.667 -40 -183.334 -70 -299.001s-62 -220.167 -96 -313.5c48 0 115.833 0.333008 203.5 1s167.334 1 239.001 1s139.5 -0.666992 203.5 -2c18 0 32.333 -7 43 -21c7.33301 -9.33301 11 -19 11 -29
c0 -6 -1 -12 -3 -18c-5.33301 -19.333 -17 -33.666 -35 -42.999c-16 -8 -33 -12 -51 -12h-8c0 1.33301 -69.333 2 -208 2h-161l-369 -2c-17.333 0 -32 7 -44 21c-8 9.33301 -12 19.333 -12 30c0 5.33301 1 11 3 17z" />
    <glyph glyph-name="M" unicode="M" horiz-adv-x="1624" 
d="M84 41c108.667 464.667 201.333 911.664 278 1341c4 19.333 15.667 35.333 35 48c8.66699 14.667 20 26.667 34 36c10 6 19.667 9.33301 29 10c5.33301 0 10 -0.666992 14 -2c14.667 -4 24.667 -16 30 -36c0 -1.33301 0.666992 -2.66602 2 -3.99902c10 -10 14 -23 12 -39
c31.333 -94.667 72.166 -236 122.499 -424s90.166 -326.667 119.499 -416c58 76 133.333 167.833 226 275.5l261.5 311.5c81.667 100 152.5 195 212.5 285c18.667 23.333 36.5 31.333 53.5 24s29.833 -24 38.5 -50c20 -8 30 -21.667 30 -41
c0 -3.33301 -0.333008 -6.66602 -1 -9.99902c-10 -109.333 -25.667 -228.5 -47 -357.5s-41.166 -237.333 -59.499 -325l-78.5 -361l-73 -331.5c-4.66699 -26 -24.334 -43.667 -59.001 -53c-12 -3.33301 -23.333 -5 -34 -5c-18 0 -33.333 5 -46 15
c-14 10.667 -19 25.667 -15 45l76.5 345c39.667 176.667 70.834 323.5 93.501 440.5s42 232.833 58 347.5c-59.333 -77.333 -160.166 -198.333 -302.499 -363s-247.833 -293.667 -316.5 -387c-13.333 -18.667 -27 -27.667 -41 -27s-26.333 8.33398 -37 23.001
c-11.333 4 -20 15 -26 33c-24.667 70.667 -48.667 146.167 -72 226.5l-74 266.5c-26 97.333 -47 173.333 -63 228c-60 -322 -135 -675 -225 -1059c-6 -26.667 -26.667 -45.667 -62 -57c-14.667 -4.66699 -28 -7 -40 -7c-16 0 -29.667 4.33301 -41 13
c-9.33301 7.33301 -14 17 -14 29c0 4 0.333008 8 1 12z" />
    <glyph glyph-name="N" unicode="N" horiz-adv-x="1353" 
d="M84 88c74.667 457.333 159.999 895.667 255.999 1315c8 30 23 48.667 45 56c6.66699 2 12.667 3 18 3c14.667 0 27.667 -6.33301 39 -19c11.333 -13.333 17 -29.666 17 -48.999c0 -7.33301 -0.666992 -15.333 -2 -24c-2.66699 -8 -4 -13.333 -4 -16v-4
c58 -114.667 141.333 -293.167 250 -535.5s193.667 -423.833 255 -544.5c106.667 441.333 184.667 808 234 1100c6 34 21.333 51 46 51h1c22.667 -0.666992 42 -13.334 58 -38.001c10 -15.333 15 -31 15 -47c0 -4.66699 -0.333008 -9.66699 -1 -15
c-54.667 -320.667 -147.667 -750.667 -279 -1290c-8 -33.333 -25 -50 -51 -50h-4c-24 2.66699 -43 16 -57 40c-10.667 18.667 -13.667 37.667 -9 57c0.666992 2 1.33398 4.83301 2.00098 8.5s1.33398 6.16699 2.00098 7.5c-72 134.667 -166.5 331.334 -283.5 590.001
s-190.833 419.667 -221.5 483c-86 -391.333 -153.667 -748.333 -203 -1071c-3.33301 -20.667 -10.5 -39 -21.5 -55s-25.833 -25 -44.5 -27c-18.667 -0.666992 -33.334 7 -44.001 23c-8.66699 13.333 -13 27.666 -13 42.999v8z" />
    <glyph glyph-name="O" unicode="O" horiz-adv-x="1251" 
d="M82 592l-0.00195312 18.001c0 50.667 2.5 100.834 7.5 150.501s13 101.667 24 156s26.833 106 47.5 155s45.167 95.5 73.5 139.5s63.833 83.167 106.5 117.5s90 61.166 142 80.499c42.667 18.667 84.834 34.167 126.501 46.5s86.5 20.833 134.5 25.5
c19.333 2 38.333 3 57 3c26 0 51 -2 75 -6c41.333 -6.66699 81.5 -22 120.5 -46s71.5 -56.333 97.5 -97c37.333 -58 66 -125 86 -201c19.333 -74.667 29 -148 29 -220c0 -74 -6.33301 -148.667 -19 -224c-20 -101.333 -59.333 -199 -118 -293
s-129.334 -176.333 -212.001 -247c-27.333 -24 -55.333 -46.167 -84 -66.5s-61 -40.333 -97 -60s-71.167 -34.167 -105.5 -43.5s-70.833 -15 -109.5 -17h-14c-33.333 0 -64.666 6.33301 -93.999 19c-179.333 69.333 -270.666 272.666 -273.999 609.999zM198.998 580.001
c3.33301 -94.667 17.667 -179.995 43 -255.995c34 -106.667 85.667 -170.334 155 -191.001c23.333 -8.66699 47.333 -12.667 72 -12c11.333 -0.666992 22.333 -0.333984 33 0.999023c37.333 5.33301 71.5 13.666 102.5 24.999s63.167 28.166 96.5 50.499
s62.833 44.5 88.5 66.5s51.167 46 76.5 72c144.667 155.333 217 336.666 217 543.999c0 18.667 -0.666992 37.334 -2 56.001c-8.66699 174.667 -54.334 290 -137.001 346c-31.333 20 -65.333 34 -102 42c-21.333 4.66699 -42.666 7 -63.999 7
c-16 0.666992 -32.333 -0.333008 -49 -3c-38.667 -5.33301 -74.334 -13.333 -107.001 -24s-68 -24 -106 -40c-61.333 -34 -111.166 -69 -149.499 -105s-69.833 -79.667 -94.5 -131s-43 -114 -55 -188c-12.667 -64.667 -19 -134.667 -19 -210
c0 -16.667 0.333008 -33.334 1 -50.001z" />
    <glyph glyph-name="P" unicode="P" horiz-adv-x="1161" 
d="M84 -33c35.333 154 81.6621 368.995 138.995 644.995c-14 4.66699 -33 12.334 -57 23.001c-17.333 8 -26.833 20.833 -28.5 38.5s4.5 32.167 18.5 43.5c16 17.333 36.667 26 62 26c10 0 20.667 -1.33301 32 -4l127 643c-2.66699 15.333 -0.666992 28.333 6 39
c3.33301 16.667 5.33301 26.334 6 29.001c4.66699 21.333 18.334 38 41.001 50c16.667 8.66699 33 13.334 49 14.001c6 0 12.333 -0.666992 19 -2c22.667 -4.66699 35.667 -17 39 -37c64.667 10 125.334 15 182.001 15c162 0 287.667 -40.667 377 -122
c36.667 -33.333 64 -72.666 82 -117.999c16.667 -42 25 -84.667 25 -128v-10c-1.33301 -47.333 -11 -94.333 -29 -141c-31.333 -82 -79.166 -154.667 -143.499 -218s-138.166 -111.666 -221.499 -144.999c-86.667 -36.667 -178.334 -55 -275.001 -55
c-55.333 0 -112.666 6 -171.999 18c-43.333 -214 -87 -415.333 -131 -604c-6 -25.333 -25 -43.666 -57 -54.999c-13.333 -4.66699 -25.666 -7 -36.999 -7c-16 0 -29.333 4.66699 -40 14c-10 8 -15 18.667 -15 32c0 5.33301 0.666992 10.666 2 15.999zM388.996 693.995
c52 -9.33301 103.669 -14.668 155.002 -16.001c3.33301 0 6.66602 0.333008 9.99902 1c48 0 95.333 6.66699 142 20c50.667 14.667 97.167 34.334 139.5 59.001s80 57.5 113 98.5s58.167 87.833 75.5 140.5c13.333 38 20.666 74.333 21.999 109v11
c0 31.333 -6.33301 62 -19 92c-14 34 -36 63 -66 87c-63.333 50 -150 75 -260 75c-55.333 0 -116.333 -6.33301 -183 -19c-46 -246.667 -89 -466 -129 -658z" />
    <glyph glyph-name="Q" unicode="Q" horiz-adv-x="1263" 
d="M92 639c9.33301 98.667 28.6699 201.668 58.0029 309.001c-13.333 16 -19 35.333 -17 58c2.66699 51.333 14.667 99.166 36 143.499s48.666 82.833 81.999 115.5s72 61.5 116 86.5s89.167 45 135.5 60s93.833 25.833 142.5 32.5c41.333 6 80.333 9 117 9
c92 0 171.667 -18.667 239 -56c58.667 -34 105.167 -86 139.5 -156s58.833 -147 73.5 -231c8.66699 -60 13 -120 13 -180c0 -58 -5.66699 -117.333 -17 -178c-12 -62.667 -28.167 -122.5 -48.5 -179.5s-47.333 -111.667 -81 -164s-72.167 -97.833 -115.5 -136.5
c74.667 -52 151 -78 229 -78h14h2c32 0 49 -13.333 51 -40v-8c0 -23.333 -10 -45 -30 -65c-16.667 -15.333 -34.334 -23.333 -53.001 -24h-18c-124 0 -234.333 39 -331 117l-2 4c-53.333 -26.667 -109.5 -47.5 -168.5 -62.5s-118.833 -22.833 -179.5 -23.5h-5
c-58.667 0 -114.667 12 -168 36c-54.667 25.333 -99.334 63 -134.001 113c-59.333 82 -89 197.667 -89 347c0 46.667 3 97 9 151zM203.004 535.001l0.00292969 -37.9971c0 -17.333 0.333008 -33 1 -47c0.666992 -22.667 3.66699 -49.834 9 -81.501
s13.166 -58.334 23.499 -80.001s25.5 -42.834 45.5 -63.501s44 -36.334 72 -47.001c52.667 -21.333 106.667 -32 162 -32c62.667 0 127 13.333 193 40c-10 8 -23 21.667 -39 41l-19 19.5c-9.33301 9.66699 -15.5 15.834 -18.5 18.501s-8.33301 7.16699 -16 13.5
s-13.834 9.66602 -18.501 9.99902s-10.834 1 -18.501 2s-15.5 0 -23.5 -3s-16.667 -7.5 -26 -13.5c-16 -9.33301 -30 -14 -42 -14c-14 0 -25.333 6 -34 18c-8.66699 10.667 -13 22.667 -13 36c0 10.667 3 22 9 34c8 17.333 20.333 31 37 41c53.333 30 99 45 137 45
c22 0 41.333 -4.66699 58 -14c12.667 -6 26 -14.5 40 -25.5s25.333 -21 34 -30l35 -36.5l32 -33c2.66699 -2.66699 7.5 -6.83398 14.5 -12.501s11.833 -9.83398 14.5 -12.501c72 55.333 128.667 123 170 203c28 58.667 49.667 119.334 65 182.001c16 64 24 130.333 24 199
c0 66.667 -9.33301 129.334 -28 188.001c-24.667 74.667 -54.5 132.334 -89.5 173.001s-85.5 65.667 -151.5 75c-30.667 4 -61 6 -91 6c-103.333 0 -201.333 -22.333 -294 -67c-42 -16.667 -76.333 -36.667 -103 -60c0 -8.66699 -2 -18 -6 -28
c-92.667 -208 -141 -410 -145 -606z" />
    <glyph glyph-name="R" unicode="R" horiz-adv-x="1116" 
d="M86 72c34 132 81.833 330.671 143.5 596.004s109.5 464 143.5 596c-16 -0.666992 -29.5 6.33301 -40.5 21s-18 31.167 -21 49.5s-0.666992 36.166 7 53.499s20.167 28.333 37.5 33c52 14.667 99.333 26.334 142 35.001c41.333 9.33301 88.666 16.666 141.999 21.999
c22 2.66699 43.667 3.66699 65 3c30 0 59.333 -2.33301 88 -7c48.667 -8 93 -22.667 133 -44c67.333 -36 117 -88.667 149 -158c26.667 -58 40 -120.333 40 -187c0 -12.667 -0.333008 -25.334 -1 -38.001c-8 -94 -35.667 -176.667 -83 -248s-113 -124 -197 -158
c-51.333 -19.333 -89.666 -31.666 -114.999 -36.999c19.333 -28.667 46.666 -83.334 81.999 -164.001c15.333 -34.667 39.333 -93.167 72 -175.5s59 -145.166 79 -188.499c4.66699 -10.667 7 -22 7 -34c0 -17.333 -5.33301 -36 -16 -56
c-15.333 -27.333 -32.666 -41 -51.999 -41h-3c-14.667 1.33301 -26.667 12 -36 32c-18 41.333 -42.833 101.5 -74.5 180.5l-58.5 145.5c-3.33301 7.33301 -11.833 27.666 -25.5 60.999s-24.667 58.666 -33 75.999s-20.5 37.666 -36.5 60.999s-32.333 40.666 -49 51.999
c-9.33301 5.33301 -16 14.333 -20 27c-58.667 -3.33301 -109.334 -5 -152.001 -5h-34c-55.333 -236.667 -100.666 -420.667 -135.999 -552c-6 -23.333 -22.667 -35.666 -50 -36.999c-2.66699 0 -5 -0.333008 -7 -1c-25.333 0.666992 -48 9 -68 25
c-16.667 13.333 -25 28.333 -25 45c0 5.33301 1 11 3 17zM406 729.004c43.333 0 84.498 1.66406 123.498 4.99707s80.833 8.83301 125.5 16.5s85.334 19.334 122.001 35.001s70.834 34.834 102.501 57.501s57.167 51.5 76.5 86.5s31 74.833 35 119.5
c0.666992 12.667 1 24.667 1 36c0 116.667 -46 188.334 -138 215.001c-46.667 12.667 -98 19 -154 19c-48 0 -99 -4.66699 -153 -14c-34 -126.667 -81 -318.667 -141 -576z" />
    <glyph glyph-name="S" unicode="S" horiz-adv-x="901" 
d="M-80 49c0 3.33301 -0.333008 6.66309 -1 9.99609c0 23.333 7.66699 45 23 65c14 18.667 29.667 28 47 28c4 0 8.33301 -0.666992 13 -2c116.667 -26.667 220.667 -40 312 -40c72 0 136 8.33301 192 25c42.667 12 80.5 30.833 113.5 56.5s51.167 57.5 54.5 95.5
c1.33301 10.667 2 21.334 2 32.001c0 40.667 -8.66699 79.667 -26 117c-21.333 46.667 -51.166 89 -89.499 127s-78 73 -119 105l-128.5 105c-44.667 38 -78.667 73.333 -102 106c-40.667 56.667 -63.334 113 -68.001 169c-0.666992 8.66699 -1 17.334 -1 26.001
c0 46 11.333 87.667 34 125c26.667 44 62.167 84.833 106.5 122.5s96.5 67.834 156.5 90.501c59.333 21.333 119.666 37.333 180.999 48c34.667 6 69 9 103 9c26 0 52.333 -1.66699 79 -5c60 -8 111.333 -25 154 -51c17.333 -15.333 26 -34 26 -56v-7
c-2 -25.333 -13.333 -48 -34 -68c-12.667 -11.333 -25.334 -17 -38.001 -17c-8 0 -16.333 2.33301 -25 7c-48.667 29.333 -108.334 45 -179.001 47h-19c-64.667 -0.666992 -127 -10.334 -187 -29.001c-66.667 -21.333 -122 -49.333 -166 -84
c-33.333 -28 -52.666 -58.333 -57.999 -91c-1.33301 -7.33301 -2 -14.666 -2 -21.999c0 -24.667 6.33301 -48 19 -70c16.667 -28.667 40.834 -59.167 72.501 -91.5s63.667 -60.5 96 -84.5l99 -75.5c33.667 -26.333 57.167 -46.5 70.5 -60.5c38 -40 70.333 -83 97 -129
c26.667 -46.667 47.334 -95.667 62.001 -147c8.66699 -31.333 13.334 -62.666 14.001 -93.999c0 -20.667 -2 -41.667 -6 -63c-9.33301 -53.333 -31.666 -101.666 -66.999 -144.999c-94.667 -116.667 -241.334 -175 -440.001 -175c-97.333 0 -207.333 14 -330 42
c-24.667 5.33301 -38.334 21.666 -41.001 48.999z" />
    <glyph glyph-name="T" unicode="T" horiz-adv-x="995" 
d="M88 1388c8 25.333 24.999 38.335 50.999 39.002c101.333 0 253.333 1.16699 456 3.5s354 3.5 454 3.5c24 0 42.667 -12.667 56 -38c8.66699 -16 13 -32.333 13 -49c0 -10 -1.33301 -19.667 -4 -29c-8 -25.333 -25 -38 -51 -38
c-44.667 -0.666992 -112.167 -1.33398 -202.5 -2.00098s-158.166 -1.33398 -203.499 -2.00098c-24 -144.667 -65 -355.5 -123 -632.5s-98.667 -482.5 -122 -616.5c-4 -24.667 -20 -41 -48 -49c-10.667 -3.33301 -21.334 -4.66602 -32.001 -3.99902
c-16 0 -31.333 3.66699 -46 11c-20 10.667 -29.667 25.667 -29 45c0 4 0.333008 8.33301 1 13c24 144 64.667 353 122 627s97.333 476 120 606c-78 -2.66699 -194.667 -4 -350 -4c-22.667 0 -40.667 13 -54 39c-8 16.667 -12.333 33 -13 49
c0.666992 9.33301 2.33398 18.666 5.00098 27.999z" />
    <glyph glyph-name="U" unicode="U" horiz-adv-x="1157" 
d="M86 378c-1.33301 22 -1.99902 44.8389 -1.99902 68.5059s0.666992 47.5 2 71.5c4.66699 69.333 12.667 138.666 24 207.999s28.5 148.333 51.5 237s40.333 153 52 193l65.5 222c7.33301 26 27.666 42.667 60.999 50c10 2 19 3 27 3c19.333 0 35.333 -5.66699 48 -17
c14 -12.667 17.667 -30 11 -52l-30.5 -104.5c-15.667 -53 -26.5 -90.5 -32.5 -112.5l-28 -102.5c-12.667 -46.333 -22.334 -84 -29.001 -113l-23.5 -104c-9 -40.333 -16.333 -78.666 -22 -114.999s-10.5 -72.5 -14.5 -108.5c-2.66699 -29.333 -4.66699 -55 -6 -77
c-1.33301 -17.333 -1.66602 -39 -0.999023 -65c-0.666992 -6.66699 -1 -13.334 -1 -20.001c0 -34.667 2 -64.834 6 -90.501s10.667 -53.167 20 -82.5s21.166 -53.666 35.499 -72.999s33.5 -35.833 57.5 -49.5s51.667 -21.5 83 -23.5c12 -0.666992 23.667 -1 35 -1
c105.333 0 189.333 30.333 252 91c57.333 55.333 103 142.666 137 261.999c32 110.667 66 269.834 102 477.501s63 350.167 81 427.5c6 23.333 22.667 39.666 50 48.999c12 4 23.333 6 34 6c14 -0.666992 27.667 -4.33398 41 -11.001c17.333 -10 26 -24.333 26 -43
c0 -5.33301 -0.666992 -11 -2 -17c-23.333 -100.667 -61 -294 -113 -580c-0.666992 -2.66699 -3.16699 -16.334 -7.5 -41.001s-7 -39.334 -8 -44.001s-3.5 -18.167 -7.5 -40.5s-6.83301 -37.166 -8.5 -44.499l-9 -40.5c-4.33301 -19.667 -7.66602 -34.334 -9.99902 -44.001
s-5.83301 -23 -10.5 -40s-8.83398 -31.333 -12.501 -43s-8 -24.667 -13 -39s-10.167 -27.833 -15.5 -40.5c-49.333 -123.333 -126.666 -218.333 -231.999 -285c-88 -55.333 -185 -83 -291 -83c-21.333 0 -43 1 -65 3c-52 5.33301 -97.5 19.666 -136.5 42.999
s-69.833 51.833 -92.5 85.5s-40.5 72.667 -53.5 117s-21.167 88.5 -24.5 132.5z" />
    <glyph glyph-name="V" unicode="V" horiz-adv-x="999" 
d="M84 1352c-0.666992 4 -0.99707 7.66602 -0.99707 10.999c0 24.667 12 47.667 36 69c18 15.333 34.333 23 49 23c6 0 12 -1.33301 18 -4c13.333 -6 21 -20 23 -42c42.667 -395.333 97.334 -795.333 164.001 -1200l170 309.5l145.5 274.5l169 327.5l148.5 288.5
c8 16.667 18.667 28.667 32 36c9.33301 5.33301 18.333 8 27 8c3.33301 0.666992 6.66602 0.333984 9.99902 -0.999023c11.333 -2.66699 21.666 -8.66699 30.999 -18c10 -8.66699 15 -21 15 -37c0 -14 -3.66699 -29 -11 -45l-170.5 -330l-187.5 -361.5l-170.5 -317
l-194.5 -343.5c-8.66699 -15.333 -21.334 -27.666 -38.001 -36.999c-10.667 -6 -21.334 -9 -32.001 -9c-5.33301 0 -10.666 0.666992 -15.999 2c-15.333 5.33301 -25 19.333 -29 42c-70.667 395.333 -133.334 846.666 -188.001 1354z" />
    <glyph glyph-name="W" unicode="W" horiz-adv-x="1511" 
d="M84 1360l0.00390625 5.99902c0 28.667 12.667 52 38 70c14.667 10.667 28 16 40 16c8.66699 0 16.667 -2.66699 24 -8c13.333 -8.66699 20.333 -25 21 -49c19.333 -348.667 41 -708.667 65 -1080c127.333 300 302.333 663.333 525 1090c10.667 20 24.5 34.667 41.5 44
s32.833 10.166 47.5 2.49902s23.667 -24.5 27 -50.5c14 -107.333 26 -220.5 36 -339.5s20.167 -255.667 30.5 -410s18.5 -267.833 24.5 -340.5l129.5 252.5l121.5 235.5c98.667 204.667 157 328 175 370c2 5.33301 9.66699 23.666 23 54.999s22.333 53.333 27 66
s10.667 31 18 55s12.333 46 15 66c3.33301 32.667 18.666 54.334 45.999 65.001c9.33301 3.33301 17.666 5 24.999 5c13.333 0 25 -5.33301 35 -16c9.33301 -10.667 14 -24.667 14 -42c0 -4.66699 -0.333008 -10 -1 -16c-3.33301 -28.667 -10.333 -60.334 -21 -95.001
s-20.167 -62.5 -28.5 -83.5s-21.166 -50.833 -38.499 -89.5c-44.667 -105.333 -104.667 -233.666 -180 -384.999l-153 -297.5c-87.333 -169 -152.333 -299.167 -195 -390.5c-8.66699 -20.667 -21.834 -35.667 -39.501 -45s-34.334 -9.83301 -50.001 -1.5
s-24.834 25.166 -27.501 50.499c-14.667 130 -30.167 318.667 -46.5 566s-30.166 427.333 -41.499 540c-228 -445.333 -405.333 -829.666 -532 -1153c-7.33301 -20 -20.333 -34.667 -39 -44c-10 -5.33301 -19.667 -8 -29 -8c-8 0 -15.667 2 -23 6
c-16 8 -24.667 24.667 -26 50c-6 110.667 -18.333 318.834 -37 624.501s-32.334 541.834 -41.001 708.501z" />
    <glyph glyph-name="X" unicode="X" horiz-adv-x="1007" 
d="M-111 84c106 137.333 292.671 367.335 560.004 690.002c-105.333 250 -182 442.667 -230 578c-4 8.66699 -6 17.334 -6 26.001c0 18 8 36.333 24 55c16.667 19.333 34 29 52 29c4.66699 0 9 -0.666992 13 -2c15.333 -4 26.666 -16.333 33.999 -37
c37.333 -98.667 108.333 -276 213 -532l436 534c15.333 15.333 34.333 23 57 23c3.33301 0 6.66602 -0.333008 9.99902 -1c26.667 -3.33301 48.667 -15.666 66 -36.999c8.66699 -10.667 12.667 -21.334 12 -32.001c0 -10.667 -4 -21.334 -12 -32.001l-502 -613
c107.333 -258 191.333 -475.667 252 -653c3.33301 -8.66699 5 -17.334 5 -26.001c0 -19.333 -8.33301 -38.666 -25 -57.999s-33.334 -29 -50.001 -29c-4 0 -8.33301 0.666992 -13 2c-15.333 5.33301 -26.333 17.666 -33 36.999c-58.667 167.333 -138 369.333 -238 606
l-154.5 -189l-184.5 -228l-152 -193c-14.667 -13.333 -32.334 -20 -53.001 -20h-14c-26.667 4 -48.667 16.667 -66 38c-8.66699 11.333 -13 22.666 -13 33.999c0 10 4 20 12 30z" />
    <glyph glyph-name="Y" unicode="Y" horiz-adv-x="929" 
d="M85 1424c3.33301 22 13.332 38.334 29.999 49.001c6 3.33301 12.667 5 20 5c8.66699 0 17.667 -2.66699 27 -8c16.667 -10 28.334 -23.333 35.001 -40l102 -342.5c47.333 -162.333 85 -287.166 113 -374.499c52 66.667 138.167 183.167 258.5 349.5
s216.166 292.833 287.499 379.5c15.333 18 29.666 27 42.999 27c9.33301 0 18 -3.66699 26 -11c16.667 -14.667 25 -35.334 25 -62.001c0 -4 -0.333008 -8 -1 -12c-1.33301 -19.333 -7.66602 -36.333 -18.999 -51c-72 -88 -170.167 -217.667 -294.5 -389
s-214.5 -292.666 -270.5 -363.999l-23.5 -135l-25 -144.5c-6.33301 -37 -14.666 -80.833 -24.999 -131.5s-20.833 -97.334 -31.5 -140.001c-5.33301 -22.667 -21.333 -38 -48 -46c-10.667 -3.33301 -21 -5 -31 -5c-15.333 0 -29.666 4 -42.999 12
c-18 9.33301 -27 23.666 -27 42.999c0 4.66699 0.666992 10 2 16c14 55.333 26.667 113.5 38 174.5s23.666 132.333 36.999 214l29 174.5c-30 90.667 -69.833 221 -119.5 391s-86.167 291.667 -109.5 365c-4.66699 10 -7 21.667 -7 35c0 6.66699 0.666992 13.667 2 21z" />
    <glyph glyph-name="Z" unicode="Z" horiz-adv-x="991" 
d="M-139 60c8 18.667 21.666 32.668 40.999 42.001v2l523 617l495 579c-454 -4 -683 -6 -687 -6c-24.667 0 -43.667 13.333 -57 40c-8.66699 17.333 -12.667 34.333 -12 51c0 8.66699 1.33301 17.667 4 27c6.66699 26.667 22.334 40 47.001 40
c89.333 0 223.5 0.666992 402.5 2s313.167 2 402.5 2c22.667 0 39.667 -10.333 51 -31c26 0 44.333 -7.66699 55 -23c4 -6 6.33301 -12.667 7 -20c0 -12 -5.66699 -26.333 -17 -43l-530.5 -624.5l-509.5 -595.5c35.333 0.666992 76.333 1 123 1
c71.333 0 155.666 -0.666992 252.999 -2c162.667 -2.66699 269.334 -4.33398 320.001 -5.00098c32.667 -0.666992 54 -11 64 -31c4 -8 6 -16 6 -24c0 -12.667 -4.66699 -25 -14 -37c-15.333 -20.667 -37.333 -31 -66 -31c-62 0 -149.833 1.5 -263.5 4.5s-217 4.5 -310 4.5
s-181.167 -3 -264.5 -9h-10c-22.667 0 -38.667 6.33301 -48 19c-6.66699 8.66699 -10 18 -10 28c0 7.33301 1.66699 15 5 23z" />
    <glyph glyph-name="bracketleft" unicode="[" horiz-adv-x="550" 
d="M-78 -236c-8 24.667 -0.328125 44.666 23.0049 59.999l2 2l46.5 169l42 160c12.333 48 26.333 105.833 42 173.5l37.5 160.5c9.33301 39.333 22 97.333 38 174l34 161.5c6.66699 31 18.5 89.167 35.5 174.5l32.5 161.5c4.66699 22.333 16.167 80.666 34.5 174.999
s29.166 149.5 32.499 165.5c-1.33301 19.333 5.66699 39.5 21 60.5s33.333 34.5 54 40.5c5.33301 1.33301 14.333 2 27 2l65 -3.5c31.333 -1.66699 55.333 -2.83398 72 -3.50098s37.5 -0.666992 62.5 0s47.833 2.33398 68.5 5.00098
c35.333 4.66699 55.666 -7.33301 60.999 -36c5.33301 -26 -2 -51 -22 -75c-14 -16 -29.667 -25 -47 -27c-16.667 -2.66699 -33.334 -4.66699 -50.001 -6s-34.834 -2.16602 -54.501 -2.49902s-35.334 -0.5 -47.001 -0.5s-29.5 0.5 -53.5 1.5s-40.333 1.5 -49 1.5
c-19.333 -163.333 -48.333 -334.333 -87 -513s-86.167 -379.5 -142.5 -602.5s-97.166 -391.833 -122.499 -506.5c0 -2.66699 -0.666992 -4.66699 -2 -6h151c20.667 0 40.167 -4.66699 58.5 -14s31.166 -23 38.499 -41c4 -17.333 0.333008 -32.666 -11 -45.999
s-26.333 -20 -45 -20h-252c-21.333 0 -41 4.5 -59 13.5s-29.667 22.833 -35 41.5z" />
    <glyph glyph-name="backslash" unicode="\" horiz-adv-x="1042" 
d="M86 1378.5c4.66699 13.667 13.667 24.834 27 33.501s27.5 15.167 42.5 19.5s29.667 4.16602 44 -0.500977s24.833 -14 31.5 -28l141.5 -306l160.5 -345.5l139 -292.5l167.5 -342l155.5 -299c12 -21.333 8 -42.333 -12 -63s-43 -31.667 -69 -33s-46.667 8.66699 -62 30
l-113.5 217.5l-118 236l-105 215l-113 238l-101 216.5l-111 239.5l-102.5 222.5c-6 14 -6.66699 27.833 -2 41.5z" />
    <glyph glyph-name="bracketright" unicode="]" horiz-adv-x="538" 
d="M-202 -262c-5.33301 30.667 1.66406 58.332 20.9971 82.999c14 18 30.667 27 50 27h244c78.667 480 177.667 1007.33 297 1582c-8 0.666992 -38.333 2.66699 -91 6s-92 8.66602 -118 15.999c-12 2 -21.667 10.333 -29 25c-5.33301 13.333 -5 28.666 1 45.999s14 30 24 38
c16.667 13.333 37.667 21.833 63 25.5s48.333 4.33398 69 2.00098s47 -6.16602 79 -11.499s55.667 -8.66602 71 -9.99902c14.667 0 28.834 -13.833 42.501 -41.5s18.834 -50.167 15.501 -67.5c-136.667 -666 -240.667 -1212.67 -312 -1640
c8.66699 -24.667 6.33398 -51.667 -6.99902 -81s-33.333 -44 -60 -44h-314c-26 0 -41.333 15 -46 45z" />
    <glyph glyph-name="asciicircum" unicode="^" horiz-adv-x="888" 
d="M1 794c-3.33301 17.333 4.66309 36.6689 23.9961 58.002c166.667 197.333 317.334 394.666 452.001 591.999c10 16 23.833 30 41.5 42s35.334 18.167 53.001 18.5s30.5 -8.16699 38.5 -25.5c86.667 -206 177 -391 271 -555c11.333 -20 7.83301 -43.333 -10.5 -70
s-39.833 -44.167 -64.5 -52.5s-44 -4.5 -58 11.5c-76.667 135.333 -156.667 295.666 -240 480.999c-126.667 -178.667 -255 -343 -385 -493c-23.333 -29.333 -50.666 -42.333 -81.999 -39c-23.333 2 -36.666 12.667 -39.999 32z" />
    <glyph glyph-name="underscore" unicode="_" horiz-adv-x="776" 
d="M-202 -408c-6 25.333 -1.83398 50.833 12.499 76.5s33.166 39.167 56.499 40.5c88 2.66699 224.5 2.5 409.5 -0.5s320.833 -2.83301 407.5 0.5c28.667 0.666992 45.334 -14.333 50.001 -45c4.66699 -30 -2.66602 -57.667 -21.999 -83
c-14 -17.333 -30.667 -26.333 -50 -27c-85.333 -3.33301 -220.833 -3.5 -406.5 -0.5s-322.167 3.16699 -409.5 0.5c-26 0 -42 12.667 -48 38z" />
    <glyph glyph-name="grave" unicode="`" horiz-adv-x="305" 
d="M85.5 1385c-4.33301 20 -2.83203 39.6689 4.50098 59.002c6 15.333 16.667 27.166 32 35.499s30.666 6.83301 45.999 -4.5c18.667 -16.667 35 -36 49 -58s24 -40.333 30 -55s14.333 -38.167 25 -70.5s18.334 -54.5 23.001 -66.5c16.667 -48.667 12 -84.334 -14 -107.001
c-14.667 -12 -30.834 -15 -48.501 -9s-29.5 18 -35.5 36c-4 10.667 -10.167 31 -18.5 61s-17.333 55.833 -27 77.5s-21.834 39.5 -36.501 53.5c-15.333 12 -25.166 28 -29.499 48z" />
    <glyph glyph-name="a" unicode="a" horiz-adv-x="1048" 
d="M2 367c1.33301 52.667 10.0049 105 26.0049 157s35.333 103.333 58 154s51 97.834 85 141.501s70.167 83.667 108.5 120s80.833 66.5 127.5 90.5s94 41.333 142 52c27.333 6 55.666 9 84.999 9c22.667 0.666992 45.334 -1 68.001 -5c53.333 -8 106 -25.333 158 -52
c20.667 -12 27.667 -29 21 -51v-12c-2.66699 -38.667 -6.33398 -70 -11.001 -94c2 -8 2 -18.333 0 -31c-2 -5.33301 -4.33301 -14.166 -7 -26.499s-5 -21.166 -7 -26.499c-13.333 -84.667 -30.333 -162 -51 -232c-20.667 -108 -31 -201.333 -31 -280v-15.5v-20.5
c0 -5.33301 0.166992 -12.5 0.5 -21.5s1.16602 -16.667 2.49902 -23s3 -13 5 -20s4.83301 -12.833 8.5 -17.5s7.83398 -8.33398 12.501 -11.001c7.33301 -4 15.666 -6 24.999 -6s18.166 1.5 26.499 4.5s17.833 7.16699 28.5 12.5s19.667 10.333 27 15l25 16.5
c9.33301 6.33301 15.666 10.5 18.999 12.5c14 10 30.667 13.5 50 10.5s32 -12.833 38 -29.5c3.33301 -6.66699 5 -13.667 5 -21c0.666992 -10 -2.33301 -20.333 -9 -31c-10.667 -17.333 -24.334 -31.333 -41.001 -42c-27.333 -18 -55.166 -33.5 -83.499 -46.5
s-57.833 -22.167 -88.5 -27.5c-16 -3.33301 -31.333 -5 -46 -5c-12.667 -0.666992 -25 0.333008 -37 3c-25.333 5.33301 -47.333 19.166 -66 41.499s-31 53.166 -37 92.499c-0.666992 1.33301 -2.66699 10.666 -6 27.999c-39.333 -54.667 -79 -97 -119 -127
c-44 -36 -93.333 -59.333 -148 -70c-24 -4.66699 -47 -7 -69 -7c-28.667 0 -56.334 4 -83.001 12c-48 13.333 -90.667 39.833 -128 79.5s-62 88.834 -74 147.501c-6.66699 42 -10 85.333 -10 130v22zM143.005 372c0.666992 -44 8.33203 -88.6641 22.999 -133.997
c16 -38 38.833 -69.833 68.5 -95.5s62.834 -38.5 99.501 -38.5h3c40.667 0 76.334 14.333 107.001 43c32 29.333 61.333 67 88 113c71.333 122 125.333 259.333 162 412c3.33301 21.333 8.33301 45.666 15 72.999c10 52 18.667 113 26 183c-44 20 -87.333 30 -130 30
c-14 0 -27.667 -1.33301 -41 -4c-56 -8 -107.833 -28.5 -155.5 -61.5s-88.834 -75.833 -123.501 -128.5c-26 -38 -49 -77.333 -69 -118s-37.333 -85.334 -52 -134.001c-14 -46.667 -21 -91.334 -21 -134.001v-6z" />
    <glyph glyph-name="b" unicode="b" horiz-adv-x="1024" 
d="M2 105l-0.00292969 13.0039c0 28 8 49 24 63c12 10 26 12.333 42 7c30 159.333 69.333 345 118 557c-0.666992 6.66699 -1 13 -1 19c0 22.667 6.66699 41 20 55c69.333 312 112.333 514.667 129 608c6 32.667 20.667 49 44 49h1c22.667 0 42.334 -13 59.001 -39
c10.667 -16 16 -32.667 16 -50c0 -4 -0.333008 -8.33301 -1 -13c-23.333 -123.333 -53.666 -266 -90.999 -428c108 72 206.333 115.667 295 131c18.667 3.33301 36.667 5 54 5c23.333 0 45 -3.33301 65 -10c34.667 -10.667 62.834 -28.334 84.501 -53.001
s38.834 -54.334 51.501 -89.001c13.333 -36 22 -72.667 26 -110c2.66699 -22.667 4 -45.334 4 -68.001c0 -15.333 -0.666992 -31 -2 -47c-24.667 -332.667 -125 -553.334 -301 -662.001c-78.667 -50 -169.334 -75 -272.001 -75c-96 0 -202.667 21.667 -320 65
c-26.667 10 -41.667 34 -45 72zM187.997 152.004c63.333 -17.333 122.669 -26 178.002 -26c73.333 0 139 15.333 197 46c137.333 74 222 237.333 254 490c0 4 1.33301 18.667 4 44c3.33301 25.333 5 45.333 5 60v7c0 13.333 -0.666992 29.333 -2 48
c-1.33301 22 -5.83301 40.5 -13.5 55.5s-17.834 26.5 -30.501 34.5c-18.667 11.333 -40 17 -64 17c-28.667 0 -61.334 -7.66699 -98.001 -23c-100.667 -35.333 -203 -96 -307 -182c-64 -282 -105 -472.333 -123 -571z" />
    <glyph glyph-name="c" unicode="c" horiz-adv-x="802" 
d="M0 346c0.666992 50 7.33008 101.333 19.9971 154c18 82 48.667 161.833 92 239.5s97.333 146.5 162 206.5c65.333 60 138 100 218 120c30.667 8 61.667 12 93 12c52.667 0 107.667 -10.333 165 -31c20.667 -12.667 31 -30 31 -52v-5c-2 -24 -14.333 -46.667 -37 -68
c-16 -14 -32 -21 -48 -21c-6.66699 0 -13.334 1.33301 -20.001 4c-44 16 -86 24 -126 24c-21.333 0 -42.666 -2.33301 -63.999 -7c-58.667 -14 -111 -43.667 -157 -89s-84.167 -97 -114.5 -155s-51.833 -118 -64.5 -180c-9.33301 -46.667 -14 -89 -14 -127
c0 -84.667 23 -149 69 -193c43.333 -43.333 100 -65 170 -65c60.667 0 131.667 16.333 213 49c12 4.66699 23 7 33 7c18 0 31.333 -8.66699 40 -26c5.33301 -10 8 -20.667 8 -32c0 -14 -4.33301 -28 -13 -42c-9.33301 -16.667 -22.666 -28.667 -39.999 -36
c-114 -43.333 -212 -65 -294 -65c-97.333 0 -172.666 30.333 -225.999 91c-33.333 38.667 -58 83.667 -74 135c-15.333 49.333 -22.666 98 -21.999 146v6z" />
    <glyph glyph-name="d" unicode="d" horiz-adv-x="937" 
d="M0 353l0.000976562 6.99902c0 46.667 3.33301 93.334 10 140.001c14 90.667 42.167 175.5 84.5 254.5s97.5 144.833 165.5 197.5c68 50.667 144.667 82.667 230 96c31.333 4.66699 62 7.33398 92 8.00098c52.667 0 104.334 -7.33301 155.001 -22
c7.33301 36 36 167 86 393c6 24.667 23 38.667 51 42c4.66699 0.666992 9.33398 1 14.001 1c22.667 0 44 -7.33301 64 -22c18 -13.333 27 -29 27 -47c0 -4.66699 -0.666992 -9.66699 -2 -15c-118.667 -511.333 -197.334 -964.333 -236.001 -1359
c-2 -24.667 -16.333 -39 -43 -43c-4.66699 -0.666992 -9.66699 -0.666992 -15 0c-21.333 0 -42 6.66699 -62 20c-22 15.333 -33 33.666 -33 54.999v7c0 4 0.333008 10.333 1 19s1 15 1 19c-40.667 -30 -70.667 -50.333 -90 -61c-46.667 -28 -93.334 -47.333 -140.001 -58
c-20.667 -4.66699 -41.667 -7 -63 -7c-26 0 -53 4 -81 12c-49.333 13.333 -91.333 41.333 -126 84c-28.667 36.667 -50.834 80.167 -66.501 130.5s-23.5 99.833 -23.5 148.5zM150.001 435.999c0 -4.66699 -0.334961 -9.33203 -1.00195 -13.999
c0.666992 -62.667 9.66699 -121.667 27 -177c18.667 -59.333 50.667 -101.333 96 -126c15.333 -8 32.666 -12 51.999 -12c23.333 0 49 6 77 18c58.667 25.333 128.334 81.333 209.001 168c34.667 243.333 68.334 444 101.001 602c-52 15.333 -101.667 24.333 -149 27
c-6 0 -12 0.333008 -18 1c-41.333 -0.666992 -82.666 -7.66699 -123.999 -21c-48 -16 -89.667 -41.667 -125 -77c-45.333 -47.333 -80 -105.333 -104 -174s-37.667 -140.334 -41 -215.001z" />
    <glyph glyph-name="e" unicode="e" horiz-adv-x="933" 
d="M62 588c27.333 113.333 77 212.332 149 296.999c80 94.667 179 157.334 297 188.001c32 8 64 12 96 12c36.667 0.666992 73.334 -4.33301 110.001 -15c69.333 -20 120 -59.333 152 -118c17.333 -33.333 26 -67.333 26 -102c0 -11.333 -0.666992 -22.666 -2 -33.999
c-8 -46 -25.167 -88.167 -51.5 -126.5s-59.5 -71.5 -99.5 -99.5c-120.667 -85.333 -270 -128 -448 -128c-36 0 -73 1.66699 -111 5v-13c0 -83.333 18.667 -157 56 -221c29.333 -48.667 67.333 -82.334 114 -101.001c33.333 -13.333 66.666 -20 99.999 -20
c13.333 0 26.666 1 39.999 3c47.333 7.33301 97 23.666 149 48.999c16.667 8.66699 33.334 9.66699 50.001 3s26 -19.334 28 -38.001c2.66699 -19.333 -2 -37.666 -14 -54.999s-27.333 -30.333 -46 -39c-56.667 -25.333 -103 -42.333 -139 -51
c-37.333 -9.33301 -73 -14 -107 -14c-66 0 -126.333 16.667 -181 50c-84 50.667 -139.667 129.334 -167 236.001c-14 54.667 -21 110 -21 166c0 54.667 6.66699 110 20 166zM203 609.999c47.333 -5.33301 91.002 -8.33203 131.002 -8.99902h16c35.333 0 73.333 2 114 6
c46.667 4.66699 90.167 16 130.5 34s75.5 42 105.5 72c32 31.333 48 63.666 48 96.999c0 8.66699 -1 17.667 -3 27c-10.667 43.333 -43.334 74.333 -98.001 93c-30.667 11.333 -61.334 17 -92.001 17c-51.333 0.666992 -102 -15.666 -152 -48.999
c-79.333 -52 -137.333 -121.333 -174 -208c-7.33301 -16.667 -16 -43.334 -26 -80.001z" />
    <glyph glyph-name="f" unicode="f" horiz-adv-x="555" 
d="M-367 -364c0 30.667 10.001 51.3359 30.001 62.0029c15.333 8 33.333 7 54 -3c30.667 -18 60.334 -31.667 89.001 -41c20.667 -7.33301 42 -11 64 -11c10 0 20 1 30 3c33.333 4 61.333 18.333 84 43c14 15.333 26.833 34.166 38.5 56.499s20.667 41.5 27 57.5
s13.333 40.5 21 73.5s12.334 54.167 14.001 63.5s5.5 32 11.5 68c12 74.667 23 150.834 33 228.501s21.333 175.167 34 292.5l25 231c5.33301 42 10.333 77.333 15 106c-14 0 -33.833 -0.666992 -59.5 -2s-44.834 -2 -57.501 -2
c-18.667 -0.666992 -31.667 7.66602 -39 24.999s-8 34.333 -2 51c13.333 40 43.333 61 90 63c24 3.33301 53.333 5 88 5c25.333 126 62.333 230.333 111 313c33.333 56 73.666 96 120.999 120c35.333 18 72 27 110 27c12.667 0 25.667 -1.33301 39 -4
c52.667 -8 106 -30.333 160 -67c23.333 -16 35 -41.333 35 -76v-3c-0.666992 -32.667 -10.667 -53.334 -30 -62.001c-14.667 -6.66699 -31.334 -3.33398 -50.001 9.99902c-49.333 32.667 -94.333 49 -135 49c-102.667 0 -178 -102.333 -226 -307
c22.667 0 56.167 -0.833008 100.5 -2.5s77.833 -2.5 100.5 -2.5c29.333 0 44 -12.667 44 -38v-2c0 -26 -12 -50.333 -36 -73c-18 -17.333 -37 -26 -57 -26c-79.333 0 -138.666 1.33301 -177.999 4c-18.667 -125.333 -30.334 -225 -35.001 -299
c-6.66699 -59.333 -26.334 -217.666 -59.001 -474.999c-10 -84.667 -21.167 -157.834 -33.5 -219.501s-29.833 -119.5 -52.5 -173.5c-47.333 -113.333 -107.666 -180.333 -180.999 -201c-26 -7.33301 -51.667 -11 -77 -11c-22.667 0 -45.334 3 -68.001 9
c-47.333 12.667 -98.666 34 -153.999 64c-26 14.667 -39 40 -39 76z" />
    <glyph glyph-name="g" unicode="g" horiz-adv-x="942" 
d="M-76 -328c-3.33301 7.33301 -5.00586 14.6758 -5.00586 22.0088c0 9.33301 3 18.333 9 27c12.667 16.667 30 25 52 25c15.333 0 33 -4 53 -12c64.667 -25.333 123.334 -38 176.001 -38h5c54 0.666992 100.167 11.5 138.5 32.5s73 52.5 104 94.5s56.333 87.5 76 136.5
s37.5 106.167 53.5 171.5c-49.333 -41.333 -106 -77.333 -170 -108c-32 -15.333 -64.667 -27 -98 -35c-19.333 -4 -39.666 -6 -60.999 -6c-14 0 -28.333 0.666992 -43 2c-36 5.33301 -65.667 19.666 -89 42.999c-70 68 -105 167 -105 297c0 45.333 4.33301 94.333 13 147
c14.667 94.667 42 184.667 82 270s92.333 156.333 157 213c50.667 42.667 106 72 166 88c40 10.667 79.667 16 119 16c20.667 0 41 -1.33301 61 -4c59.333 -8.66699 118.333 -27.667 177 -57c6 0.666992 11.667 1 17 1c22.667 0 43.667 -6.33301 63 -19
c16.667 -11.333 25 -24.333 25 -39c0 -6 -1.66699 -12.667 -5 -20c-8.66699 -20.667 -16.5 -43 -23.5 -67s-12.833 -45.167 -17.5 -63.5s-9.5 -42.833 -14.5 -73.5s-8.5 -52.834 -10.5 -66.501s-5.16699 -38.334 -9.5 -74.001s-7.16602 -58.167 -8.49902 -67.5
c-1.33301 -7.33301 -4.5 -28.333 -9.5 -63s-8.16699 -57.334 -9.5 -68.001s-4.5 -31.334 -9.5 -62.001s-8.83301 -53.334 -11.5 -68.001s-6.66699 -35.334 -12 -62.001s-10.166 -49 -14.499 -67s-9.66602 -38.333 -15.999 -61s-12.833 -44.334 -19.5 -65.001
c-61.333 -187.333 -144.666 -309 -249.999 -365c-66 -34.667 -138 -52 -216 -52c-86 0 -179.333 21 -280 63c-17.333 5.33301 -30.333 16.666 -39 33.999zM153.994 467.01c-9.33301 -52.667 -14.001 -99.668 -14.001 -141.001c0 -74 15.333 -128 46 -162
c13.333 -14.667 33.666 -22.667 60.999 -24h9c24 0 48 3.66699 72 11c26.667 8 51 18.333 73 31c76.667 44.667 153.334 107.667 230.001 189c4.66699 26.667 16.334 103.334 35.001 230.001s34.334 215.667 47.001 267c-58.667 23.333 -113.667 35 -165 35
c-76.667 0 -145.334 -25.333 -206.001 -76c-96 -82.667 -158.667 -202.667 -188 -360z" />
    <glyph glyph-name="h" unicode="h" horiz-adv-x="1028" 
d="M2 51c14 60.667 56.3311 256.667 126.998 588s128.667 584 174 758c4.66699 26 23.334 44.667 56.001 56c14 5.33301 27 8 39 8c14.667 0 27.334 -4 38.001 -12c14.667 -10.667 19.667 -26.667 15 -48c-52 -212.667 -87 -363.667 -105 -453c130 95.333 251 144 363 146
c8.66699 0.666992 17.334 0.666992 26.001 0c24.667 0 47 -2 67 -6c28 -5.33301 54.167 -17.833 78.5 -37.5s40.833 -45.5 49.5 -77.5c8 -26.667 13 -54 15 -82c0.666992 -8 1 -16.333 1 -25c0 -21.333 -2 -44.333 -6 -69l-12.5 -79.5
c-3 -18.333 -9.16699 -47.833 -18.5 -88.5c-8 -38 -28 -126.5 -60 -265.5s-55.667 -246.5 -71 -322.5c-3.33301 -20.667 -11 -39 -23 -55s-27.333 -24.333 -46 -25c-18 0 -32.333 8 -43 24s-14.334 32.667 -11.001 50c18 93.333 57.667 271.333 119 534
c2 10.667 7.16699 34 15.5 70l18.5 81c4 18.667 7.33301 42 10 70c2 17.333 2.66699 33.333 2 48c0 10 -0.333008 19.333 -1 28c-2 29.333 -12.333 49.333 -31 60c-15.333 9.33301 -37 14 -65 14h-16c-70 -2 -137.833 -20 -203.5 -54s-132.5 -79.333 -200.5 -136l-149 -697
c-6.66699 -26 -27 -44.333 -61 -55c-14 -4.66699 -26.667 -7 -38 -7c-16 0 -29.667 4.66699 -41 14c-9.33301 8 -14 18.667 -14 32c0 4 0.666992 8.66699 2 14z" />
    <glyph glyph-name="i" unicode="i" horiz-adv-x="401" 
d="M2 53l107.001 518.999l94 460c5.33301 24.667 21.666 38.334 48.999 41.001c3.33301 0.666992 7 1 11 1c23.333 0 45 -8 65 -24c19.333 -14.667 29 -31.334 29 -50.001c0 -4 -0.333008 -8.33301 -1 -13c-18.667 -85.333 -50.5 -239.666 -95.5 -462.999
s-81.167 -396 -108.5 -518c-5.33301 -24 -22 -37.333 -50 -40h-9c-24 0 -46 8 -66 24c-18 14 -27 30 -27 48c0 4.66699 0.666992 9.66699 2 15zM238.001 1336c-4.66699 13.333 -7.00195 26.335 -7.00195 39.002s2.33301 24.667 7 36c10 19.333 21.333 33.666 34 42.999
c14.667 9.33301 33.334 17.666 56.001 24.999c7.33301 2.66699 16.666 4 27.999 4c9.33301 -0.666992 19.666 -1.66699 30.999 -3c26.667 -4 44.334 -12 53.001 -24c27.333 -37.333 41 -75 41 -113v-8c0 -12.667 -3.66699 -25.667 -11 -39s-16.666 -23.333 -27.999 -30
c-22.667 -12 -45.667 -18 -69 -18c-29.333 0 -60 9.33301 -92 28c-19.333 12.667 -33.666 32.667 -42.999 60z" />
    <glyph glyph-name="j" unicode="j" horiz-adv-x="401" 
d="M-278 -385c-5.33301 14.667 -8.00195 28.332 -8.00195 40.999c0 15.333 4 29 12 41c11.333 16 27.666 22.667 48.999 20c18 -2.66699 44 -4 78 -4c20.667 2.66699 38.834 9.66699 54.501 21s29.167 27.166 40.5 47.499s20 38.333 26 54s12.667 35.834 20 60.501
c8.66699 26 16.667 51.833 24 77.5s15 55.5 23 89.5l17.5 75c3.66699 16 10 46.167 19 90.5s14.5 70.5 16.5 78.5l72 345.5l72 346.5c6 32.667 21 49 45 49h5c23.333 -2 42.333 -16 57 -42c11.333 -19.333 15 -39.333 11 -60c-18.667 -85.333 -45 -213 -79 -383l-78 -383
c-39.333 -186 -75 -321.667 -107 -407c-29.333 -79.333 -68.666 -137 -117.999 -173c-39.333 -27.333 -87.666 -41 -144.999 -41c-16 0 -32.667 1 -50 3c-26 2.66699 -45 20.334 -57 53.001zM278.998 1343c2 14 7.33203 24.334 15.999 31.001
c0 0.666992 -0.666992 1.66699 -2 3s-2 2.33301 -2 3c-2 6.66699 -2 15 0 25s5.33301 17.333 10 22c22.667 16.667 47.334 25 74.001 25h8c16.667 0 33 -4.66699 49 -14c25.333 -20 41 -40.667 47 -62c2 -8 3 -15.333 3 -22c0 -18.667 -7 -34.334 -21 -47.001
c-1.33301 -0.666992 -4 -3 -8 -7s-7.66699 -6.66699 -11 -8c-14.667 -6.66699 -29 -10.667 -43 -12c-7.33301 -2.66699 -15 -4 -23 -4s-16 1.33301 -24 4c-20 1.33301 -37.667 7.33301 -53 18c-13.333 10 -20 23 -20 39v6zM411.997 1339
c5.33301 2.66699 9.33105 4.00195 11.998 4.00195c0.666992 0.666992 1.33398 1.66699 2.00098 3s1.66699 2.66602 3 3.99902s3 2.66602 5 3.99902c-5.33301 -5.33301 -12.666 -10.333 -21.999 -15z" />
    <glyph glyph-name="k" unicode="k" horiz-adv-x="886" 
d="M43 43c28.667 132.667 71.167 347.5 127.5 644.5s101.833 523.833 136.5 680.5c6 26 26.333 45 61 57c14.667 4.66699 28 7 40 7c15.333 0 28.666 -4 39.999 -12c12.667 -9.33301 17 -23.333 13 -42c-45.333 -214 -96.666 -474.667 -153.999 -782
c13.333 10.667 27 10.667 41 0h2c47.333 24.667 93 58.667 137 102s91.167 96.5 141.5 159.5s85.166 104.833 104.499 125.5c13.333 14.667 31 22 53 22c10.667 0 22.667 -1.66699 36 -5c32.667 -9.33301 53 -24 61 -44c2 -4 3 -8.33301 3 -13c0 -8.66699 -4 -17 -12 -25
c-21.333 -23.333 -52.166 -59.166 -92.499 -107.499l-99.5 -117c-26 -29.667 -58.833 -62.334 -98.5 -98.001s-78.5 -64.834 -116.5 -87.501c38 -38 74.833 -86.667 110.5 -146s62.667 -109.833 81 -151.5l70.5 -167.5c4 -10.667 6 -21.334 6 -32.001
c0 -19.333 -6.66699 -38.333 -20 -57c-14 -19.333 -29 -29 -45 -29c-4 0 -8.33301 0.666992 -13 2c-14 4 -25.333 16.667 -34 38l-28 74.5c-6 15.667 -16.333 40.667 -31 75s-27.167 61.333 -37.5 81s-24 44.334 -41 74.001s-33.5 53.834 -49.5 72.501
s-34.5 37.667 -55.5 57s-42.833 35 -65.5 47h-2l-15 -4c-10.667 -2 -18.667 -3.33301 -24 -4c-32.667 -179.333 -57 -307.666 -73 -384.999c-5.33301 -26 -25.333 -44.667 -60 -56c-15.333 -5.33301 -29.333 -8 -42 -8c-16 0 -29.667 4 -41 12c-10.667 8 -16 18.667 -16 32
c0 3.33301 0.333008 6.66602 1 9.99902z" />
    <glyph glyph-name="l" unicode="l" horiz-adv-x="528" 
d="M84 190c1.33301 20 2.99707 40.167 4.99707 60.5s4.83301 42.333 8.5 66l9 58.5c2.33301 15.333 6.5 37.5 12.5 66.5l12 58.5c2 10 6.66699 31.833 14 65.5l13 59.5l54.5 242.5l63.5 285l52 242.5c4 14 12.667 25 26 33c11.333 6.66699 23.333 10 36 10h6
c16 -1.33301 31.333 -5 46 -11s26.334 -15.333 35.001 -28c6 -9.33301 9 -19 9 -29c0 -4 -0.333008 -8 -1 -12c-16 -73.333 -43.5 -189.166 -82.5 -347.499s-71.333 -298.333 -97 -420s-45.5 -239.167 -59.5 -352.5c0 -1.33301 -1.16699 -8.16602 -3.5 -20.499
s-3.83301 -21.833 -4.5 -28.5s-1.5 -16.5 -2.5 -29.5s-0.833008 -23.333 0.5 -31s3.5 -16 6.5 -25s7.83301 -15.667 14.5 -20s14.667 -6.83301 24 -7.5c2 0 19 3.33301 51 10c6.66699 1.33301 13 2 19 2c22.667 0 43 -9.33301 61 -28c14.667 -14.667 22 -29.334 22 -44.001
c0 -6.66699 -1.66699 -13.334 -5 -20.001c-7.33301 -14.667 -22.666 -25 -45.999 -31c-39.333 -8 -74.666 -12 -105.999 -12c-54 0 -97.333 11.667 -130 35c-43.333 32 -65 86.333 -65 163c0 12.667 0.666992 25.667 2 39z" />
    <glyph glyph-name="m" unicode="m" horiz-adv-x="1560" 
d="M45 82c12.667 55.333 24.8301 111.835 36.4971 169.502s25.334 129.5 41.001 215.5s26.167 142.667 31.5 170c-25.333 6.66699 -42 19 -50 37c-2 5.33301 -3 10.333 -3 15c0 13.333 7.33301 28 22 44c12.667 12.667 32.334 31 59.001 55
c2.66699 11.333 9.66699 44.333 21 99l26 125c6 16.667 17.833 27.334 35.5 32.001s33.167 2 46.5 -8c25.333 -19.333 38 -43.666 38 -72.999c0 -10.667 -1.66699 -21.667 -5 -33v-8c11.333 9.33301 44 31.666 98 66.999c88.667 49.333 161 74 217 74h9
c110 -2 179.667 -65 209 -189c142 117.333 266 177.666 372 180.999h12c56.667 0.666992 103.667 -16.333 141 -51c39.333 -37.333 63 -87.333 71 -150c2.66699 -22.667 4.33398 -45.667 5.00098 -69v-16c0 -18.667 -0.666992 -37.667 -2 -57l-7.5 -69.5
c-2.33301 -21 -6.33301 -45.667 -12 -74l-14 -68l-15.5 -70.5c-27.333 -118 -66 -249 -116 -393c-9.33301 -26.667 -32.333 -41.667 -69 -45c-5.33301 -0.666992 -10.333 -1 -15 -1c-27.333 0 -48 8.33301 -62 25c-11.333 12.667 -14 27.667 -8 45
c34 96.667 60.5 175.5 79.5 236.5s37.5 136.5 55.5 226.5s27 172 27 246c0 57.333 -7.66699 101.666 -23 132.999c-4 10.667 -10 20.334 -18 29.001c-5.33301 4 -10.666 6 -15.999 6c-29.333 -1.33301 -60.5 -9 -93.5 -23s-67.333 -34.167 -103 -60.5
s-65.667 -49.666 -90 -69.999l-88.5 -77.5c-2.66699 -69.333 -10.5 -139.833 -23.5 -211.5s-33.5 -161.334 -61.5 -269.001s-45.333 -176.5 -52 -206.5c-5.33301 -22.667 -22 -37 -50 -43c-8 -2 -16 -3 -24 -3c-18.667 0 -36.334 5.33301 -53.001 16
c-18.667 12 -28 27.667 -28 47c0 4.66699 0.333008 9.33398 1 14.001c6 26.667 21.667 88.167 47 184.5s44.166 176.5 56.499 240.5s20.166 127.333 23.499 190c-13.333 10 -20.5 21.5 -21.5 34.5s6.83301 27.167 23.5 42.5l4 2v7c0 66 -8 117 -24 153l-19 33
c-6 4 -11.333 6.66699 -16 8c2.66699 -0.666992 4.33398 -1.33398 5.00098 -2.00098s0.333984 -1.33398 -0.999023 -2.00098c-6 0 -9.33301 1.33301 -10 4c-48 -6.66699 -97.333 -28.334 -148 -65.001c-67.333 -44 -141 -102 -221 -174
c-10 -50.667 -22.833 -121.334 -38.5 -212.001s-30.667 -173.5 -45 -248.5s-29.5 -145.5 -45.5 -211.5c-8 -33.333 -25 -50 -51 -50h-4c-24 2 -43 14.667 -57 38c-8 12.667 -12 25.667 -12 39c0 6.66699 1 13.334 3 20.001z" />
    <glyph glyph-name="n" unicode="n" horiz-adv-x="1028" 
d="M47 86c48 163.333 89.6611 352.336 124.994 567.003c-19.333 8 -31.166 18.5 -35.499 31.5s2.83398 28.5 21.501 46.5c8 8 18 17 30 27c9.33301 71.333 18.333 145.666 27 222.999c3.33301 30.667 15.333 50.667 36 60c20.667 10 40.334 7 59.001 -9
c16 -14 24.333 -33.333 25 -58c0 -3.33301 -0.333008 -7 -1 -11c-2.66699 -22 -6.66699 -52.333 -12 -91c94.667 71.333 175.667 121.333 243 150c32 14 65.333 23.667 100 29c18.667 2.66699 37 4 55 4c16 0 32 -1 48 -3c34 -4.66699 64.5 -17.667 91.5 -39
s46.5 -50.333 58.5 -87c16 -46.667 24.667 -98.667 26 -156v-20c0 -49.333 -3.33301 -94 -10 -134c-7.33301 -45.333 -18.333 -98.333 -33 -159c-12 -46.667 -31.167 -116.5 -57.5 -209.5s-45.5 -162.5 -57.5 -208.5c-6.66699 -27.333 -27.667 -45 -63 -53
c-10 -2 -19.333 -3 -28 -3c-20.667 0 -38 6 -52 18c-13.333 12 -18 27.333 -14 46c10 40.667 32.333 116.667 67 228s59.334 207.666 74.001 288.999c10 54.667 15.333 108 16 160c0 25.333 -1.33301 50.333 -4 75c-4 69.333 -18.333 111.666 -43 126.999
c-10.667 6 -23 9 -37 9c-23.333 0 -52.333 -8.33301 -87 -25c-3.33301 -1.33301 -5.66602 -2.33301 -6.99902 -3c-79.333 -41.333 -183.666 -117.666 -312.999 -228.999c-30.667 -218 -77 -434.333 -139 -649c-4 -16.667 -14.667 -30.334 -32 -41.001
c-9.33301 -5.33301 -18.333 -8.33301 -27 -9c-8 0 -15.667 2.33301 -23 7c-22 12 -33 32 -33 60c0 12 2 25.333 6 40z" />
    <glyph glyph-name="o" unicode="o" horiz-adv-x="993" 
d="M44 364l-2.00391 41.001c0 43.333 4 87.666 12 132.999c9.33301 58.667 24.833 114.334 46.5 167.001s49.834 101.167 84.501 145.5s73.334 79.5 116.001 105.5c97.333 66 190 99 278 99c31.333 0 62.333 -4.33301 93 -13c42.667 -12 79.834 -32.5 111.501 -61.5
s55.834 -62.167 72.501 -99.5c17.333 -38 31 -79 41 -123c9.33301 -40 13.666 -79.667 12.999 -119v-12c-1.33301 -43.333 -3.66602 -85 -6.99902 -125c-19.333 -127.333 -59 -229 -119 -305c-44 -54 -94.5 -101.833 -151.5 -143.5s-114.833 -67.834 -173.5 -78.501
c-18.667 -2 -37 -3 -55 -3c-44.667 0 -85.667 6.66699 -123 20c-52.667 18.667 -95.167 46 -127.5 82s-58 79.333 -77 130s-29.833 104 -32.5 160zM206.996 295.001c22 -95.333 60.998 -158.996 116.998 -190.996c16 -9.33301 33.333 -14 52 -14h3c18 0 36 3.33301 54 10
c18.667 6.66699 35.834 14.667 51.501 24s30.834 20 45.501 32c85.333 67.333 146.666 149 183.999 245c27.333 69.333 40.666 141.666 39.999 216.999c0 29.333 -2 59 -6 89c-12 109.333 -45 181 -99 215c-13.333 9.33301 -29 14 -47 14c-4 0 -8.33301 -0.333008 -13 -1
c-23.333 -2.66699 -46.666 -8.83398 -69.999 -18.501s-46.833 -22.334 -70.5 -38.001s-44.167 -30.5 -61.5 -44.5s-31.666 -27 -42.999 -39c-65.333 -68.667 -110 -147.334 -134 -236.001c-12 -46 -18.333 -91.667 -19 -137c0 -42.667 5.33301 -85 16 -127z" />
    <glyph glyph-name="p" unicode="p" horiz-adv-x="993" 
d="M-78 -360c47.333 176.667 104.668 434.501 172.001 773.501s107.666 538.5 120.999 598.5c4 17.333 14.667 28.666 32 33.999c6 2 11.667 3 17 3c10.667 0 20.334 -3.66699 29.001 -11c28 -18.667 42 -44.667 42 -78c0 -8.66699 -1 -18 -3 -28
c-6.66699 -23.333 -11 -37.666 -13 -42.999c30 26 58 47 84 63c34 22.667 67.833 41.667 101.5 57s69.834 27 108.501 35c16.667 4 33 6 49 6c21.333 0 42.666 -3.33301 63.999 -10c36 -10.667 67.667 -31.667 95 -63c60.667 -67.333 91 -160 91 -278
c0 -48 -5 -100 -15 -156c-17.333 -90.667 -46.833 -176 -88.5 -256s-94.834 -146.333 -159.501 -199c-72 -58.667 -153 -93.334 -243 -104.001c-20.667 -2.66699 -41.667 -4 -63 -4c-67.333 0 -133.333 13.333 -198 40c-39.333 -185.333 -75.333 -338 -108 -458
c-7.33301 -26.667 -20.333 -40 -39 -40c-4.66699 0 -9.66699 1 -15 3c-22.667 7.33301 -40.667 24.666 -54 51.999c-6.66699 14.667 -10 28.334 -10 41.001c0 8 1 15.333 3 22zM178.002 176.001c53.333 -21.333 104.665 -34 153.998 -38
c10.667 -1.33301 21.334 -2 32.001 -2c39.333 0 78.666 6.33301 117.999 19c50 16 94.667 43.667 134 83c48 45.333 86.833 101.166 116.5 167.499s47.5 133.166 53.5 200.499c2 14.667 3 30.334 3 47.001c0 11.333 -0.333008 23 -1 35c-2.66699 30 -6.5 58.167 -11.5 84.5
s-14.833 50 -29.5 71s-33 35.5 -55 43.5c-17.333 6 -35.666 9 -54.999 9c-1.33301 0.666992 -2.33301 1 -3 1c-18.667 0 -36.667 -3 -54 -9c-19.333 -5.33301 -38.333 -12.166 -57 -20.499s-37.667 -19.166 -57 -32.499s-37.166 -26.333 -53.499 -39
s-33.333 -27.334 -51 -44.001l-45 -43l-40.5 -41c-12 -54.667 -28.5 -136.667 -49.5 -246z" />
    <glyph glyph-name="q" unicode="q" horiz-adv-x="1062" 
d="M42 320c1.33301 35.333 3.66406 70.6689 6.99707 106.002c14 102.667 44.167 196.5 90.5 281.5s109.166 155.167 188.499 210.5c86 61.333 178 96.666 276 105.999c16 1.33301 32 2 48 2c81.333 0 160.333 -19.667 237 -59h11c21.333 0 40.333 -5 57 -15
c15.333 -10 23 -23 23 -39c0 -4 -0.333008 -8 -1 -12c-65.333 -286.667 -113 -502.334 -143 -647.001l-26 -122l-27.5 -133l-23 -119c-9 -47.333 -16.333 -92 -22 -134s-10.5 -83 -14.5 -123c-1.33301 -15.333 -8 -27.833 -20 -37.5s-26 -15.167 -42 -16.5
c-4 -0.666992 -8.33301 -1 -13 -1c-11.333 0 -22.666 1.33301 -33.999 4c-15.333 4 -28 11.667 -38 23s-14.333 24.666 -13 39.999c12 106.667 38.667 265.334 80 476.001c-106 -72.667 -206.667 -109 -302 -109c-26.667 0 -53 2.66699 -79 8
c-39.333 7.33301 -73.666 21 -102.999 41s-51.666 43.833 -66.999 71.5s-27.666 58.5 -36.999 92.5c-8.66699 30.667 -13 62 -13 94v11zM201.998 272.003c0.666992 -16.667 3.16602 -35.002 7.49902 -55.002s10.333 -36.167 18 -48.5s18.5 -23 32.5 -32
s30.333 -13.5 49 -13.5h11c62.667 0 125.334 20.333 188.001 61c67.333 43.333 128 96 182 158c0 2.66699 1.33301 5.33398 4 8.00098l55.5 248.5l59.5 265.5c-56 28 -110 42 -162 42c-39.333 0 -77 -8 -113 -24c-85.333 -36.667 -157.5 -97.5 -216.5 -182.5
s-94.5 -174.167 -106.5 -267.5c-2.66699 -18.667 -4.66699 -34.167 -6 -46.5s-2.33301 -30.166 -3 -53.499c-0.666992 -12 -1 -23 -1 -33s0.333008 -19 1 -27z" />
    <glyph glyph-name="r" unicode="r" horiz-adv-x="737" 
d="M47 47c18 69.333 34.332 139.006 48.999 209.006s32.667 160.667 54 272l40 207c-4.66699 11.333 -3 25 5 41l14 69l16.5 82c5 24.667 9.16699 48 12.5 70c8 32.667 25.667 53 53 61c6.66699 2 12.667 3 18 3c16 0 29 -7 39 -21c11.333 -14.667 14 -34.334 8 -59.001
c-2 -8.66699 -4.33301 -21.167 -7 -37.5l-5 -30.5c25.333 20 48.5 37.167 69.5 51.5s45.167 28.166 72.5 41.499c26.667 13.333 52.667 22.666 78 27.999c22.667 5.33301 47 8 73 8c3.33301 0 6.33301 -0.333008 9 -1c30 -0.666992 60.333 -5.66699 91 -15
c26.667 -9.33301 40 -24 40 -44c0 -5.33301 -1 -11.333 -3 -18c-8 -24 -25.333 -42 -52 -54c-20 -9.33301 -39.333 -11 -58 -5c-17.333 5.33301 -34.666 8.16602 -51.999 8.49902s-33.333 -1.33398 -48 -5.00098s-30 -9.5 -46 -17.5s-30.167 -16.5 -42.5 -25.5
s-26 -20 -41 -33s-27.833 -24.667 -38.5 -35l-38 -36.5l-36 -34c-0.666992 -0.666992 -3 -2.66699 -7 -6s-7.33301 -5.33301 -10 -6c-63.333 -342 -112.333 -583 -147 -723c-4 -17.333 -14.667 -31.333 -32 -42c-10 -6 -19.667 -8.66699 -29 -8
c-7.33301 0 -14.333 1.66699 -21 5c-22.667 11.333 -34 31.666 -34 60.999c0 12 1.66699 25 5 39z" />
    <glyph glyph-name="s" unicode="s" horiz-adv-x="722" 
d="M-77 81c10.667 22.667 30.334 38.6709 59.001 48.0039c22 6.66699 41.667 6 59 -2c35.333 -15.333 73.666 -25.666 114.999 -30.999c22 -3.33301 43.333 -5 64 -5c18.667 -0.666992 37.667 0.333008 57 3c40 5.33301 76.5 19.666 109.5 42.999s56.5 54.666 70.5 93.999
c7.33301 26 11 49 11 69c0 23.333 -7.33301 46.333 -22 69c-13.333 21.333 -28.166 39.833 -44.499 55.5s-36.333 32 -60 49s-45.667 31.667 -66 44s-41.5 26.166 -63.5 41.499s-39.333 29 -52 41c-50 51.333 -75 106.333 -75 165c0.666992 16.667 3 33.667 7 51
c18.667 78 67.334 138.333 146.001 181c69.333 38 144.666 58.333 225.999 61h16c75.333 0 145.333 -17.333 210 -52c21.333 -11.333 32 -25.666 32 -42.999c0 -7.33301 -2 -15.333 -6 -24c-11.333 -22.667 -30.666 -38 -57.999 -46
c-20.667 -5.33301 -39.334 -3.33301 -56.001 6c-48 25.333 -97 38 -147 38c-26.667 0 -54 -3.66699 -82 -11c-43.333 -13.333 -79.666 -37 -108.999 -71c-18.667 -22 -28.334 -45 -29.001 -69c0 -13.333 3 -27 9 -41c13.333 -30.667 33.833 -58.834 61.5 -84.501
s57 -47.667 88 -66l92 -57c30.333 -19.667 57.333 -43.834 81 -72.501s39.5 -61.334 47.5 -98.001c5.33301 -22 8 -43.667 8 -65c0 -44 -11.333 -86.667 -34 -128c-34.667 -61.333 -84.667 -109.666 -150 -144.999c-74 -40.667 -154.333 -61.334 -241 -62.001h-5
c-84.667 0 -164.334 17.667 -239.001 53c-23.333 10 -35 23.667 -35 41c0 6 1.66699 12.667 5 20z" />
    <glyph glyph-name="t" unicode="t" horiz-adv-x="612" 
d="M2 948c-0.666992 4 -0.99707 7.66992 -0.99707 11.0029c-0.666992 12.667 4.33301 24.334 15 35.001c13.333 14.667 29 22 47 22c35.333 1.33301 88.666 2 159.999 2c24.667 104 39.667 171.667 45 203c4 24.667 22.667 43 56 55c14.667 5.33301 28 8 40 8
c15.333 0 28.333 -4 39 -12c14.667 -10.667 19.667 -27 15 -49c-4.66699 -24.667 -12.334 -59.834 -23.001 -105.501s-18 -78.834 -22 -99.501c68 0 131.333 2.66699 190 8c4 0.666992 7.66699 1 11 1c28.667 0 51 -11.667 67 -35c8.66699 -12 13 -23.333 13 -34
c0 -10 -3.66699 -19.333 -11 -28c-10 -12.667 -26.333 -20.334 -49 -23.001c-54.667 -5.33301 -138 -8 -250 -8c-46.667 -186 -80.667 -350.333 -102 -493c-0.666992 -4 -1.66699 -9.66699 -3 -17c-6 -39.333 -10.333 -71 -13 -95c-2 -15.333 -3 -33.333 -3 -54v-37
c1.33301 -36.667 7.66602 -67.334 18.999 -92.001c11.333 -28 22.666 -41 33.999 -39c22.667 0 57.667 13.667 105 41c24.667 14.667 46.334 22 65.001 22c16 0 29.667 -5.33301 41 -16c12.667 -14 16.667 -30.5 12 -49.5s-14.667 -33.167 -30 -42.5
c-28.667 -17.333 -55 -31.666 -79 -42.999c-24 -10.667 -52 -21 -84 -31c-21.333 -6.66699 -42 -10 -62 -10c-10 0.666992 -20 1.66699 -30 3c-29.333 5.33301 -55 18 -77 38c-23.333 22.667 -40.333 52 -51 88c-9.33301 31.333 -14 61.666 -14 90.999v14
c1.33301 34 3.33301 68 6 102c4.66699 65.333 14.167 137.5 28.5 216.5s27.333 143.167 39 192.5l51.5 211c-45.333 0 -79 -0.666992 -101 -2c-54.667 0 -86 17 -94 51z" />
    <glyph glyph-name="u" unicode="u" horiz-adv-x="997" 
d="M42 246l-0.000976562 11.9971c0 16 0.666992 35.667 2 59c2.66699 30 4.83398 51.333 6.50098 64s4.5 33 8.5 61c8 57.333 17.833 114.666 29.5 171.999s28.667 132.666 51 225.999s35.833 150.666 40.5 171.999c5.33301 24 21.666 36.667 48.999 38h4
c26 0 49.667 -9 71 -27c18.667 -15.333 28 -32.333 28 -51c0 -4.66699 -0.666992 -9.33398 -2 -14.001c-6 -27.333 -21.833 -95 -47.5 -203s-44.167 -191.667 -55.5 -251c-16 -98.667 -24 -174.667 -24 -228c-2.66699 -15.333 -3.66699 -34.333 -3 -57v-30
c1.33301 -36.667 8.33301 -64.334 21 -83.001c4 -6 10.167 -10 18.5 -12s18.333 -1.66699 30 1s23 5.83398 34 9.50098s23.333 9 37 16l33.5 17.5l30.5 17c11.667 6.66699 18.167 10.334 19.5 11.001c81.333 47.333 158.333 105.333 231 174c7.33301 7.33301 15 12 23 14
c14 78 23.667 135.333 29 172c42 234.667 73.333 396.667 94 486c8 34.667 24 52.334 48 53.001h2c20.667 0 37.334 -11.333 50.001 -34c8 -14 12 -29.333 12 -46c0 -6.66699 -0.666992 -13.334 -2 -20.001c-32.667 -151.333 -63.334 -314 -92.001 -488l-13 -78.5
c-6 -36.333 -10.333 -64.166 -13 -83.499c14.667 -19.333 12.334 -37.666 -6.99902 -54.999c0 -4 -1.33301 -6 -4 -6c-9.33301 -71.333 -14 -132 -14 -182c-0.666992 -30.667 -11 -51.834 -31 -63.501s-40 -10.667 -60 3s-30 35.834 -30 66.501
c1.33301 13.333 2 33.666 2 60.999c-42.667 -33.333 -84.5 -62.166 -125.5 -86.499s-84.5 -45.166 -130.5 -62.499c-39.333 -14.667 -77.666 -21.667 -114.999 -21c-6.66699 0.666992 -13.334 1 -20.001 1c-44 2.66699 -84.333 16.667 -121 42
c-17.333 12.667 -32.333 28.334 -45 47.001s-22.5 36.834 -29.5 54.501s-12 39.834 -15 66.501s-4.83301 48.667 -5.5 66z" />
    <glyph glyph-name="v" unicode="v" horiz-adv-x="878" 
d="M84 948c-1.33301 6.66699 -1.99805 12.999 -1.99805 18.999c0 14 2.66699 27.667 8 41c8 18.667 21 33 39 43c9.33301 5.33301 18.666 8 27.999 8c6.66699 0 13.667 -1.33301 21 -4c17.333 -6 26.333 -18.333 27 -37c24.667 -193.333 69 -452.666 133 -777.999
l170.5 269.5l140.5 229.5c61.333 101.333 114.666 193 159.999 275c9.33301 15.333 23 25.833 41 31.5s35 3.16699 51 -7.5c11.333 -12 17 -27 17 -45s-5.66699 -39 -17 -63c-106 -186 -290.333 -485 -553 -897c-13.333 -22 -32.333 -33.333 -57 -34h-2
c-23.333 0 -38.333 13.333 -45 40c-78.667 376.667 -132 679.667 -160 909z" />
    <glyph glyph-name="w" unicode="w" horiz-adv-x="1404" 
d="M84 956l0.00390625 5.99609c0 28.667 12.333 53.334 37 74.001c14.667 12.667 28.667 19 42 19c8 0 15.333 -2.33301 22 -7c12.667 -8.66699 20 -25 22 -49c6 -86 19.667 -210.167 41 -372.5s35 -280.5 41 -354.5l239 399.5l199 332.5
c8.66699 15.333 21.5 26.166 38.5 32.499s32.667 5.33301 47 -3s22.166 -23.833 23.499 -46.5c2 -58 7 -121.167 15 -189.5s16 -126 24 -173l33.5 -191l31.5 -177.5l99 181.5l106 195l90.5 176.5c34.333 68.667 63.5 131.334 87.5 188.001
c15.333 32.667 37.666 49.667 66.999 51h5c22.667 0 38 -9.66699 46 -29c2.66699 -6.66699 4 -13.667 4 -21c0 -11.333 -3 -23.666 -9 -36.999c-54.667 -126.667 -143.667 -304.5 -267 -533.5s-196.333 -366.167 -219 -411.5c-8.66699 -17.333 -21 -28.666 -37 -33.999
c-5.33301 -2 -10.666 -2.66699 -15.999 -2c-10 0 -19.667 3 -29 9c-13.333 9.33301 -21.333 24 -24 44c-8.66699 82.667 -28 205.5 -58 368.5s-49.667 285.833 -59 368.5l-202 -337.5l-242 -407.5c-8.66699 -16 -21.834 -27.167 -39.501 -33.5
s-33.834 -5.16602 -48.501 3.50098s-22.334 24 -23.001 46c0 115.333 -13.5 278 -40.5 488s-42.833 352.333 -47.5 427z" />
    <glyph glyph-name="x" unicode="x" horiz-adv-x="905" 
d="M-81 33c0 17.333 8.66699 34.333 26 51l409 453c-76.667 150 -144.667 293.333 -204 430c-4.66699 10 -7 19 -7 27c0 16.667 9.66699 30 29 40c14.667 8 29.667 12 45 12c12.667 0 25.667 -2.66699 39 -8c18.667 -7.33301 31.667 -18.666 39 -33.999
c45.333 -102 100 -217.667 164 -347l165.5 186l166.5 187c11.333 14.667 24.333 24 39 28c6.66699 2 13 3 19 3c6 -0.666992 12.333 -2.33398 19 -5.00098c10.667 -5.33301 20 -12.666 28 -21.999c6 -7.33301 9 -16.333 9 -27c0 -2 -0.333008 -5 -1 -9
c-2 -14.667 -9 -29.334 -21 -44.001l-192.5 -216l-174.5 -197l240 -486c4 -9.33301 6 -18 6 -26c0 -18 -10.333 -32.333 -31 -43c-15.333 -8 -31 -12 -47 -12c-12 0 -24.333 2.33301 -37 7c-18 8 -30.333 19 -37 33l-200 410l-375 -414c-18.667 -19.333 -38 -29 -58 -29
c-8 0 -16 1.66699 -24 5c-22.667 8 -34 23.667 -34 47z" />
    <glyph glyph-name="y" unicode="y" horiz-adv-x="911" 
d="M-80 -350c-0.666992 2 -0.998047 4.00098 -0.998047 6.00098c0 15.333 6 28.333 18 39c11.333 11.333 23.666 18.166 36.999 20.499s26.166 2.33301 38.499 0s24.833 -4 37.5 -5s26.167 2.66699 40.5 11s27.833 22.5 40.5 42.5l81 127.5
c42 65.667 75.667 120.167 101 163.5c-98 364.667 -160.667 665 -188 901c-0.666992 2.66699 -1 5.33398 -1 8.00098c0 20 10.667 36.667 32 50c18.667 12 38 18 58 18c6.66699 0 13.334 -0.666992 20.001 -2c26.667 -4.66699 41.667 -20.334 45 -47.001
c18.667 -172.667 66.334 -415.667 143.001 -729l101 195.5l90.5 183l97.5 202.5l90 187c12 25.333 36.333 38 73 38h3c32 0 54.333 -9.66699 67 -29c4.66699 -7.33301 7 -15.333 7 -24s-2.33301 -18 -7 -28l-399 -795l-34.5 -66.5l-38.5 -73l-35.5 -64.5l-41 -72.5
c-10.333 -17.667 -23.333 -38.667 -39 -63s-30.834 -46.833 -45.501 -67.5c-18.667 -28 -37.167 -52.5 -55.5 -73.5s-39.333 -41 -63 -60s-47.834 -32.833 -72.501 -41.5c-20.667 -8 -44 -12 -70 -12h-11c-30 1.33301 -60.667 9 -92 23c-16.667 6.66699 -25.667 19 -27 37z
" />
    <glyph glyph-name="z" unicode="z" horiz-adv-x="872" 
d="M-78 73c8 19.333 25.6621 30.335 52.9951 33.002c4 2 7 5.66699 9 11c82.667 88 197.167 218.667 343.5 392l317.5 368c-44.667 -0.666992 -91.667 -1 -141 -1s-104 0.166992 -164 0.5s-106.333 0.5 -139 0.5c-19.333 -0.666992 -34.666 7.16602 -45.999 23.499
s-17.166 34.333 -17.499 54s4.5 38 14.5 55s24.333 25.833 43 26.5c39.333 0 103 -0.666992 191 -2c66 -0.666992 126 -1 180 -1c18.667 0.666992 36 1 52 1c66.667 0 130.334 1.33301 191.001 4h5c21.333 0 37.333 -11.333 48 -34c6 -14 9.33301 -28 10 -42
c0 -11.333 -2 -23 -6 -35c-8.66699 -26.667 -25 -41.334 -49 -44.001c-88.667 -93.333 -208.667 -229.833 -360 -409.5s-256.666 -302.167 -315.999 -367.5h480c30.667 0 53.334 -9.83301 68.001 -29.5s16.5 -39.334 5.5 -59.001s-32.167 -29.5 -63.5 -29.5h-633
c-29.333 0 -51.333 9.33301 -66 28c-10 12 -14.667 24.333 -14 37c0 6.66699 1.33301 13.334 4 20.001z" />
    <glyph glyph-name="braceleft" unicode="{" horiz-adv-x="690" 
d="M3 602c7.33301 23.333 24.6641 42.668 51.9971 58.001c20.667 10.667 40 14.667 58 12c44 -8.66699 78.667 -1.16699 104 22.5s46.666 60.5 63.999 110.5c10 26.667 19.667 56.5 29 89.5s16.833 61.333 22.5 85l22 95l20.5 88.5c5.33301 24.667 10.833 48 16.5 70
s12.667 45.667 21 71s17.166 48.5 26.499 69.5s20.333 42.333 33 64s26.167 40.5 40.5 56.5s30.833 30.333 49.5 43s38.334 22.167 59.001 28.5s43.834 9.5 69.501 9.5s52.834 -4 81.501 -12c34.667 -10 47.334 -28.667 38.001 -56c-8 -23.333 -25.667 -41.666 -53 -54.999
c-20 -10 -39 -12.667 -57 -8c-22.667 6 -41 8 -55 6c-2.66699 0 -8 -4 -16 -12c-22.667 -21.333 -44.667 -59 -66 -113c-14.667 -46.667 -31.334 -113.5 -50.001 -200.5l-34 -157.5c-47.333 -192.667 -117.666 -319 -210.999 -379c11.333 -24 19.5 -52.333 24.5 -85
s6.33301 -69.834 4 -111.501s-4.66602 -72.667 -6.99902 -93l-10.5 -87.5c-1.33301 -10.667 -4.66602 -36 -9.99902 -76s-9 -69.833 -11 -89.5s-3 -45.5 -3 -77.5s2.33301 -60.333 7 -85c15.333 -72 75.333 -91.667 180 -59c31.333 10 53.333 -0.333008 66 -31
c10.667 -28 9 -55.333 -5 -82c-8.66699 -18 -21.334 -29 -38.001 -33c-140 -43.333 -235.667 -23.333 -287 60c-41.333 69.333 -53.666 175 -36.999 317c2 23.333 8.5 75.666 19.5 156.999s16.833 145 17.5 191c0 51.333 -4 81 -12 89c-9.33301 14 -34 18 -74 12
c-32.667 -9.33301 -50.334 7 -53.001 49c-32.667 6.66699 -44.667 23 -36 49z" />
    <glyph glyph-name="bar" unicode="|" horiz-adv-x="522" 
d="M43 -213c62 464 154.999 1002.67 278.999 1616c4.66699 28 25 47 61 57c34 9.33301 61.333 6.66602 82 -8.00098c13.333 -10.667 18 -25 14 -43c-125.333 -608 -216.666 -1146.67 -273.999 -1616c-4 -28.667 -23.333 -48.334 -58 -59.001
c-33.333 -10.667 -61.333 -8.33398 -84 6.99902c-16 10.667 -22.667 26 -20 46z" />
    <glyph glyph-name="braceright" unicode="}" horiz-adv-x="606" 
d="M-204 -268.5c-0.666992 22.333 9.66992 43.8398 31.0029 64.5068s43.666 28 66.999 22c46.667 -14.667 83.5 -16.834 110.5 -6.50098s48.167 36.833 63.5 79.5c8 19.333 15 39.166 21 59.499s11.167 42.666 15.5 66.999s7.66602 44.333 9.99902 60s5.33301 38.5 9 68.5
l7.5 61c1.33301 9.33301 3.5 30.166 6.5 62.499s5.5 56.166 7.5 71.499s5.33301 38.5 10 69.5s9.5 55.333 14.5 73s12 39.5 21 65.5s18.667 47.667 29 65s23.166 34.833 38.499 52.5s32.333 32.5 51 44.5c-18 74 -13 182.333 15 325c2 12 6 32.833 12 62.5s10.5 53 13.5 70
s6.33301 38 10 63s6.16699 48.5 7.5 70.5s1.33301 43.333 0 64c-4.66699 35.333 -8.33398 56.666 -11.001 63.999c-0.666992 2 -3 5.33301 -7 10c-2 2 -2.33301 2.66699 -1 2c-22.667 16 -56.667 18 -102 6c-24 -5.33301 -45 3.16699 -63 25.5s-26.333 47 -25 74
s13.666 43.5 36.999 49.5c57.333 13.333 108.833 12.666 154.5 -2.00098s80.167 -46 103.5 -94c21.333 -44.667 32.666 -98 33.999 -160s-2.66699 -116.333 -12 -163c-4 -28 -12.667 -81.167 -26 -159.5s-22.333 -139.166 -27 -182.499c-4 -40 -6 -61.333 -6 -64
c0 -8 1.33301 -14 4 -18c2 0 5 0.666992 9 2s7 2 9 2c23.333 8 43.833 1.16699 61.5 -20.5s25.834 -46.667 24.501 -75s-13.666 -46.5 -36.999 -54.5c-44 -14 -82 -14 -114 0c-11.333 -4.66699 -17.666 -8.66699 -18.999 -12c-13.333 -17.333 -22.666 -34.333 -27.999 -51
c-16.667 -44 -28.334 -92.667 -35.001 -146c-4 -26 -11 -80.5 -21 -163.5s-19.333 -147.167 -28 -192.5c-8 -44.667 -18.833 -86.5 -32.5 -125.5s-31.834 -76.667 -54.501 -113s-49 -65.333 -79 -87s-65.167 -37 -105.5 -46s-85.166 -5.83301 -134.499 9.5
c-26 11.333 -39.333 28.166 -40 50.499z" />
    <glyph glyph-name="asciitilde" unicode="~" horiz-adv-x="1134" 
d="M2 619c-1.33301 17.333 7.66406 33.001 26.9971 47.001c5.33301 4 25.5 18.333 60.5 43s59 41 72 49s33.167 18.667 60.5 32s53 23 77 29c28.667 4.66699 54.167 7.5 76.5 8.5s47.333 -1.5 75 -7.5s52.167 -12.667 73.5 -20s45.333 -16.666 72 -27.999
c9.33301 -4 25.666 -11.5 48.999 -22.5l54.5 -25c13 -5.66699 29.167 -11.167 48.5 -16.5s37 -8 53 -8c11.333 -0.666992 22.5 1.66602 33.5 6.99902s20.333 11.5 28 18.5s16 17.167 25 30.5s15.5 23.833 19.5 31.5l17.5 35l13.5 27.5c10 21.333 29.667 33.5 59 36.5
s54.333 -3.33301 75 -19s25.667 -35.834 15 -60.501c-42 -90 -96.333 -154.167 -163 -192.5s-144.667 -41.833 -234 -10.5c-15.333 5.33301 -54.666 22.166 -117.999 50.499s-113.333 45.833 -150 52.5c-12 4 -25.5 5 -40.5 3s-28 -4.16699 -39 -6.5s-23.667 -7 -38 -14
s-26.666 -13.5 -36.999 -19.5s-22.166 -13.833 -35.499 -23.5l-34.5 -25.5l-33 -25c-12.333 -9.33301 -22.833 -17 -31.5 -23c-23.333 -17.333 -51.666 -18.666 -84.999 -3.99902c-28.667 12 -44 28.667 -46 50z" />
    <glyph glyph-name="uni00A0" unicode="&#xa0;" horiz-adv-x="614" 
 />
    <glyph glyph-name="copyright" unicode="&#xa9;" horiz-adv-x="1546" 
d="M46 508c-10 109.333 11.001 224.666 63.001 345.999c40 86.667 93.167 166.334 159.5 239.001s141.5 131.667 225.5 177c146 83.333 311.667 127 497 131c146.667 4 267.5 -39.5 362.5 -130.5s144.833 -212.167 149.5 -363.5c4 -124.667 -19 -249.5 -69 -374.5
s-123.333 -234.833 -220 -329.5c-114.667 -112.667 -246.5 -185.5 -395.5 -218.5s-286.5 -21.833 -412.5 33.5c-102.667 44 -185.834 109.333 -249.501 196s-100.5 184.667 -110.5 294zM178.001 496c22 -74.667 60.1689 -140.999 114.502 -198.999
s117.166 -102 188.499 -132s150.5 -44.167 237.5 -42.5s171.167 22.167 252.5 61.5c113.333 54 206.5 134.667 279.5 242s114.167 220.666 123.5 339.999c12.667 128 -13 236.833 -77 326.5s-157 146.167 -279 169.5c-96.667 15.333 -209.5 -0.666992 -338.5 -48
s-236.167 -112.666 -321.5 -195.999c-74.667 -74 -129.334 -158.333 -164.001 -253s-40 -184.334 -16 -269.001zM446.003 555.001c-16.667 74 -12.5059 148.334 12.4941 223.001s69.5 140.334 133.5 197.001c32.667 27.333 66.334 46.166 101.001 56.499
s70.167 12.5 106.5 6.5s67.666 -13.5 93.999 -22.5s58.5 -21.5 96.5 -37.5c2.66699 -1.33301 4.66699 -2.16602 6 -2.49902s3 -1 5 -2l5 -2.5c23.333 -10 34.666 -33 33.999 -69c-0.666992 -34.667 -11 -59.334 -31 -74.001c-13.333 -10 -28.666 -11 -45.999 -3
c-2.66699 1.33301 -16.167 7.66602 -40.5 18.999s-41 18.833 -50 22.5s-24.833 8.83398 -47.5 15.501s-40.667 9.83398 -54 9.50098s-29.166 -2.83301 -47.499 -7.5s-34.833 -12.667 -49.5 -24c-44 -31.333 -77.167 -70.333 -99.5 -117s-26.166 -91 -11.499 -133
c10.667 -30 26.334 -55.833 47.001 -77.5s44.334 -36.834 71.001 -45.501s54.167 -11.5 82.5 -8.5s56.5 14.5 84.5 34.5s52.667 47.667 74 83c20 33.333 42.667 43 68 29c20.667 -11.333 32.667 -31.333 36 -60c2.66699 -20.667 -0.666016 -39 -9.99902 -55
c-38.667 -64.667 -87.167 -115.834 -145.5 -153.501s-119.166 -49.167 -182.499 -34.5c-59.333 14 -111 41.667 -155 83s-73 91.333 -87 150z" />
    <glyph glyph-name="guillemotleft" unicode="&#xab;" horiz-adv-x="927" 
d="M47 504c12 30 28.5029 58.502 49.5029 85.502s46.833 56.667 77.5 89s52.667 56.833 66 73.5c6 7.33301 28.667 39 68 95s72.666 95.333 99.999 118c44 29.333 76 32.666 96 9.99902c12 -14 16 -30.5 12 -49.5s-13 -33.833 -27 -44.5
c-24.667 -20.667 -53.667 -55.667 -87 -105s-54.666 -79.333 -63.999 -90c-12.667 -16.667 -36.334 -42.5 -71.001 -77.5s-59.334 -63.167 -74.001 -84.5c110 -102.667 183.667 -204.334 221 -305.001c11.333 -26.667 3.66602 -53.667 -23.001 -81
c-24 -24.667 -48 -35 -72 -31c-16 2 -27.333 12 -34 30c-21.333 56 -51 107.667 -89 155s-85 97.333 -141 150c-16 14 -18.667 34.667 -8 62zM425.003 520.502c1.33301 19 7.66895 37.1689 19.002 54.502c21.333 32 56.666 73.5 105.999 124.5s82.333 86.833 99 107.5
c8 10.667 22.833 31.667 44.5 63s41 57.666 58 78.999s34.833 41 53.5 59c24 20.667 45 18 63 -8c16.667 -25.333 22 -54.666 16 -87.999c-4 -18 -11.333 -32 -22 -42c-24.667 -22 -54 -58.333 -88 -109s-60 -85.334 -78 -104.001
c-59.333 -62 -101.666 -107.667 -126.999 -137c59.333 -84 109.333 -174 150 -270c12 -28.667 8.33301 -57 -11 -85c-16.667 -24.667 -35.334 -34.334 -56.001 -29.001c-14.667 5.33301 -26.667 18 -36 38c-51.333 113.333 -109.333 210.333 -174 291
c-12.667 18 -18.334 36.5 -17.001 55.5z" />
    <glyph glyph-name="uni00AD" unicode="&#xad;" 
d="M42 576c-0.666992 25.333 11.333 49.333 36 72c18 16 36.333 24 55 24h488c32 0 48 -13 48 -39c0.666992 -25.333 -11.333 -49.333 -36 -72c-18 -16 -36.333 -24 -55 -24h-488c-32 0 -48 13 -48 39z" />
    <glyph glyph-name="registered" unicode="&#xae;" horiz-adv-x="1206" 
d="M42.5 728c1.66699 76.667 15.168 154.499 40.501 233.499s59.5 150.667 102.5 215s98.333 118.833 166 163.5s142.167 71.667 223.5 81c70 16 135.333 17.667 196 5s115.667 -38.334 165 -77.001s91.333 -84.667 126 -138s60.834 -112.666 78.501 -177.999
s25.167 -131 22.5 -197c-4 -108.667 -33.5 -210 -88.5 -304s-132.5 -168.333 -232.5 -223c-74 -41.333 -153.167 -69.5 -237.5 -84.5s-166.333 -13.667 -246 4s-143.834 52.834 -192.501 105.501c-42.667 46 -74.334 104 -95.001 174s-30.167 143.333 -28.5 220z
M180.001 715.999c6 -55.333 17.4971 -106.333 34.4971 -153s44.5 -87.167 82.5 -121.5s83 -56.5 135 -66.5c38 -6 78 -9.33301 120 -10s85.667 4.83301 131 16.5s87.833 26.667 127.5 45s76 43.833 109 76.5s58.167 69.667 75.5 111c16.667 42 26.834 87.167 30.501 135.5
s1.5 95.5 -6.5 141.5s-21.667 91 -41 135s-42.666 83.833 -69.999 119.5s-59.166 66 -95.499 91s-74.833 42.667 -115.5 53s-85 11 -133 2s-96 -28.5 -144 -58.5c-63.333 -31.333 -114.5 -79 -153.5 -143s-65.167 -135 -78.5 -213c-11.333 -52 -14 -105.667 -8 -161z
M333.998 560.999l11.998 58.498c6.66699 32.333 11 53 13 62s5.66699 27.667 11 56s9 49 11 62l9 56c4 24.333 6.83301 44.666 8.5 60.999l5.5 55.5c2 20.667 3.33301 40.667 4 60c-8 11.333 -9.66699 23.666 -5 36.999c4 12 9.66699 21.667 17 29
c14 26.667 36.333 46.334 67 59.001s51.334 9.33398 62.001 -9.99902c48 2.66699 93.167 -0.333008 135.5 -9s79 -27.5 110 -56.5s44.167 -66.5 39.5 -112.5c-5.33301 -89.333 -56.666 -161 -153.999 -215c29.333 -33.333 53.333 -77 72 -131
c7.33301 -24.667 -0.666992 -47 -24 -67s-47.666 -29.667 -72.999 -29s-43 11.334 -53 32.001c-22 55.333 -46.667 98.333 -74 129c-4.66699 -0.666992 -10.834 -2 -18.501 -4l-15.5 -4c-2 -8 -8.33301 -39.333 -19 -94c-4.66699 -27.333 -23 -49.666 -55 -66.999
c-31.333 -17.333 -56 -19.333 -74 -6c-12 8.66699 -16 24.667 -12 48zM515.996 804.997c20 4 39.998 9.66895 59.998 17.002s39.333 16.666 58 27.999s32.334 25 41.001 41s9.66699 33 3 51c-17.333 47.333 -61 73.333 -131 78
c-3.33301 -38.667 -13.666 -110.334 -30.999 -215.001z" />
    <glyph glyph-name="guillemotright" unicode="&#xbb;" horiz-adv-x="917" 
d="M0.5 163c-1.66699 18.667 3.5 34 15.5 46c25.333 26.667 77.833 78 157.5 154s139.167 136.667 178.5 182c-26 44 -59 107.5 -99 190.5s-67 137.5 -81 163.5c-6 14 -7 28 -3 42s12.667 25.667 26 35s27.333 16.333 42 21s29.167 4.83398 43.5 0.500977
s25.166 -13.166 32.499 -26.499c13.333 -24.667 42 -83.334 86 -176.001s81 -162.334 111 -209.001c6 -11.333 7.5 -22.5 4.5 -33.5s-8.5 -20.5 -16.5 -28.5c-43.333 -52.667 -112.166 -124 -206.499 -214l-160.5 -154c-13.333 -15.333 -29.5 -26.333 -48.5 -33
s-37.5 -6.66699 -55.5 0c-16 8 -24.833 21.333 -26.5 40zM403.5 179.5c2.33301 15 9.83594 29.499 22.5029 43.499l96.5 104.5l117 127c33.667 37.667 64.167 74.5 91.5 110.5c0 2.66699 -0.666992 5.33398 -2 8.00098l-27 49c-12.667 22.667 -22 40 -28 52l-133 219
c-12.667 20.667 -11.167 43.834 4.5 69.501s35 41.167 58 46.5s43.167 -2.66699 60.5 -24c59.333 -94.667 112.333 -183.334 159 -266.001c0.666992 -0.666992 5.16699 -8 13.5 -22s13.166 -22.667 14.499 -26s5.16602 -11 11.499 -23s9.66602 -21 9.99902 -27
s1.33301 -13.833 3 -23.5s1.16699 -18.5 -1.5 -26.5s-6.66699 -16 -12 -24c-26.667 -44.667 -58.5 -88.667 -95.5 -132s-84 -93.833 -141 -151.5l-113.5 -116.5c-12 -14 -25.167 -23.167 -39.5 -27.5s-26.666 -4 -36.999 1s-18.833 12.333 -25.5 22s-8.83398 22 -6.50098 37
z" />
    <glyph glyph-name="afii10023" unicode="&#x401;" horiz-adv-x="1042" 
d="M85.5 111.5c5.66699 25.667 17.5 43.8301 35.5 54.4971c9.33301 54.667 27.666 174.334 54.999 359.001s53 337.167 77 457.5s53.667 237.833 89 352.5c-30.667 9.33301 -48 25 -52 47s3.83301 40.667 23.5 56s42.834 19.333 69.501 12c19.333 24 42 32.667 68 26
s39.667 -24.334 41 -53.001c64.667 -10.667 160 -15.334 286 -14.001s222.333 -2 289 -10c17.333 -1.33301 32.166 -9.5 44.499 -24.5s15.166 -30.833 8.49902 -47.5c-11.333 -33.333 -44.666 -47 -99.999 -41c-60 8 -153.5 11.5 -280.5 10.5s-220.5 3.16699 -280.5 12.5
c-43.333 -144 -81 -308 -113 -492c42.667 1.33301 121 4.83301 235 10.5s202.333 8.5 265 8.5c34 0 58.667 -13.667 74 -41c13.333 -23.333 12.333 -43.666 -3 -60.999c-11.333 -12.667 -29.666 -19 -54.999 -19c-54 -0.666992 -140.833 -3.66699 -260.5 -9
s-211.5 -8 -275.5 -8c-11.333 -61.333 -25.666 -149.666 -42.999 -264.999s-30.333 -197.666 -39 -246.999c6 0.666992 27.167 3.16699 63.5 7.5s59.166 7 68.499 8s29.833 2.83301 61.5 5.5s54.167 3.83398 67.5 3.50098s33.666 -0.666016 60.999 -0.999023
s49.833 -2.16602 67.5 -5.49902s38 -7.5 61 -12.5s44.833 -11.5 65.5 -19.5c26.667 -11.333 40.667 -36 42 -74c0.666992 -34.667 -9.33301 -59.667 -30 -75c-14 -10 -29.667 -11.667 -47 -5c-43.333 16.667 -92 27.167 -146 31.5s-100.5 4.66602 -139.5 0.999023
s-90.667 -9.66699 -155 -18s-112.166 -13.833 -143.499 -16.5c-21.333 -2.66699 -37.333 6.16602 -48 26.499s-13.167 43.333 -7.5 69zM510 1638c0 29.333 8.33398 62.335 25.001 99.002c19.333 32.667 30 51 32 55c10.667 16.667 23.5 28.5 38.5 35.5s31.5 5.5 49.5 -4.5
c15.333 -10.667 23.5 -27 24.5 -49s-2.83301 -40.667 -11.5 -56l-15.5 -21.5l-15.5 -21.5c0 -4.66699 -2 -10 -6 -16v-2c0 -4 -0.666992 -6.66699 -2 -8c0 -18.667 -6.66699 -36.834 -20 -54.501s-29.333 -26.834 -48 -27.501c-18.667 -2 -31.834 4.33301 -39.501 19
s-11.5 32 -11.5 52zM825.001 1573c2 10 5.49902 25.333 10.499 46s8.5 36 10.5 46c0 2 0.333008 5.66699 1 11s1 10 1 14c-21.333 13.333 -28.333 32.333 -21 57c6.66699 18 19.334 31.667 38.001 41s38.334 13.333 59.001 12c14 -0.666992 26.167 -3.66699 36.5 -9
s18.333 -11 24 -17s9.83398 -14.667 12.501 -26s4.16699 -21.166 4.5 -29.499s-0.5 -19.833 -2.5 -34.5s-3.83301 -25.667 -5.5 -33s-4.33398 -18.5 -8.00098 -33.5s-5.83398 -24.5 -6.50098 -28.5c-4 -20 -13.5 -36.167 -28.5 -48.5s-32.833 -19.166 -53.5 -20.499
c-15.333 -2.66699 -32.333 1.16602 -51 11.499s-25.667 24.166 -21 41.499z" />
    <glyph glyph-name="afii10051" unicode="&#x402;" horiz-adv-x="1302" 
d="M84 1266c0 26.667 12.6621 51.9961 37.9951 75.9961c18 17.333 36.667 26 56 26c100.667 0 244.834 3.83301 432.501 11.5s322.167 12.167 403.5 13.5c28.667 0 42.667 -12.667 42 -38c-0.666992 -26 -13.667 -51.333 -39 -76c-19.333 -18.667 -39 -28 -59 -28
c-62.667 0 -156.667 -2.66699 -282 -8c-12.667 -78 -47.667 -239 -105 -483c15.333 6 34.666 12 57.999 18c9.33301 1.33301 26.833 4.33301 52.5 9l59 10.5c13.667 2.33301 30.834 4.5 51.501 6.5s39.334 3 56.001 3c30.667 0.666992 58.5 0.5 83.5 -0.5
s52.333 -3.66699 82 -8s56.167 -11.166 79.5 -20.499s46 -21.166 68 -35.499s40.667 -33.166 56 -56.499s26.666 -50 33.999 -80c17.333 -73.333 11 -147 -19 -221s-74 -143.667 -132 -209c-120 -135.333 -249 -226 -387 -272c-34.667 -11.333 -57.667 -4.66602 -69 20.001
c-10 22.667 -6.66699 46 10 70c12 17.333 28 29 48 35c43.333 13.333 89 36.333 137 69s92.5 70.167 133.5 112.5s74.333 89.666 100 141.999s37.5 102.166 35.5 149.499c-4 66.667 -28.333 113 -73 139s-103.667 39 -177 39c-40.667 0 -89.667 -4.66699 -147 -14
c-19.333 -2 -42 -6.33301 -68 -13c-8.66699 -1.33301 -16.667 -3.33301 -24 -6c5.33301 4 12 10.333 20 19c-11.333 -13.333 -26.666 -23.666 -45.999 -30.999s-36.666 -9.33301 -51.999 -6c-50 -232 -78 -415.667 -84 -551c-0.666992 -30 -11 -50.667 -31 -62
s-39.667 -10 -59 4s-28.333 36.667 -27 68c3.33301 114.667 18 237.834 44 369.501s56.667 271 92 418s60.333 268.833 75 365.5c-219.333 -9.33301 -360.666 -14 -423.999 -14c-29.333 0 -43.666 13 -42.999 39z" />
    <glyph glyph-name="afii10052" unicode="&#x403;" horiz-adv-x="1052" 
d="M86 66c26 96.667 53.001 203.667 81.001 321l67.5 291l73 335l65.5 304c-30.667 11.333 -49.334 28.333 -56.001 51c-6 16 -3 31.333 9 46s26.333 22 43 22h706c21.333 0 41.333 -4.66699 60 -14s31.667 -23.333 39 -42c4.66699 -18 1.16699 -34 -10.5 -48
s-26.167 -21 -43.5 -21h-626l-65.5 -306.5l-74 -341.5l-67.5 -294.5l-80 -327.5c-8.66699 -30 -24.667 -49.167 -48 -57.5s-43.333 -4.33301 -60 12s-21 39.833 -13 70.5zM657.001 1598c1.33301 16.667 8.33203 31.333 20.999 44c18.667 18.667 54.334 51.5 107.001 98.5
s92 85.167 118 114.5c21.333 24.667 49 33.334 83 26.001c27.333 -5.33301 43.333 -18.333 48 -39c4.66699 -17.333 -1.33301 -35.333 -18 -54c-27.333 -31.333 -67.5 -70.833 -120.5 -118.5s-87.833 -79.834 -104.5 -96.501c-14.667 -14 -32.667 -22.667 -54 -26
s-41 -0.333008 -59 9c-15.333 11.333 -22.333 25.333 -21 42z" />
    <glyph glyph-name="afii10053" unicode="&#x404;" horiz-adv-x="1103" 
d="M86 616c12 252 77.6689 441.332 197.002 567.999c75.333 82 162.833 146 262.5 192s202 71.667 307 77s212.167 -6 321.5 -34c36 -9.33301 53 -27 51 -53c-1.33301 -22 -14.333 -39 -39 -51c-20.667 -10.667 -42.667 -12.667 -66 -6c-137.333 37.333 -274 34.333 -410 -9
s-247 -121 -333 -233c-54.667 -72 -92.334 -165 -113.001 -279c220 -10 401 -4.33301 543 17c23.333 3.33301 42.166 -7.5 56.499 -32.5s18.333 -51.167 12 -78.5s-22.5 -43 -48.5 -47c-86 -12 -182.667 -18.5 -290 -19.5s-203.666 0.833008 -288.999 5.5
c-2.66699 -6.66699 -4 -17.667 -4 -33c-8.66699 -195.333 25.333 -329.666 102 -402.999c26.667 -27.333 58.667 -48.5 96 -63.5s73.666 -24.167 108.999 -27.5s75.5 -2.5 120.5 2.5s83.5 11 115.5 18s68.667 16.167 110 27.5c32.667 8 62.667 0.333008 90 -23
c24 -20.667 31.667 -40.334 23 -59.001c-5.33301 -13.333 -19 -23 -41 -29c-347.333 -95.333 -593.333 -70.666 -738 74.001c-112 108.667 -160.333 275 -145 499z" />
    <glyph glyph-name="afii10054" unicode="&#x405;" horiz-adv-x="901" 
d="M-80.5 49c-2.33301 27.333 5.16699 52.335 22.5 75.002s37.333 31.334 60 26.001c209.333 -48 377.333 -53 504 -15c42.667 12 80.5 30.833 113.5 56.5s51.167 57.5 54.5 95.5c5.33301 52.667 -2.5 102.5 -23.5 149.5s-50.833 89.333 -89.5 127s-78.5 72.5 -119.5 104.5
l-128.5 105c-44.667 38 -78.667 73.333 -102 106c-40.667 56.667 -63.334 113.167 -68.001 169.5s6.16602 106.5 32.499 150.5s61.833 84.833 106.5 122.5s97 67.667 157 90s120.5 38.666 181.5 48.999s121.333 11.5 181 3.5s111.167 -25 154.5 -51
c19.333 -16.667 28 -37.834 26 -63.501s-13.333 -48 -34 -67s-41.667 -22.5 -63 -10.5c-48.667 29.333 -108.5 45 -179.5 47s-139.667 -7.5 -206 -28.5s-121.5 -49.167 -165.5 -84.5c-34 -28 -53.5 -58.333 -58.5 -91s0.833008 -63.334 17.5 -92.001
s40.834 -59.167 72.501 -91.5s63.667 -60.5 96 -84.5l99 -75.5c33.667 -26.333 57.167 -46.5 70.5 -60.5c38 -40 70.5 -83.167 97.5 -129.5s47.667 -95.166 62 -146.499s16.833 -103.5 7.5 -156.5s-31.666 -101.5 -66.999 -145.5
c-140.667 -174 -397.334 -218.333 -770.001 -133c-25.333 5.33301 -39.166 21.666 -41.499 48.999z" />
    <glyph glyph-name="afii10055" unicode="&#x406;" horiz-adv-x="540" 
d="M84 72c86 362.667 172.001 797.334 258.001 1304c4 23.333 19.667 39.666 47 48.999s53.333 8.66602 78 -2.00098s35 -29 31 -55c-78.667 -477.333 -165.334 -913 -260.001 -1307c-5.33301 -26 -25.333 -42.667 -60 -50c-33.333 -7.33301 -60 -2.66602 -80 14.001
c-14 12 -18.667 27.667 -14 47z" />
    <glyph glyph-name="afii10056" unicode="&#x407;" horiz-adv-x="552" 
d="M84 37c9.33301 73.333 21.666 151.833 36.999 235.5s29 153.667 41 210s31.5 136.166 58.5 239.499l54.5 207l67 238l61 213c7.33301 26 28.333 45.333 63 58c34 12.667 60 12 78 -2c12.667 -10 16.334 -25 11.001 -45l-47 -162l-50 -174l-44 -159.5
c-22 -79.667 -37.5 -137.834 -46.5 -174.501l-39.5 -160.5c-17.333 -70.333 -30.5 -129.166 -39.5 -176.499l-30 -162c-11 -60.667 -20.167 -119 -27.5 -175c-2 -27.333 -19 -47.666 -51 -60.999c-31.333 -12 -57.333 -11.333 -78 2c-15.333 10.667 -21.333 27 -18 49z
M283 1712c0 20.667 5.99902 40.001 17.999 58.001s27 30 45 36c12.667 4 24.834 4.33301 36.501 1s20.167 -9.66602 25.5 -18.999c8.66699 2 17.334 2 26.001 0c17.333 -4.66699 28.666 -16.334 33.999 -35.001s4.33301 -35 -3 -49v-8c-4.66699 -11.333 -8 -22.333 -10 -33
c-20 -34.667 -47.333 -58.667 -82 -72c-22.667 -10 -42 -3.66699 -58 19c-9.33301 8.66699 -16.5 19.167 -21.5 31.5s-8 23.166 -9 32.499s-1.5 22 -1.5 38zM530.499 1696.5c-1 17.667 5.16699 33.165 18.5 46.498c13.333 22.667 35.666 35 66.999 37
c6 4 11.667 7.33301 17 10c14.667 8 31.667 11.333 51 10s34.333 -8.66602 45 -21.999c10 -10 17 -18.333 21 -25c11.333 -23.333 9 -44.333 -7 -63c-16 -30.667 -38.333 -50 -67 -58c-17.333 -4 -36.666 -4 -57.999 0c-20 6 -39.667 14.333 -59 25
c-18 8.66699 -27.5 21.834 -28.5 39.501z" />
    <glyph glyph-name="afii10057" unicode="&#x408;" horiz-adv-x="626" 
d="M-76.5 53c-6.33301 18.667 -6.16699 38 0.5 58c4.66699 17.333 14.5 30.5 29.5 39.5s30.5 7.83301 46.5 -3.5c90 -68.667 169.667 -5 239 191c19.333 56 40.666 134.333 63.999 235c27.333 106 58.5 257.5 93.5 454.5s59.833 330.167 74.5 399.5
c3.33301 18 13 31.167 29 39.5s32.333 8.16602 49 -0.500977c16 -11.333 26.833 -27 32.5 -47s5.83398 -39.667 0.500977 -59c-4 -18 -12 -65.667 -24 -143c-54.667 -343.333 -109 -605.333 -163 -786c-123.333 -412 -269.333 -553.667 -438 -425
c-16 12.667 -27.167 28.334 -33.5 47.001z" />
    <glyph glyph-name="afii10058" unicode="&#x409;" horiz-adv-x="1900" 
d="M-120 -2c-4.66699 22.667 4 43.665 26 62.998c15.333 14 33 21.667 53 23c34.667 2 67 9.83301 97 23.5s55.5 30 76.5 49s41.167 42.833 60.5 71.5s35.166 56 47.499 82s25.166 56.333 38.499 91c32.667 84.667 63 174.834 91 270.501s57.833 205.334 89.5 329.001
s55.834 214.834 72.501 273.501c10.667 19.333 21.667 31.666 33 36.999c-9.33301 15.333 -9.66602 31.666 -0.999023 48.999s26 28.333 52 33c221.333 36 427 36.667 617 2c19.333 -2.66699 33.333 -10.667 42 -24s11 -29.333 7 -48
c-74.667 -256 -122.334 -425.333 -143.001 -508c58.667 11.333 117.834 17.5 177.501 18.5s119.5 -4.66699 179.5 -17s113.167 -31 159.5 -56s84.333 -60.5 114 -106.5s45.5 -100 47.5 -162c0.666992 -51.333 -7.5 -99.166 -24.5 -143.499s-41.167 -83 -72.5 -116
s-67.833 -63 -109.5 -90s-86.834 -49.333 -135.501 -67s-98.834 -32.667 -150.501 -45s-103.334 -20.833 -155.001 -25.5s-101 -7 -148 -7s-90.5 2.66699 -130.5 8c-15.333 2 -28.166 8.16699 -38.499 18.5s-15.166 23.166 -14.499 38.499
c18.667 170.667 56 376.334 112 617.001c-14.667 12 -20.5 26.333 -17.5 43s17.167 31 42.5 43c31.333 126 78.333 299.333 141 520c-141.333 18 -282.666 18 -423.999 0c-2.66699 -2.66699 -4 -6.66699 -4 -12l-164 -586c-50 -178 -93.667 -307.667 -131 -389
c-97.333 -209.333 -247.333 -321.333 -450 -336c-36.667 -2 -57.667 9.66699 -63 35zM999 120.998c125.333 -8 256.664 11.001 393.997 57.001c37.333 12.667 70.833 26.834 100.5 42.501s57.834 35 84.501 58s47.334 50.5 62.001 82.5s21.667 67.333 21 106
c-1.33301 60.667 -21.166 110.667 -59.499 150s-86 65.666 -143 78.999s-116.167 19.166 -177.5 17.499s-119 -10.167 -173 -25.5c-56.667 -223.333 -93 -412.333 -109 -567z" />
    <glyph glyph-name="afii10059" unicode="&#x40a;" horiz-adv-x="1912" 
d="M86 84c71.333 275.333 126.671 495.671 166.004 661.004c-12 12 -16.167 27 -12.5 45s14.5 31 32.5 39l9.5 39.5l9.5 38.5c8 26 18.667 65 32 117s23.666 91 30.999 117c0.666992 4.66699 5.16699 22 13.5 52s14.5 56 18.5 78s4.33301 36.667 1 44
c-12.667 29.333 -9.66699 58.666 9 87.999c16 25.333 34 35.666 54 30.999c15.333 -3.33301 27.666 -16.333 36.999 -39c9.33301 -20.667 14.5 -45.167 15.5 -73.5s-0.166992 -52 -3.5 -71s-8.66602 -44.5 -15.999 -76.5c-16.667 -77.333 -37 -160 -61 -248
c-2 -8.66699 -5.83301 -22.5 -11.5 -41.5s-9.5 -34.5 -11.5 -46.5c220 4 438.667 12 656 24c6 19.333 10 38.666 12 57.999c9.33301 38 19 91.333 29 160s21.167 131.334 33.5 188.001s29.166 107.667 50.499 153c11.333 23.333 31.5 35.666 60.5 36.999
s53.667 -6.66699 74 -24s25.166 -37.333 14.499 -60c-21.333 -46 -38.333 -96.333 -51 -151s-24.167 -118.334 -34.5 -191.001s-19.166 -126 -26.499 -160c42 2.66699 78 4.16699 108 4.5s65.833 -0.333984 107.5 -2.00098s78.5 -6.66699 110.5 -15
s64.5 -19.166 97.5 -32.499s62.167 -32 87.5 -56s46.666 -52.333 63.999 -85c40.667 -86 49.167 -174.5 25.5 -265.5s-71.167 -167.833 -142.5 -230.5c-41.333 -36.667 -91.166 -67.167 -149.499 -91.5s-110.5 -41 -156.5 -50s-106.167 -19.5 -180.5 -31.5
s-129.166 -21.667 -164.499 -29c-26 -6 -48.833 -1.66699 -68.5 13s-28.834 32 -27.501 52c-17.333 20 -24.333 39.333 -21 58c31.333 201.333 71.666 411.333 120.999 630h-6c-204.667 -13.333 -422.334 -20 -653.001 -20l-168 -676c-8 -31.333 -22.833 -49.333 -44.5 -54
s-40.5 2.83301 -56.5 22.5s-20.667 43.167 -14 70.5zM1065 117.005l84.0039 11.5c41.333 5.66699 71.666 10 90.999 13s46.833 8.33301 82.5 16s64.667 15.667 87 24s46.666 19.5 72.999 33.5s49.5 29.667 69.5 47c36 32.667 65.5 72.167 88.5 118.5s34.667 96 35 149
s-14.834 99.167 -45.501 138.5c-29.333 37.333 -66.333 61.666 -111 72.999s-99 17 -163 17c-72.667 0 -127.334 -1.33301 -164.001 -4c-62.667 -281.333 -105 -493.666 -127 -636.999z" />
    <glyph glyph-name="afii10060" unicode="&#x40b;" horiz-adv-x="1302" 
d="M89 1316c-10 26.667 -9.33301 53.334 2 80.001s29.333 40 54 40c123.333 0 299.666 3.33301 528.999 10s391 10.667 485 12c26.667 0 44.834 -13.167 54.501 -39.5s8.83398 -52.666 -2.49902 -78.999s-28.666 -39.5 -51.999 -39.5
c-53.333 0 -211.666 -3.33301 -474.999 -10c-17.333 -69.333 -43.166 -167.333 -77.499 -294l-63.5 -236c45.333 18.667 82.166 33.334 110.499 44.001s64.333 22.167 108 34.5s81.5 19.666 113.5 21.999s66.667 0.333008 104 -6s71.333 -18.833 102 -37.5
c56.667 -34 94.5 -85 113.5 -153s24.833 -141.333 17.5 -220c-8 -62 -30 -149.167 -66 -261.5s-55.667 -175.166 -59 -188.499c-9.33301 -35.333 -27.333 -50.666 -54 -45.999c-22.667 4 -40.334 18.667 -53.001 44c-10.667 20.667 -13 41.667 -7 63
c4 13.333 12.333 37.666 25 72.999l36 105c11.333 34.667 23.333 73.667 36 117s21 83.666 25 120.999s4.5 72.666 1.5 105.999s-14.167 60.5 -33.5 81.5s-46 33.5 -80 37.5c-32 3.33301 -64.333 3.33301 -97 0s-67.334 -10.166 -104.001 -20.499
s-67.167 -19.666 -91.5 -27.999s-58.166 -20.833 -101.499 -37.5l-91 -35c-47.333 -200.667 -83 -383.334 -107 -548.001c-3.33301 -25.333 -18.5 -39.833 -45.5 -43.5s-52.833 2.66602 -77.5 18.999s-35.334 36.5 -32.001 60.5c21.333 153.333 54.666 328.333 99.999 525
c-6.66699 18 -8 38.167 -4 60.5s13.333 38.166 28 47.499l158 588c-166.667 -5.33301 -291 -8 -373 -8c-27.333 0 -46 13.333 -56 40z" />
    <glyph glyph-name="afii10061" unicode="&#x40c;" horiz-adv-x="1110" 
d="M88 92c38 131.333 81.666 334.672 130.999 610.005c0 10 1.33301 16.333 4 19c20 106 36.667 190.667 50 254s32.166 140.666 56.499 231.999s50.5 174.333 78.5 249c13.333 32.667 33.333 42.667 60 30c23.333 -10.667 40 -31 50 -61c8 -22 8.66699 -42.333 2 -61
c-54.667 -136.667 -105 -323 -151 -559c41.333 14.667 82.5 33.5 123.5 56.5s77.333 45.667 109 68s66.667 52 105 89l92.5 92c23.333 24.333 53.833 59.833 91.5 106.5l82 103.5l82.5 109.5c10.667 17.333 25.334 30.666 44.001 39.999s37.334 11.666 56.001 6.99902
c18 -6.66699 29.333 -19 34 -37s1.66699 -33.667 -9 -47l-139 -181.5c-38 -47.667 -83.5 -101.334 -136.5 -161.001s-107.167 -112.5 -162.5 -158.5s-113 -86.667 -173 -122c163.333 -264 285 -496.667 365 -698c12 -26.667 7.33301 -56.334 -14 -89.001
c-18 -27.333 -37.333 -40.333 -58 -39c-16 1.33301 -28.333 12.333 -37 33c-78.667 201.333 -205.667 444.666 -381 729.999c-37.333 -16 -72 -29.667 -104 -41l-30.5 -160.5l-34.5 -178.5c-8 -40.667 -19.167 -92.334 -33.5 -155.001s-28.5 -119.334 -42.5 -170.001
c-4.66699 -17.333 -16.5 -27.666 -35.5 -30.999s-35.167 0.333984 -48.5 11.001c-30 24.667 -39 61.334 -27 110.001zM802.999 1648.01c-4.66699 16.667 -0.668945 32.001 11.998 46.001l18 18.5c10.667 11 17.167 17.5 19.5 19.5s8.5 7.83301 18.5 17.5s16.833 16 20.5 19
l19.5 16.5c9.33301 8 16.666 13.667 21.999 17s12.5 8.16602 21.5 14.499s17 11.166 24 14.499s14.833 6.83301 23.5 10.5s17.334 6.83398 26.001 9.50098c18 5.33301 36.333 4.5 55 -2.5s30.334 -19.167 35.001 -36.5c4.66699 -18.667 0.333984 -34.667 -12.999 -48
s-30 -23 -50 -29l-11 -6c-4.66699 -3.33301 -10.667 -8.5 -18 -15.5s-13.333 -12.167 -18 -15.5l-62 -62c-14.667 -14 -32 -23 -52 -27s-39.333 -2.33301 -58 5c-17.333 6 -28.333 17.333 -33 34z" />
    <glyph glyph-name="afii10062" unicode="&#x40e;" horiz-adv-x="1075" 
d="M88 141c10.667 26.667 26.666 40.999 47.999 42.999c18 2 35.333 -6.66699 52 -26c3.33301 -6 11.166 -10.167 23.499 -12.5s25.833 -0.833008 40.5 4.5c40.667 20 84.334 53.333 131.001 100c49.333 56.667 85.666 100.334 108.999 131.001
c-1.33301 1.33301 -3.16602 3.66602 -5.49902 6.99902s-4.16602 5.66602 -5.49902 6.99902l-147 373.5c-86 217 -148.333 383.5 -187 499.5c-13.333 10.667 -20 24.334 -20 41.001l-6 30c-1.33301 25.333 9.16699 49 31.5 71s45.833 30.667 70.5 26
c18.667 -4.66699 33.5 -16.667 44.5 -36s20.667 -45.5 29 -78.5s13.833 -52.833 16.5 -59.5c28.667 -82 61.667 -169.667 99 -263l93 -236l91 -231c12.667 18 40.667 63.333 84 136c108.667 190.667 192 350.334 250 479.001c34.667 78 61.334 140 80.001 186
c2 8 5 17.5 9 28.5s6.33301 17.833 7 20.5c0.666992 3.33301 2 9.33301 4 18l4 15v-8c0.666992 36 14 56.667 40 62c22.667 4.66699 43 -3.33301 61 -24c14 -16.667 20.667 -36.334 20 -59.001c-0.666992 -26.667 -6 -57 -16 -91s-19.5 -61.667 -28.5 -83
s-23.333 -52.5 -43 -93.5l-37.5 -78.5c-88.667 -192 -184.334 -370 -287.001 -534c-72.667 -118.667 -129 -205 -169 -259c-192 -258 -346 -326.333 -462 -205c-4 4 -8 8.33301 -12 13c-20.667 24.667 -24.667 53.334 -12 86.001zM360.999 1610
c-4.66699 29.333 2.66797 56.333 22.001 81c14 18 31 27 51 27h522c27.333 0 44.166 -12.667 50.499 -38s2 -50.833 -13 -76.5s-34.167 -38.5 -57.5 -38.5h-524c-29.333 0 -46.333 15 -51 45z" />
    <glyph glyph-name="afii10145" unicode="&#x40f;" horiz-adv-x="1357" 
d="M84 77c3.33301 16.667 12.3301 30.0029 26.9971 40.0029v10l83 399.5l96.5 464.5l78.5 398c4.66699 28 24.334 47.333 59.001 58c33.333 11.333 60.333 9.66602 81 -5.00098c14 -10 19 -24.333 15 -43c-42.667 -230.667 -128 -652 -256 -1264l-6 -18
c252.667 -23.333 474.667 -27 666 -11c34 122.667 63.833 253.167 89.5 391.5s51.5 296.166 77.5 473.499s46.667 309.666 62 396.999c5.33301 26.667 25.333 45.834 60 57.501s62.334 10.167 83.001 -4.5c13.333 -10 18.333 -24.333 15 -43
c-16.667 -92 -38.667 -228.167 -66 -408.5s-54.166 -341.833 -80.499 -484.5s-56.833 -277 -91.5 -403c-0.666992 -0.666992 -2.5 -4 -5.5 -10s-5.83301 -10.333 -8.5 -13c5.33301 -16.667 2.83301 -31.5 -7.5 -44.5s-28.5 -20.5 -54.5 -22.5
c-99.333 -11.333 -224.666 -17 -375.999 -17c-10 -36.667 -20.333 -94.834 -31 -174.501s-21.667 -138.834 -33 -177.501c-8 -28 -28.667 -47 -62 -57c-31.333 -9.33301 -55.333 -6 -72 10c-12 12 -14.333 29.667 -7 53c11.333 40.667 22.166 100.667 32.499 180
s19.833 137 28.5 173c-93.333 3.33301 -203.666 12 -330.999 26c-24 2 -41.833 9.83301 -53.5 23.5s-15.834 28.834 -12.501 45.501z" />
    <glyph glyph-name="afii10017" unicode="&#x410;" horiz-adv-x="1130" 
d="M-59 -1c-4.66699 17.333 0.00195312 36.665 14.002 57.998c49.333 72 96.833 155.5 142.5 250.5l138 299.5c46.333 104.667 88.5 191 126.5 259l44.5 80.5l48.5 87l42.5 79.5c16.333 31.333 30.833 60.333 43.5 87c3.33301 7.33301 9.16602 19.5 17.499 36.5l20 41.5
c5 10.667 10.5 23.667 16.5 39s11 29.666 15 42.999v147c0 19.333 8.66699 35 26 47s37.333 19 60 21c18.667 10 36.167 12.333 52.5 7s24.833 -19.333 25.5 -42c2 -32.667 0 -65.334 -6 -98.001c1.33301 -84 8.5 -175.833 21.5 -275.5s25.833 -182.167 38.5 -247.5
s31.667 -156 57 -272c2 0 4.66699 -0.333008 8 -1s5.33301 -1 6 -1c21.333 -3.33301 36.5 -15.5 45.5 -36.5s10.833 -43.167 5.5 -66.5s-16 -40 -32 -50c42 -180 71.333 -347.333 88 -502c1.33301 -15.333 -3 -28.666 -13 -39.999s-22.667 -19 -38 -23
s-30.666 -5.66699 -45.999 -5s-29 5.33398 -41 14.001s-18.667 20.334 -20 35.001c-14.667 142 -45.334 319 -92.001 531c-134 4 -264.333 -7 -391 -33c-2.66699 -23.333 -13.667 -41 -33 -53c-14 -8 -29 -8.66699 -45 -2c-89.333 -185.333 -164 -323.333 -224 -414
c-20.667 -28 -46.334 -40 -77.001 -36c-24.667 2.66699 -39.667 14.334 -45 35.001zM383.002 632.999c134 18.667 246.666 27.333 337.999 26c-44 217.333 -72.667 369 -86 455c-35.333 -70.667 -83 -158.667 -143 -264c-41.333 -78.667 -77.666 -151 -108.999 -217z" />
    <glyph glyph-name="afii10018" unicode="&#x411;" horiz-adv-x="1107" 
d="M3.5 -5.5c-3.66699 13 -2.83691 25.166 2.49609 36.499c-0.666992 11.333 -0.666992 23 0 35s2.66699 26.167 6 42.5s5.5 27.5 6.5 33.5s4.33301 19.5 10 40.5s8.5 31.833 8.5 32.5c20 78 57.667 196 113 354l50.5 133l55 148c13 36.667 27.667 81.667 44 135
s28.833 104.166 37.5 152.499s13.667 95.833 15 142.5c-17.333 7.33301 -28.666 22.833 -33.999 46.5s-3.16602 46.5 6.50098 68.5s24.5 34.333 44.5 37h4c18.667 18.667 39.834 30 63.501 34s41.167 -2.66699 52.5 -20c255.333 34 458.333 51 609 51
c25.333 0 41.333 -13 48 -39s3 -52.167 -11 -78.5s-34 -39.833 -60 -40.5c-164 0 -356.333 -15.667 -577 -47c-7.33301 -120 -36.666 -256.333 -87.999 -409c190 14.667 341.333 -10.666 454 -75.999c78 -48 131.333 -113.667 160 -197s24 -168 -14 -254
c-63.333 -139.333 -203.333 -246.333 -420 -321c-174 -59.333 -336 -88 -486 -86c-35.333 -11.333 -61 -6.66602 -77 14.001c-12 8 -19.833 18.5 -23.5 31.5zM153.997 69.999c113.333 6 229.33 29 347.997 69c38 13.333 71.833 26.5 101.5 39.5s61.334 29.167 95.001 48.5
s63.334 41.833 89.001 67.5s46.5 53.834 62.5 84.501c21.333 40.667 32.5 83.167 33.5 127.5s-9.33301 86 -31 125s-53.167 68.167 -94.5 87.5c-97.333 47.333 -225.666 59.666 -384.999 36.999h-8c-25.333 -67.333 -41.333 -111.666 -48 -132.999
c-54 -144.667 -96.333 -265.667 -127 -363c-1.33301 -4.66699 -6 -22.5 -14 -53.5s-14.167 -57.833 -18.5 -80.5s-5.5 -41.334 -3.5 -56.001z" />
    <glyph glyph-name="afii10019" unicode="&#x412;" horiz-adv-x="1206" 
d="M3.5 -27.5c-5.66699 13 -4.16602 27.667 4.50098 44s21 30.5 37 42.5c0 14 0.666992 25 2 33c32.667 108 98.334 302 197.001 582c-10 21.333 -11.667 44.166 -5 68.499s20.667 39.5 42 45.5c71.333 217.333 121 402.333 149 555c-10.667 14 -17.667 30.167 -21 48.5
s-1.5 34.833 5.5 49.5s19.167 23 36.5 25c44 6.66699 80.167 11.834 108.5 15.501s64.5 6.5 108.5 8.5s82.333 1 115 -3s67.667 -12.167 105 -24.5s71 -28.833 101 -49.5c42.667 -30 79.834 -69.667 111.501 -119s52.167 -101.666 61.5 -156.999s1.66602 -108 -23.001 -158
c-46.667 -95.333 -139.667 -170.333 -279 -225c26 -12.667 48.667 -27.667 68 -45c47.333 -34 84.666 -76.5 111.999 -127.5s40.166 -105.833 38.499 -164.5s-20.5 -112.334 -56.5 -161.001c-49.333 -66.667 -114.333 -119.5 -195 -158.5s-172.667 -70.833 -276 -95.5
c-182.667 -41.333 -350.667 -58.333 -504 -51c-23.333 1.33301 -37.833 8.5 -43.5 21.5zM176.001 78c96.667 2 199.669 13.667 309.002 35c56 12 101.5 22.5 136.5 31.5s76.5 24.167 124.5 45.5s87.333 46 118 74c48 46 69 100.333 63 163s-35 115 -87 157
c-64.667 52 -138.667 84 -222 96c-82.667 -19.333 -166.334 -33 -251.001 -41c-96.667 -276 -160.334 -463 -191.001 -561zM422.003 803c96.667 14.667 174.334 31 233.001 49c53.333 15.333 95.166 28 125.499 38s67.333 26.5 111 49.5s78.167 48.5 103.5 76.5
c39.333 48 51 99.167 35 153.5s-52 94.5 -108 120.5c-36 17.333 -76.5 29.166 -121.5 35.499s-85.167 8.83301 -120.5 7.5s-77.666 -4.66602 -126.999 -9.99902c-30.667 -164 -74.334 -337.333 -131.001 -520z" />
    <glyph glyph-name="afii10020" unicode="&#x413;" horiz-adv-x="1021" 
d="M84 53c89.333 480 180.668 926.001 274.001 1338c6.66699 25.333 26.5 41.666 59.5 48.999s59.167 4 78.5 -10c41.333 0 91 2.83301 149 8.5s108.667 11.167 152 16.5s92.5 7.5 147.5 6.5s105.5 -6.83301 151.5 -17.5c22.667 -4.66699 37.834 -21.167 45.501 -49.5
s5 -54.333 -8 -78s-32.5 -32.5 -58.5 -26.5c-44.667 10 -93.667 15.167 -147 15.5s-101.333 -2.5 -144 -8.5s-92.334 -12 -149.001 -18s-105.334 -9 -146.001 -9c-78.667 -356 -161.667 -765.667 -249 -1229c-5.33301 -23.333 -22.166 -39.333 -50.499 -48
s-54.333 -7.16699 -78 4.5s-32.834 30.167 -27.501 55.5z" />
    <glyph glyph-name="afii10021" unicode="&#x414;" horiz-adv-x="1259" 
d="M-164 -324c0.666992 48.667 11.0088 118.995 31.0088 210.995s31 159.667 33 203c0 17.333 7.33301 35.333 22 54s32.167 31 52.5 37s41.166 1 62.499 -15c9.33301 -0.666992 22.333 -1.5 39 -2.5s31.834 -1.83301 45.501 -2.5s26.5 -1 38.5 -1
c15.333 9.33301 29 22.333 41 39c27.333 36.667 52.333 79 75 127c55.333 114 104.666 236.667 147.999 368c40.667 138.667 74.667 263.667 102 375c1.33301 6.66699 4.33301 19.667 9 39l10.5 44.5c2.33301 10.333 4.66602 23.833 6.99902 40.5s3.83301 32 4.5 46
c1.33301 7.33301 2.66602 10.666 3.99902 9.99902c0 16.667 2 29 6 37h-12c-30 0 -46 14 -48 42c-2.66699 28 7.33301 54 30 78c16.667 16.667 34.334 25.334 53.001 26.001h520c19.333 0 33.166 -7.16699 41.499 -21.5s11.5 -31.166 9.5 -50.499
c-16 -100.667 -42.5 -223.5 -79.5 -368.5s-70.333 -284.5 -100 -418.5s-48.167 -258 -55.5 -372c92 -2 173 -11.667 243 -29c21.333 -5.33301 35.333 -18.5 42 -39.5s7 -43.167 1 -66.5c-6.66699 -26 -18.334 -62 -35.001 -108s-29.834 -87.833 -39.501 -125.5
s-14.834 -74.834 -15.501 -111.501c-0.666992 -36 -14 -57.667 -40 -65c-22.667 -6 -42.334 1 -59.001 21c-12.667 16 -18.334 36.333 -17.001 61c0 16.667 1.33301 34.167 4 52.5s5 33.333 7 45s6.5 29.334 13.5 53.001l13 44c1.66699 5.66699 7.16699 22.834 16.5 51.501
s14.333 43.667 15 45c-30.667 13.333 -95.334 19 -194.001 17s-198.5 -7.5 -299.5 -16.5s-199.167 -16.833 -294.5 -23.5s-154.666 -8 -177.999 -4h-7c-16.667 0 -41.667 1.33301 -75 4c-2.66699 -13.333 -9 -42.166 -19 -86.499s-17.167 -81.666 -21.5 -111.999
s-6.5 -60.5 -6.5 -90.5c0 -26.667 -15.667 -49.667 -47 -69c-30.667 -19.333 -56.334 -23.666 -77.001 -12.999c-13.333 7.33301 -20 21 -20 41zM322.009 163.995c48.667 2.66699 125.83 9.00098 231.497 19.001s186.167 16 241.5 18c8.66699 108 26.334 224 53.001 348
s57.5 255.333 92.5 394s60.833 253 77.5 343h-332c0.666992 -18 1.16699 -32 1.5 -42s-1.5 -24.667 -5.5 -44s-7.16699 -33.833 -9.5 -43.5s-6.16602 -23.167 -11.499 -40.5s-8.66602 -29 -9.99902 -35c-33.333 -152.667 -74.333 -300.667 -123 -444
c-64.667 -193.333 -124.667 -337.333 -180 -432c-5.33301 -6.66699 -14 -20.334 -26 -41.001zM561.005 1245c1.33301 -1.33301 2 -2.66895 2 -4.00195c0 0.666992 -0.333008 1.33398 -1 2.00098s-1 1.33398 -1 2.00098z" />
    <glyph glyph-name="afii10022" unicode="&#x415;" horiz-adv-x="1069" 
d="M86 94c31.333 110 74.834 300.665 130.501 571.998s107.167 477.333 154.5 618c-8.66699 25.333 -5.33398 52.333 9.99902 81s37 42.667 65 42c46 -2.66699 101 -1 165 5s120.333 12.333 169 19s103.334 8.66699 164.001 6s116 -12.667 166 -30
c22.667 -8.66699 35.667 -27.5 39 -56.5s-2.5 -54.667 -17.5 -77s-33.833 -29.833 -56.5 -22.5c-56.667 20.667 -115.167 31.667 -175.5 33s-134.333 -3.33398 -222 -14.001s-148.167 -17 -181.5 -19c-44 -123.333 -84.333 -265.333 -121 -426
c23.333 0.666992 106.666 6.83398 249.999 18.501s253 15.167 329 10.5c26.667 -2 44.167 -16.167 52.5 -42.5s6.16602 -52.166 -6.50098 -77.499s-30.667 -37.333 -54 -36c-78.667 4.66699 -189.834 1.5 -333.501 -9.5s-233.167 -17.167 -268.5 -18.5l-35 -171l-46 -218.5
c-12.667 -57.667 -26 -114.167 -40 -169.5c54.667 2 140.834 10.167 258.501 24.5s207.167 21.833 268.5 22.5c33.333 0 58 -13.333 74 -40c14 -23.333 13.333 -43.666 -2 -60.999c-10.667 -12 -28 -18 -52 -18c-64.667 -1.33301 -160.167 -9.83301 -286.5 -25.5
s-220.5 -24.167 -282.5 -25.5c-0.666992 0 -11 2 -31 6c-22 -10 -43.667 -3.33301 -65 20s-27.666 50 -18.999 80z" />
    <glyph glyph-name="afii10024" unicode="&#x416;" horiz-adv-x="1474" 
d="M-78 90c16.667 44.667 42.5 91.3291 77.5 139.996s68.167 89.167 99.5 121.5s70 70.166 116 113.499c64 61.333 122.833 112.833 176.5 154.5s110.167 74.834 169.5 99.501c-81.333 85.333 -151.166 185 -209.499 299s-101.166 230 -128.499 348
c-4.66699 24 5.33301 41.5 30 52.5s51.167 12.333 79.5 4s45.166 -24.5 50.499 -48.5c23.333 -106.667 62.666 -213.334 117.999 -320.001s121 -198 197 -274c44.667 256.667 91.334 454 140.001 592c6 16.667 17.833 28.167 35.5 34.5s33.167 3.83301 46.5 -7.5
c30 -23.333 36.667 -59.666 20 -108.999c-45.333 -130.667 -89 -310.667 -131 -540c93.333 47.333 189 121 287 221c134 138.667 229.333 264.334 286 377.001c12.667 28.667 35 44.334 67 47.001c28 2.66699 47.667 -5.66602 59 -24.999
c8.66699 -16 7.66699 -35.667 -3 -59c-65.333 -136.667 -173.666 -278 -324.999 -424c-89.333 -86.667 -166 -151 -230 -193c76.667 -23.333 134.667 -63.666 174 -120.999c30 -42 58 -90.5 84 -145.5s52.5 -116.333 79.5 -184s49.167 -119.5 66.5 -155.5
c13.333 -28.667 6.33301 -57 -21 -85c-24 -24 -48.333 -34.333 -73 -31c-16 2 -27.667 10.667 -35 26c-10.667 22 -39.5 89.5 -86.5 202.5s-87.833 196.5 -122.5 250.5c-50 79.333 -128 122.333 -234 129c-40.667 -257.333 -75.334 -441.666 -104.001 -552.999
c-9.33301 -35.333 -27.333 -52.666 -54 -51.999c-22.667 0 -40.667 11.667 -54 35c-10.667 19.333 -13 40.666 -7 63.999c34.667 126 69 299.333 103 520c-6 6 -9 13.333 -9 22c-30.667 -10.667 -61 -25 -91 -43s-61.5 -41.333 -94.5 -70s-57.667 -50.834 -74 -66.501
l-75.5 -74.5l-32.5 -31.5l-37.5 -36.5l-33.5 -34.5c-17.667 -18.333 -29.834 -31.5 -36.501 -39.5l-30.5 -37.5c-13.667 -17 -24 -31.333 -31 -43s-14.667 -25.167 -23 -40.5s-14.833 -30 -19.5 -44c-9.33301 -22.667 -28.5 -35.667 -57.5 -39s-54.667 2.5 -77 17.5
s-29.5 33.833 -21.5 56.5z" />
    <glyph glyph-name="afii10025" unicode="&#x417;" horiz-adv-x="952" 
d="M-76.5 98c7 22.667 23.834 41.335 50.501 56.002s50.334 15.334 71.001 2.00098c52.667 -36 118.834 -55 198.501 -57s156.167 13.167 229.5 45.5s125.333 77.166 156 134.499c35.333 72.667 42.5 138.5 21.5 197.5s-61 106.833 -120 143.5s-123.167 54.667 -192.5 54
c-27.333 -10 -52 -17 -74 -21c-29.333 -8.66699 -49.666 2.33301 -60.999 33c-10.667 29.333 -9 58.333 5 87c8.66699 18 21.334 29.333 38.001 34c58.667 15.333 106.667 29 144 41s82.833 28.833 136.5 50.5s100.667 47 141 76s73.833 61.833 100.5 98.5
c20 30.667 26.667 61.834 20 93.501s-21.834 60.667 -45.501 87s-50.5 45.5 -80.5 57.5c-20.667 8.66699 -43.167 14.667 -67.5 18s-45.833 5.16602 -64.5 5.49902s-42.5 -2 -71.5 -7s-50.833 -9 -65.5 -12s-38.334 -8.66699 -71.001 -17l-64 -16.5
c-29.333 -7.33301 -49.333 4.66699 -60 36c-10.667 30 -8.66699 58.667 6 86c10 17.333 23.333 28 40 32c110 27.333 185 43.666 225 48.999c119.333 14.667 215.666 -4.66602 288.999 -57.999c59.333 -42 103.166 -97.5 131.499 -166.5s30.166 -136.167 5.49902 -201.5
c-42.667 -118.667 -143.667 -216.334 -303 -293.001c45.333 -22 81.333 -47.333 108 -76c58 -58.667 90.667 -131.834 98 -219.501s-11 -166.834 -55 -237.501c-37.333 -61.333 -88.833 -114.333 -154.5 -159s-135.5 -76.5 -209.5 -95.5s-150.5 -23.833 -229.5 -14.5
s-149.167 34.333 -210.5 75c-17.333 16.667 -22.5 36.334 -15.5 59.001z" />
    <glyph glyph-name="afii10026" unicode="&#x418;" horiz-adv-x="1374" 
d="M86 135c24 76 45.998 152.83 65.998 230.497s39 166.834 57 267.501l40 226c8.66699 50 22.667 140 42 270l35 237c4.66699 28 24.334 49 59.001 63c33.333 13.333 60 13.666 80 0.999023c13.333 -8.66699 18.666 -22.334 15.999 -41.001l-38 -253.5
c-20.667 -138.333 -35.667 -235.666 -45 -291.999s-23.833 -135.333 -43.5 -237s-39.5 -193.167 -59.5 -274.5c328.667 416.667 614.667 749.667 858 999c14 15.333 29.333 26 46 32s34.667 5 54 -3l2 -2c26 -2 46.833 -10.333 62.5 -25s18.834 -33 9.50098 -55
c-13.333 -31.333 -25.833 -65.333 -37.5 -102s-21 -67.667 -28 -93s-15 -61.666 -24 -108.999l-18 -96c-3 -16.667 -9 -53.667 -18 -111l-15.5 -99c-2 -12.667 -6.5 -39.667 -13.5 -81l-14.5 -85.5l-14 -79.5c-6.66699 -37.333 -12.167 -65.833 -16.5 -85.5l-17 -79
c-7 -33 -13.667 -61.167 -20 -84.5l-22 -77.5c-8.33301 -28.333 -17.166 -55.5 -26.499 -81.5c-7.33301 -22.667 -25.333 -36 -54 -40s-54 1.83301 -76 17.5s-28.333 36.167 -19 61.5c17.333 50.667 33.666 108 48.999 172s26.5 114.667 33.5 152s17.5 98.833 31.5 184.5
s23 139.5 27 161.5c36 202 61.333 331.667 76 389l-160.5 -177.5l-146 -169l-156.5 -189l-140.5 -173.5l-152 -191l-141.5 -177c-21.333 -27.333 -47.333 -38.666 -78 -33.999c-24.667 4 -39.667 16.333 -45 37c-3.33301 13.333 -0.666016 28 8.00098 44
c-12.667 12.667 -16.667 30.334 -12 53.001z" />
    <glyph glyph-name="afii10027" unicode="&#x419;" horiz-adv-x="1363" 
d="M84 82c11.333 96 30.4941 204.331 57.4941 324.998s53.167 228.667 78.5 324s50 203 74 323s40 230 48 330c2.66699 32 18 55 46 69c25.333 13.333 46.333 11.666 63 -5.00098c11.333 -11.333 16 -29 14 -53c-10 -110 -28.167 -226.833 -54.5 -350.5
s-57.666 -257 -93.999 -400s-63.166 -258.167 -80.499 -345.5l401 477l148 176.5l184.5 216.5c53 60 105.833 116 158.5 168c16 14 37.333 21 64 21c7.33301 28.667 26 49.334 56 62.001c28 12 49 9.66699 63 -7c10 -11.333 13.333 -27.666 10 -48.999l-26 -164.5
c-9.33301 -57 -18.166 -108.333 -26.499 -154l-31.5 -166.5l-30.5 -154l-35 -166l-33 -153.5l-36.5 -166.5c-18 -82 -29.667 -134.333 -35 -157c-3.33301 -19.333 -11.666 -37 -24.999 -53s-29.666 -24.333 -48.999 -25c-18 -2.66699 -32.5 3.16602 -43.5 17.499
s-14.833 30.5 -11.5 48.5c108.667 487.333 183.667 857.333 225 1110l-128.5 -145l-157.5 -189.5l-123 -149.5l-160 -189l-197.5 -234.5l-154.5 -192.5c-10.667 -15.333 -28.667 -25.666 -54 -30.999c-11.333 -16.667 -26.166 -27.667 -44.499 -33
s-33.833 -2.16602 -46.5 9.50098s-17 30.5 -13 56.5zM607.994 1716c-4.66699 27.333 8.66992 51.335 40.0029 72.002c30 20 56.667 25.333 80 16c15.333 -6 24.666 -18.333 27.999 -37c7.33301 -41.333 26.666 -68.5 57.999 -81.5s66.833 -14.167 106.5 -3.5
s77.667 25.167 114 43.5s66.166 37.166 89.499 56.499c28 21.333 57.333 26.333 88 15c24.667 -8.66699 37 -23.667 37 -45c0 -16.667 -10 -33.334 -30 -50.001c-30.667 -25.333 -68.667 -50 -114 -74s-95 -43.5 -149 -58.5s-104.833 -22.667 -152.5 -23
s-89.667 13.5 -126 41.5s-59.5 70.667 -69.5 128z" />
    <glyph glyph-name="afii10028" unicode="&#x41a;" horiz-adv-x="1095" 
d="M88 70c78.667 236.667 138.661 458.167 179.994 664.5s59.333 410.166 54 611.499c0 49.333 17.667 81.333 53 96c16.667 7.33301 33.334 7.5 50.001 0.5s25.334 -19.5 26.001 -37.5c5.33301 -182.667 -9 -380 -43 -592c103.333 27.333 209 104.333 317 231
c109.333 125.333 175 234.666 197 327.999c7.33301 28 26 48.667 56 62c29.333 12 51.333 10.333 66 -5c11.333 -12 13.666 -30.333 6.99902 -55c-31.333 -132 -117.333 -276 -258 -432c-72 -79.333 -138.333 -138.666 -199 -177.999c22 -11.333 43.667 -27.166 65 -47.499
s41.333 -44.666 60 -72.999s33.334 -51.833 44.001 -70.5l38 -69c106.667 -196 178.334 -364 215.001 -504c6 -24.667 -2.5 -44.834 -25.5 -60.501s-48.667 -21.334 -77 -17.001s-45.5 18.5 -51.5 42.5c-24.667 96 -77 225.667 -157 389
c-47.333 94 -88.333 166.333 -123 217c-21.333 32.667 -40.666 56 -57.999 70c-1.33301 0.666992 -3.66602 3 -6.99902 7s-5.66602 6.33301 -6.99902 7c-33.333 -2 -60 5.66699 -80 23c-10.667 -2.66699 -20.334 -4 -29.001 -4c-5.33301 -2.66699 -13.333 -4 -24 -4
c-33.333 -172 -89.333 -377.667 -168 -617c-9.33301 -30.667 -28.666 -50 -57.999 -58c-27.333 -7.33301 -47.333 -2 -60 16c-10 14.667 -11 34.334 -3 59.001z" />
    <glyph glyph-name="afii10029" unicode="&#x41b;" horiz-adv-x="1361" 
d="M-81.5 120c1 28 12.4941 51.333 34.4941 70c14 10.667 28.333 13.667 43 9s25.667 -14.334 33 -29.001c74 6.66699 142 51.667 204 135c72 86.667 140.333 206.334 205 359.001c60.667 146.667 105.667 281 135 403c28.667 133.333 40.334 230.333 35.001 291v22
c-16 23.333 -9.66699 44 19 62c27.333 18 56.666 23.333 87.999 16c13.333 -3.33301 24.333 -9.33301 33 -18c12.667 -12.667 28.167 -21.334 46.5 -26.001s38.833 -5.5 61.5 -2.5s42.834 6.5 60.501 10.5s38.834 9.83301 63.501 17.5s41.334 12.5 50.001 14.5
c38 8 70.667 13.833 98 17.5s58.666 5 93.999 4s68.333 -6.16699 99 -15.5c18 -6 30.333 -17.333 37 -34s5.33398 -32.667 -3.99902 -48c-52 -95.333 -98.5 -203.833 -139.5 -325.5s-72.5 -232.667 -94.5 -333l-80 -350.5c-31.333 -133.333 -61.333 -245.333 -90 -336
c-8.66699 -26 -31.334 -40.667 -68.001 -44c-35.333 -4 -61.666 3.66699 -78.999 23c-11.333 12.667 -14 28.334 -8 47.001c28.667 89.333 58.334 197.666 89.001 324.999l79 337c22 97.333 51.833 204.833 89.5 322.5s79.5 223.167 125.5 316.5
c-34.667 0 -85 -8.5 -151 -25.5s-107.333 -26.833 -124 -29.5c-60 -12.667 -118.667 -12 -176 2c1.33301 -36.667 -1.16699 -77.834 -7.5 -123.501s-12.833 -82.834 -19.5 -111.501s-16.667 -68 -30 -118c-55.333 -198.667 -119.666 -368.667 -192.999 -510
c-22.667 -43.333 -42.167 -79.166 -58.5 -107.499s-37.166 -61.166 -62.499 -98.499s-52.333 -70.166 -81 -98.499s-59 -52.166 -91 -71.499c-62.667 -42.667 -120 -61.334 -172 -56.001c-28 2 -50.833 13.5 -68.5 34.5s-26 45.5 -25 73.5z" />
    <glyph glyph-name="afii10030" unicode="&#x41c;" horiz-adv-x="1607" 
d="M84 76c12 94 32.499 226.503 61.499 397.503s52.333 327 70 468s27.167 274.833 28.5 401.5c0 19.333 8.83301 37 26.5 53s36.5 25 56.5 27s36.667 -2.66699 50 -14c10.667 2 20.5 0.833008 29.5 -3.5s14.833 -11.5 17.5 -21.5c28 -73.333 82.167 -195.5 162.5 -366.5
s136.166 -304.833 167.499 -401.5c60 68.667 129.667 156.5 209 263.5l233 306c76 97 150.333 181.833 223 254.5c14.667 14 34.834 21.833 60.501 23.5s47.5 -4.5 65.5 -18.5s24 -33.667 18 -59l-102.5 -428c-44.333 -190 -85.666 -359.667 -123.999 -509
s-79.166 -290 -122.499 -422c-4.66699 -14 -13.834 -24.667 -27.501 -32s-28.5 -10.5 -44.5 -9.5s-31 4.33301 -45 10s-24.667 15 -32 28s-8.66602 27.167 -3.99902 42.5c22.667 66 44.167 133.167 64.5 201.5s41.166 144.166 62.499 227.499l49.5 198.5l53.5 231l48 208.5
l-166 -218l-193.5 -254c-60.333 -76.667 -119.833 -146 -178.5 -208c0 -9.33301 -2.33301 -18.333 -7 -27s-11 -16.334 -19 -23.001s-16.667 -12.5 -26 -17.5s-19.166 -8.16699 -29.499 -9.5s-19.833 -1.16602 -28.5 0.500977s-16.5 6 -23.5 13s-11.833 15.833 -14.5 26.5
c0 0.666992 -0.666992 2.5 -2 5.5s-2 5.16699 -2 6.5c-23.333 16.667 -28 35 -14 55c-12 41.333 -25.5 82.666 -40.5 123.999s-32.667 85.333 -53 132l-51 115.5l-60 129.5l-55.5 118c-10.667 -123.333 -34.667 -297.5 -72 -522.5s-61.333 -381.833 -72 -470.5
c-4.66699 -28 -23.667 -50.667 -57 -68c-32.667 -16.667 -58.334 -18.334 -77.001 -5.00098c-10.667 8 -15 21.333 -13 40z" />
    <glyph glyph-name="afii10031" unicode="&#x41d;" horiz-adv-x="1327" 
d="M84 59c6.66699 64.667 16.3301 129.668 28.9971 195.001s31 149.666 55 252.999l45 195c4 20 14.833 68.333 32.5 145s30 132.667 37 168s14.333 82.833 22 142.5s11.167 113.5 10.5 161.5c-1.33301 28 13.334 52 44.001 72c28.667 18.667 53.667 23 75 13
c14.667 -7.33301 22.334 -22 23.001 -44c1.33301 -61.333 -3.16699 -129.5 -13.5 -204.5s-20.666 -135.667 -30.999 -182s-26.166 -113.5 -47.499 -201.5c52 -7.33301 109.5 -11.666 172.5 -12.999s119.167 -0.833008 168.5 1.5l174.5 8.5c67 3.33301 123.167 5 168.5 5h12
c47.333 212 72.666 398.333 75.999 559c0 24 12.5 43.5 37.5 58.5s49.833 19.167 74.5 12.5s37 -24 37 -52c-1.33301 -103.333 -12.166 -215 -32.499 -335s-43.166 -227.167 -68.499 -321.5s-53 -203.5 -83 -327.5s-52 -232.333 -66 -325
c-3.33301 -25.333 -21.333 -45 -54 -59s-59 -14.667 -79 -2c-14 9.33301 -19.333 24.333 -16 45c22 134.667 68.333 335.334 139 602.001c-46 -0.666992 -103.333 -2.83398 -172 -6.50098s-128.167 -7 -178.5 -10s-107 -3.83301 -170 -2.5s-120.833 5.66602 -173.5 12.999
c-2 -8 -6.66699 -28 -14 -60s-12.333 -53.333 -15 -64s-7.33398 -30.5 -14.001 -59.5s-11.334 -50.5 -14.001 -64.5l-12 -60c-5.33301 -26 -9.5 -47.5 -12.5 -64.5l-10.5 -60c-4 -23 -7.33301 -44.833 -10 -65.5s-5 -41.334 -7 -62.001
c-2.66699 -27.333 -19 -47.5 -49 -60.5s-54.333 -11.833 -73 3.5c-14 10.667 -19.667 28.334 -17 53.001z" />
    <glyph glyph-name="afii10032" unicode="&#x41e;" horiz-adv-x="1273" 
d="M84 506c-8.66699 224.667 22.667 432.668 94 624.001c83.333 206.667 188.666 314 315.999 322c21.333 2 34.666 -6 39.999 -24s3.33301 -37.333 -6 -58c106 84.667 216.667 129.667 332 135c82.667 2 153.834 -21.5 213.501 -70.5s101.167 -114.167 124.5 -195.5
c29.333 -97.333 39.666 -200.333 30.999 -309s-30.667 -214.167 -66 -316.5s-84 -198.833 -146 -289.5s-132 -166.667 -210 -228c-39.333 -32 -80.666 -59.667 -123.999 -83s-89.5 -42.5 -138.5 -57.5s-98.167 -18.333 -147.5 -10s-93.666 29.166 -132.999 62.499
c-111.333 92.667 -171.333 258.667 -180 498zM223.001 801.001c-33.333 -242.667 -14.667 -431.999 56 -567.999c26.667 -53.333 61.667 -90.666 105 -111.999s88.833 -28.166 136.5 -20.499s97.5 26.834 149.5 57.501c94 54 176.833 132.167 248.5 234.5
s123.5 214.166 155.5 335.499s39.333 236.333 22 345c-32 184 -112.667 277.667 -242 281c-68.667 0.666992 -135.167 -17.333 -199.5 -54s-120.833 -84.334 -169.5 -143.001c-21.333 -24.667 -43 -33.667 -65 -27s-34.833 21.667 -38.5 45s2.83301 46.666 19.5 69.999
c18 22.667 34.667 41 50 55c-22.667 -5.33301 -46 -21 -70 -47c-23.333 -26.667 -45.333 -61.334 -66 -104.001c-46 -102 -76.667 -218 -92 -348z" />
    <glyph glyph-name="afii10033" unicode="&#x41f;" horiz-adv-x="1384" 
d="M84 98c42.667 447.333 122 851 238 1211c-12 14 -17 31 -15 51c2 24.667 17.667 38.334 47 41.001c7.33301 14.667 18.166 24.667 32.499 30s28.833 4 43.5 -4c13.333 -7.33301 22.333 -19.333 27 -36c24 -3.33301 52 -5 84 -5c12.667 0.666992 50 2 112 4
s109.333 4.33301 142 7c200.667 5.33301 350 17 448 35c30.667 6 57.334 -3.33301 80.001 -28c20.667 -22.667 25.667 -44 15 -64c-7.33301 -14.667 -22.666 -24.334 -45.999 -29.001c-2.66699 0 -6.83398 -0.333008 -12.501 -1s-10.167 -1 -13.5 -1l4 -4
c7.33301 -99.333 2.33301 -207.666 -15 -324.999s-38.833 -222.666 -64.5 -315.999s-53.167 -200.833 -82.5 -322.5s-49.666 -227.167 -60.999 -316.5c-3.33301 -24 -18.5 -40.833 -45.5 -50.5s-52.833 -8.83398 -77.5 2.49902s-35 30 -31 56
c10.667 88 30.5 191.167 59.5 309.5s56.167 223.166 81.5 314.499s46.5 194.166 63.5 308.499s21.833 219.833 14.5 316.5v6c-65.333 -6 -199.666 -12 -402.999 -18c-5.33301 0 -27.5 -1.16699 -66.5 -3.5s-73 -3.66602 -102 -3.99902s-65.167 1.5 -108.5 5.5
c-112 -336 -187.667 -719 -227 -1149c-1.33301 -22 -7 -41.5 -17 -58.5s-24.333 -26.833 -43 -29.5c-16.667 -2.66699 -31.334 3.5 -44.001 18.5s-18.334 31.167 -17.001 48.5z" />
    <glyph glyph-name="afii10034" unicode="&#x420;" horiz-adv-x="1189" 
d="M84 8c3.33301 24.667 7.16602 48.833 11.499 72.5s9.66602 49.834 15.999 78.501l15 69c3.66699 17.333 10.167 43 19.5 77l18.5 67.5l21 77c11 40.333 17.5 63.833 19.5 70.5c-20 7.33301 -45.333 20.333 -76 39c-16 12 -23.167 26.833 -21.5 44.5
s9.5 30.834 23.5 39.501c32.667 23.333 69 22.666 109 -2.00098c5.33301 20.667 13.833 51 25.5 91l27.5 96l24.5 92c9.66699 37.333 16.834 70.166 21.501 98.499s9 59.333 13 93s5.66699 66.667 5 99s-3 63.833 -7 94.5c-10 11.333 -16 23.5 -18 36.5
s1.83301 25.167 11.5 36.5s24.834 19 45.501 23c62.667 11.333 113.334 19.833 152.001 25.5s87.167 10.334 145.5 14.001s112.166 1.16699 161.499 -7.5s95 -23.334 137 -44.001c86 -42.667 146.5 -111 181.5 -205s31.167 -184.333 -11.5 -271
c-44 -86 -109.5 -160.333 -196.5 -223s-183.167 -112.334 -288.5 -149.001c-129.333 -39.333 -240.666 -55.666 -333.999 -48.999c-59.333 -200 -96.333 -358 -111 -474c-4.66699 -28 -22.334 -48.667 -53.001 -62s-55 -12.333 -73 3c-12.667 10 -17.667 26.333 -15 49z
M369 601.999c78 -1.33301 170.001 20.6689 276.001 66.002c185.333 75.333 305 169.333 359 282c15.333 32.667 23.5 67.834 24.5 105.501s-4.16699 73.167 -15.5 106.5s-30.166 63.166 -56.499 89.499s-57.833 44.166 -94.5 53.499c-86 21.333 -206.667 19 -362 -7
c2 -44.667 1.16699 -90.5 -2.5 -137.5s-11.167 -96.667 -22.5 -149s-21.333 -96.333 -30 -132s-21.834 -84.334 -39.501 -146.001s-29.834 -105.5 -36.501 -131.5z" />
    <glyph glyph-name="afii10035" unicode="&#x421;" horiz-adv-x="1087" 
d="M84 702c6.66699 257.333 105.001 457.668 295.001 601.001c73.333 55.333 148.666 97.166 225.999 125.499s159.333 40.166 246 35.499s169 -29.667 247 -75c31.333 -18 38.333 -39 21 -63c-14.667 -22 -38 -35 -70 -39c-20.667 -2.66699 -38.667 0.333008 -54 9
c-63.333 37.333 -129.166 54.333 -197.499 51s-132.5 -19.5 -192.5 -48.5s-115.667 -68.5 -167 -118.5c-136.667 -132.667 -202 -300 -196 -502c8 -220.667 67.333 -384 178 -490c118 -112.667 264 -112.667 438 0c28.667 17.333 58.334 17.666 89.001 0.999023
c26 -14 37.667 -31.667 35 -53c-2 -15.333 -12.667 -29.333 -32 -42c-68.667 -44 -138.834 -75.667 -210.501 -95s-145.5 -22.166 -221.5 -8.49902s-143.667 46.834 -203 99.501c-80 71.333 -139.333 162 -178 272s-56.334 223.333 -53.001 340z" />
    <glyph glyph-name="afii10036" unicode="&#x422;" horiz-adv-x="1091" 
d="M84 1325c-0.666992 15.333 0.833008 30.6689 4.5 46.002s11.167 28 22.5 38s24.333 14.667 39 14c94 -4 263.167 -1.83301 507.5 6.5s413.5 6.16602 507.5 -6.50098c14.667 -1.33301 26.334 -7.66602 35.001 -18.999s13.334 -24.833 14.001 -40.5
s-1.16602 -31.167 -5.49902 -46.5s-12.166 -28 -23.499 -38s-24.666 -14.333 -39.999 -13c-118.667 12 -257.334 14.667 -416.001 8c0 -12.667 -2 -23 -6 -31l4 6c-0.666992 -0.666992 -2 -4.66699 -4 -12c-2.66699 -10.667 -4 -16.667 -4 -18c-6 -14 -10 -30 -12 -48
c-16.667 -59.333 -27.667 -105 -33 -137c-30 -136.667 -56 -260 -78 -370c-6 -26 -24.667 -115 -56 -267s-57 -268 -77 -348c-9.33301 -36.667 -27.333 -54.667 -54 -54c-22 0.666992 -39.333 13 -52 37c-10 18.667 -12.333 39.334 -7 62.001
c20 83.333 46.333 204.5 79 363.5s52.667 254.833 60 287.5c5.33301 25.333 15.666 79 30.999 161s29.166 150.667 41.499 206s26.5 108.666 42.5 159.999c-208 -8 -365 -10 -471 -6c-14.667 1.33301 -26.334 7.66602 -35.001 18.999s-13.334 24.666 -14.001 39.999z" />
    <glyph glyph-name="afii10037" unicode="&#x423;" horiz-adv-x="1069" 
d="M5 95c8.66699 23.333 26.3389 40.002 53.0059 50.002c21.333 8.66699 41 8.66699 59 0c19.333 -8 39 -12 59 -12s38.167 3 54.5 9s33.5 15.333 51.5 28s33.333 24.667 46 36s27 25.333 43 42c34 35.333 71.333 81.666 112 138.999
c-1.33301 1.33301 -3.16602 3.5 -5.49902 6.5s-3.83301 4.83301 -4.5 5.5c-15.333 24 -30 50.667 -44 80s-25.667 55.666 -35 78.999s-19.833 53.333 -31.5 90s-20 64.334 -25 83.001l-24.5 91c-11.333 42 -18.666 69.667 -21.999 83
c-9.33301 33.333 -21.333 81.166 -36 143.499s-28.834 118.5 -42.501 168.5s-28.5 96.333 -44.5 139c-9.33301 26 -3.33301 47.167 18 63.5s46.333 22.5 75 18.5s47.334 -17.667 56.001 -41c22.667 -58.667 48 -144.834 76 -258.501s45.667 -183.167 53 -208.5
c1.33301 -4 5.66602 -20.333 12.999 -49s12 -46.5 14 -53.5l13.5 -48.5c7 -25.333 12.167 -43.333 15.5 -54l15 -48.5c6.66699 -21.667 12.667 -39.334 18 -53.001l18.5 -46.5c7 -17.333 14.167 -33.666 21.5 -48.999c29.333 48.667 48.666 83 57.999 103
c70.667 124.667 145.667 273.334 225 446.001c72 153.333 122 253 150 299c14.667 25.333 40 38 76 38c31.333 0 52 -10 62 -30c8 -14 5.66699 -31 -7 -51c-15.333 -26.667 -31.333 -56.167 -48 -88.5s-30.5 -60.333 -41.5 -84l-42.5 -93l-40 -86.5
c-97.333 -204 -181.333 -365.667 -252 -485l-54.5 -86l-63 -92.5c-26.333 -37.667 -51.333 -69.5 -75 -95.5s-50.834 -54.167 -81.501 -84.5s-61.334 -54.333 -92.001 -72s-62.834 -32.667 -96.501 -45s-68.834 -17.5 -105.501 -15.5s-73.334 10.667 -110.001 26
c-32.667 14 -43.334 35.333 -32.001 64z" />
    <glyph glyph-name="afii10038" unicode="&#x424;" horiz-adv-x="1507" 
d="M90 739c13.333 88.667 40.666 172.332 81.999 250.999s92.5 146.667 153.5 204s133 100.666 216 129.999s169.5 39.333 259.5 30c16.667 60 34.334 107 53.001 141c14 26.667 40.667 37.334 80 32.001c33.333 -4.66699 56.666 -17.667 69.999 -39
c8.66699 -13.333 9.33398 -27.333 2.00098 -42c-8 -14 -19 -36.667 -33 -68c155.333 26.667 277.333 -8.66602 366 -105.999c96 -108 137 -252.667 123 -434c-7.33301 -88.667 -29.333 -174.5 -66 -257.5s-85.667 -155.833 -147 -218.5
c-136.667 -132.667 -309.334 -194.667 -518.001 -186l-35 -190c-4.66699 -24 -20.334 -37 -47.001 -39s-51.5 6 -74.5 24s-32.167 39.333 -27.5 64c2.66699 16.667 7.33398 43 14.001 79s11.334 63.667 14.001 83c-172.667 -22.667 -300 15.333 -382 114
c-48 55.333 -79.833 120.5 -95.5 195.5s-18.167 152.5 -7.5 232.5zM240 742.998c-8 -61.333 -6.83008 -122.001 3.50293 -182.001s32.166 -110.333 65.499 -151c66.667 -77.333 163.667 -106.666 291 -87.999c19.333 126.667 44.666 278.667 75.999 456
c41.333 214 72 362.333 92 445v8h-23c-68 8.66699 -132.167 0.166992 -192.5 -25.5s-111.5 -62.5 -153.5 -110.5s-76.833 -102.5 -104.5 -163.5s-45.834 -123.833 -54.501 -188.5zM758.003 331.997c102 -4 196 15.166 282 57.499s155.833 103.5 209.5 183.5
s84.167 171 91.5 273c5.33301 58.667 0.5 115.834 -14.5 171.501s-40.833 101.5 -77.5 137.5c-76 76 -183 93.667 -321 53l-7 -23.5c-3.33301 -11 -5.33301 -19.5 -6 -25.5c-24.667 -108 -54 -251.333 -88 -430z" />
    <glyph glyph-name="afii10039" unicode="&#x425;" horiz-adv-x="1089" 
d="M-76 29c-13.333 36.667 -0.333984 72 38.999 106c92 73.333 178.833 155 260.5 245s168.167 194.667 259.5 314v2c-118 250 -177.333 375.667 -178 377c-36.667 72 -57 111 -61 117c-7.33301 14.667 -15.666 27.667 -24.999 39l-6 6
c-13.333 10.667 -20.333 24.334 -21 41.001s6.33301 30.334 21 41.001c20 12 39.333 17.833 58 17.5s34 -3.83301 46 -10.5s24.833 -18.834 38.5 -36.501s23.5 -32 29.5 -43s14.333 -27.167 25 -48.5c36 -64.667 95.333 -186.334 178 -365.001
c5.33301 6.66699 22 29.167 50 67.5s45.833 62.333 53.5 72l49.5 65.5c25.333 34 43.5 57.833 54.5 71.5l50.5 64.5c22.667 29.333 41.334 52.666 56.001 69.999l53 62.5l59 67.5l57 62c26.667 28.667 51.667 34.667 75 18c19.333 -13.333 27.333 -34 24 -62
c-2 -19.333 -9.66699 -36.333 -23 -51l-75.5 -83l-78.5 -92l-68.5 -83.5l-75 -95l-66 -85.5l-73 -96l-67.5 -89l152.5 -339.5l134.5 -301.5c12.667 -27.333 4.33398 -48 -24.999 -62c-28.667 -14 -58.334 -15.333 -89.001 -4c-18 7.33301 -30.667 18.333 -38 33l-239 534
c-184.667 -239.333 -361 -427 -529 -563c-13.333 -10.667 -29.333 -14.667 -48 -12s-31.334 12.334 -38.001 29.001z" />
    <glyph glyph-name="afii10040" unicode="&#x426;" horiz-adv-x="1316" 
d="M84 82c22 106 44.4971 220.999 67.4971 344.999l52.5 290.5l58.5 350.5l52.5 316c2.66699 20 14.667 38.167 36 54.5s43.5 23.5 66.5 21.5s37.5 -15.667 43.5 -41c8 -28 12 -64.667 12 -110c0 -26 -11.667 -44.667 -35 -56c-70.667 -433.333 -138 -806.666 -202 -1120
c26 0 69.167 -1 129.5 -3s109.166 -3 146.499 -3c103.333 -1.33301 229 1.33398 377 8.00098c-4.66699 13.333 -6 28.333 -4 45c16.667 86 59.5 269 128.5 549s112.833 498.333 131.5 655c3.33301 19.333 11.333 37.166 24 53.499s28.667 26.5 48 30.5
c16.667 2.66699 30.834 -2.5 42.501 -15.5s16.5 -28.167 14.5 -45.5c-14 -122.667 -37.333 -255.834 -70 -399.501s-68.667 -293.167 -108 -448.5s-68.666 -286.333 -87.999 -393c-2 -12.667 -5.66699 -21.667 -11 -27c78 0 136 -1.33301 174 -4
c18.667 0 36 -6.16699 52 -18.5s24 -27.166 24 -44.499c-1.33301 -48 -16.333 -113.167 -45 -195.5s-45.667 -137.5 -51 -165.5c-4.66699 -24.667 -21 -40.834 -49 -48.501s-54.333 -5.16699 -79 7.5s-34.667 31.334 -30 56.001c6.66699 34 21.334 83.167 44.001 147.5
s37.334 112.5 44.001 144.5c-66 1.33301 -162.5 -0.5 -289.5 -5.5s-220.167 -7.16699 -279.5 -6.5c-13.333 0 -56.833 1.66699 -130.5 5s-118.834 3 -135.501 -1c-5.33301 0 -14.666 -0.5 -27.999 -1.5s-26 -1.83301 -38 -2.5s-24.833 0 -38.5 2s-25 5.16699 -34 9.5
s-16 12 -21 23s-5.83301 24.833 -2.5 41.5z" />
    <glyph glyph-name="afii10041" unicode="&#x427;" horiz-adv-x="1165" 
d="M167.5 974c3 55.333 8.50098 105.164 16.501 149.497l27 152.5c10 57.333 16.667 103.666 20 138.999c1.33301 15.333 7.83301 27.5 19.5 36.5s25.167 13.833 40.5 14.5s30.666 -1.16602 45.999 -5.49902s27.833 -12.5 37.5 -24.5s13.834 -25.667 12.501 -41
c-2.66699 -42 -11.5 -103.5 -26.5 -184.5s-24.5 -140.5 -28.5 -178.5s-6.5 -68.667 -7.5 -92s-0.333008 -52.666 2 -87.999s9.83301 -66.666 22.5 -93.999s30.667 -50.666 54 -69.999c59.333 -46.667 148.333 -41 267 17c84.667 46 148 91.667 190 137
c44 198 96 395.333 156 592c10 34 27.333 47.333 52 40c20.667 -6.66699 36.667 -23.334 48 -50.001c9.33301 -22.667 10.666 -44 3.99902 -64c-58 -204 -97.667 -353 -119 -447c22 -7.33301 37 -19.5 45 -36.5s4.66699 -36.167 -10 -57.5c-24 -32 -48.333 -57.333 -73 -76
c-50 -248.667 -76 -482.667 -78 -702c0 -30.667 -9.83301 -53.167 -29.5 -67.5s-39.167 -15.833 -58.5 -4.5s-29 32.666 -29 63.999c0 188.667 18.333 389.334 55 602.001c-55.333 -35.333 -111 -62 -167 -80s-113.833 -25.167 -173.5 -21.5s-112.5 21.834 -158.5 54.501
c-43.333 30 -77.5 66.5 -102.5 109.5s-41 86 -48 129s-9 92.167 -6 147.5z" />
    <glyph glyph-name="afii10042" unicode="&#x428;" horiz-adv-x="1773" 
d="M82.5 18.5c-1 31 9.16797 56.8262 30.501 77.4932c3.33301 31.333 7 62.333 11 93s9.5 63.667 16.5 99l17.5 89c4.66699 24 12.334 56.667 23.001 98l22.5 88.5c4.33301 17.667 13.333 50 27 97s22 76.167 25 87.5s12.5 43.5 28.5 96.5l27 89.5
c10.667 36 24.167 87.5 40.5 154.5l35.5 142.5c1.33301 4.66699 4.33301 16.667 9 36l10 41c2 8 5.66699 20.167 11 36.5s10.333 29.333 15 39s10.834 20.334 18.501 32.001s15.834 21.834 24.501 30.501c25.333 22.667 46.666 20.334 63.999 -6.99902
c16.667 -26 21.667 -56 15 -90c-4 -18 -11.333 -32 -22 -42c6.66699 5.33301 10.334 7.66602 11.001 6.99902s-1.33301 -4.66699 -6 -12c-5.33301 -8.66699 -8.33301 -14.667 -9 -18c0 -1.33301 -1.83301 -7.16602 -5.5 -17.499s-5.83398 -18.166 -6.50098 -23.499
c-18.667 -66 -29.667 -109 -33 -129c-32.667 -130 -57.667 -223.333 -75 -280l-23 -76.5l-24.5 -81l-22.5 -75.5c-10.667 -36 -18.334 -63.333 -23.001 -82l-20 -76.5c-8.66699 -32.333 -15.5 -59.666 -20.5 -81.999l-16.5 -77c-6 -29 -11.167 -56.833 -15.5 -83.5
s-8.16602 -53 -11.499 -79c140.667 -4.66699 325 -2 553 8v14c24.667 107.333 49.167 240.833 73.5 400.5s49.666 312.5 75.999 458.5s57.833 278.333 94.5 397c11.333 35.333 30.333 49.333 57 42c22 -6.66699 38.667 -23.334 50 -50.001c8.66699 -20.667 10 -40.667 4 -60
c-35.333 -114 -65.5 -239.167 -90.5 -375.5s-49.167 -283 -72.5 -440s-45 -283.833 -65 -380.5c252.667 10.667 394 16.334 424 17.001c36 350.667 131.667 744.334 287 1181c12.667 34.667 32 49.334 58 44.001c20.667 -4 35.667 -18.667 45 -44
c8 -20.667 8.33301 -41.667 1 -63c-146.667 -422 -237.334 -793.333 -272.001 -1114h27c27.333 0 42.666 -14.333 45.999 -43c2.66699 -28.667 -6.66602 -55.667 -27.999 -81c-15.333 -18.667 -33 -28 -53 -28c-94.667 -0.666992 -296.334 -8.16699 -605.001 -22.5
s-546.667 -17.833 -714 -10.5c-28.667 0.666992 -43.5 16.5 -44.5 47.5z" />
    <glyph glyph-name="afii10043" unicode="&#x429;" horiz-adv-x="1783" 
d="M84.5 66.5c4.33301 15.667 12.5029 30.502 24.5029 44.502c26.667 102 66.834 289.333 120.501 562s103.5 481 149.5 625c-15.333 25.333 -10.666 51.333 14.001 78c4.66699 8 11.667 15 21 21c16 26 38.667 42.333 68 49c29.333 7.33301 47.666 -0.666992 54.999 -24
c3.33301 -10.667 3.33301 -24 0 -40c-4 -14 -9 -26 -15 -36c-49.333 -150 -101.833 -366.333 -157.5 -649s-94.5 -467.334 -116.5 -554.001c96 -2.66699 242.667 -5.33398 440 -8.00098v8c5.33301 96 27 232.333 65 409s60 282.667 66 318c2.66699 14 7.66699 42 15 84
s12.833 72.5 16.5 91.5s9.66699 46.833 18 83.5s16.5 66.5 24.5 89.5s18 48.833 30 77.5s25.333 54.667 40 78c16 24 41.667 35.667 77 35c32.667 0 53.667 -10.333 63 -31c7.33301 -14 5 -31 -7 -51c-26 -40.667 -46.333 -86 -61 -136s-28.167 -113.333 -40.5 -190
s-20.833 -125.667 -25.5 -147c-8.66699 -48 -23.834 -120 -45.501 -216s-39.334 -182.333 -53.001 -259s-22.5 -150.334 -26.5 -221.001c0 -8.66699 -2.66699 -18.334 -8 -29.001c256.667 -6.66699 411.334 -10 464.001 -10c6 97.333 21.333 203.5 46 318.5s51 218 79 309
s57.667 195.167 89 312.5s54.333 221.666 69 312.999c5.33301 26 25 44 59 54c34.667 10 62.334 7 83.001 -9c13.333 -10 18.666 -24.333 15.999 -43c-15.333 -91.333 -38.833 -195.666 -70.5 -312.999s-61.667 -221.333 -90 -312s-55 -193.667 -80 -309
s-40.5 -222.333 -46.5 -321c9.33301 0 22.666 0.666992 39.999 2s30.666 2 39.999 2c18 0 31.5 -6.33301 40.5 -19s11.833 -29 8.5 -49c-14.667 -122 -58.334 -227 -131.001 -315c-22.667 -28 -49.334 -39.333 -80.001 -34c-24.667 4.66699 -39.334 17.334 -44.001 38.001
c-4 18 2 37 18 57c42.667 52 71.334 113.667 86.001 185c-154.667 -2 -377.5 1.16699 -668.5 9.5s-500.5 12.5 -628.5 12.5c-21.333 0 -36.166 5.83301 -44.499 17.5s-10.333 25.334 -6 41.001z" />
    <glyph glyph-name="afii10044" unicode="&#x42a;" horiz-adv-x="1191" 
d="M85.5 1350c-6.33301 26.667 -2.16406 52.5 12.5029 77.5s34 36.5 58 34.5c125.333 -8 250.666 -8 375.999 0c24 3.33301 40 -6 48 -28c28.667 -10 40 -28 34 -54l-58.5 -265.5l-55.5 -252.5c49.333 11.333 89.666 19.5 120.999 24.5s70.166 9.16699 116.499 12.5
s88.5 0.166016 126.5 -9.50098s71.667 -25.5 101 -47.5c35.333 -25.333 64.5 -57.666 87.5 -96.999s38.5 -81 46.5 -125s10.167 -89 6.5 -135s-13.167 -89.667 -28.5 -131c-24.667 -60.667 -60.667 -115.334 -108 -164.001s-100 -87.334 -158 -116.001
s-121.167 -52.5 -189.5 -71.5s-135.5 -29.5 -201.5 -31.5s-130.333 0 -193 6c-17.333 2.66699 -28.833 9.33398 -34.5 20.001s-6 22.834 -1 36.501s13.5 27.167 25.5 40.5c-20.667 14 -28.667 30.333 -24 49c16.667 92 36.167 192.833 58.5 302.5l58 281l66.5 309.5l62 289
c-67.333 -4 -168.333 -3.33301 -303 2c-26.667 2 -43.167 16.333 -49.5 43zM348.002 106c56.667 -3.33301 114.167 -0.99707 172.5 7.00293s115.833 21.5 172.5 40.5s107.5 47.167 152.5 84.5s77.167 81 96.5 131c12 28.667 19.167 61.167 21.5 97.5s-0.166992 72 -7.5 107
s-20.833 67.5 -40.5 97.5s-44.167 52 -73.5 66c-15.333 7.33301 -31.166 13.166 -47.499 17.499s-34.333 6.83301 -54 7.5s-36.167 1.16699 -49.5 1.5s-31.833 -1.33398 -55.5 -5.00098s-40.334 -6.33398 -50.001 -8.00098s-27.834 -5.33398 -54.501 -11.001
s-42.667 -9.16699 -48 -10.5c-2.66699 -2.66699 -6.66699 -4 -12 -4c-63.333 -309.333 -103.666 -512.666 -120.999 -609.999c0 -1.33301 -0.333008 -3 -1 -5s-1 -3.33301 -1 -4z" />
    <glyph glyph-name="afii10045" unicode="&#x42b;" horiz-adv-x="1626" 
d="M86 61c6.66699 28 28.668 45.999 66.001 53.999c22 78.667 43.167 158.334 63.5 239.001s41.666 170.167 63.999 268.5l52.5 231.5l58.5 269.5l51.5 240.5c4.66699 20.667 13.5 39 26.5 55s29.5 25 49.5 27c17.333 2.66699 31.5 -3.5 42.5 -18.5s14.5 -31.5 10.5 -49.5
l-56.5 -265l-57.5 -265c69.333 20 143.333 25.5 222 16.5s146.667 -32.833 204 -71.5c53.333 -34 94.833 -78.667 124.5 -134s44.667 -113 45 -173s-11.167 -120.333 -34.5 -181c-14 -33.333 -31.167 -63.666 -51.5 -90.999s-41.666 -51.166 -63.999 -71.499
s-48.333 -38.333 -78 -54s-58 -28.834 -85 -39.501s-58.667 -19.5 -95 -26.5s-68.833 -12.5 -97.5 -16.5s-62.834 -7 -102.501 -9s-73.167 -3 -100.5 -3h-100c-16.667 -22.667 -37.667 -34 -63 -34s-42 11.333 -50 34c-16 3.33301 -29 11.666 -39 24.999s-12 27.333 -6 42z
M279.001 114.999c44 0 88.667 -0.665039 134 -1.99805s91.5 1.16699 138.5 7.5s90.333 15.333 130 27s75.667 30.667 108 57s56.5 58.5 72.5 96.5c20 47.333 31.5 95.166 34.5 143.499s-5.5 95.166 -25.5 140.499s-51.667 80.333 -95 105
c-52.667 30 -110.167 47.167 -172.5 51.5s-120.833 -4.5 -175.5 -26.5c-66 -279.333 -115.667 -479.333 -149 -600zM1200 39.501c-4.66699 14.333 -4.66797 30.499 -0.000976562 48.499c24.667 104.667 63.334 301.167 116.001 589.5s101.334 510.166 146.001 665.499
c9.33301 29.333 25.666 48 48.999 56s43 3.83301 59 -12.5s19 -39.5 9 -69.5c-45.333 -156 -94.833 -380.5 -148.5 -673.5s-91.5 -487.167 -113.5 -582.5c-4.66699 -17.333 -12.667 -31.166 -24 -41.499s-23.166 -15.666 -35.499 -15.999s-23.833 2 -34.5 7
s-18.334 14.667 -23.001 29z" />
    <glyph glyph-name="afii10046" unicode="&#x42c;" horiz-adv-x="1064" 
d="M85.5 72c-5 15.333 -3.49805 29.6641 4.50195 42.9971c-6 12 -6 27 0 45c27.333 87.333 52.833 186.166 76.5 296.499s41 198 52 263s27 170.833 48 317.5s34.5 239.334 40.5 278.001c3.33301 26 21.5 45.833 54.5 59.5s59.167 13.834 78.5 0.500977
c14 -9.33301 19 -24.666 15 -45.999c-6.66699 -41.333 -17.834 -117.166 -33.501 -227.499s-28.5 -196.166 -38.5 -257.499c67.333 18 138.166 21.167 212.499 9.5s140.166 -37.5 197.499 -77.5c73.333 -50.667 127.333 -117 162 -199s37.334 -163.667 8.00098 -245
c-22.667 -60 -58.167 -112.333 -106.5 -157s-102.333 -78.834 -162 -102.501s-123.834 -40.667 -192.501 -51s-135.667 -13.333 -201 -9s-126.666 14.5 -183.999 30.5c-16 4 -26.5 13.667 -31.5 29zM231.002 146.998c38.667 -8.66699 80.167 -14.002 124.5 -16.002
s90.166 0.333008 137.499 7s91.5 17.5 132.5 32.5s78 37 111 66s56.5 62.833 70.5 101.5c12.667 36.667 18.5 72.334 17.5 107.001s-9.16699 67.167 -24.5 97.5s-34.5 58 -57.5 83s-50.167 46.167 -81.5 63.5s-63.666 30.333 -96.999 39s-68 11.834 -104 9.50098
s-70 -10.5 -102 -24.5c-34 -207.333 -76.333 -396 -127 -566z" />
    <glyph glyph-name="afii10047" unicode="&#x42d;" horiz-adv-x="1153" 
d="M-38 80c6 24 22.3301 43.665 48.9971 58.998c19.333 10.667 38.333 14.334 57 11.001c76 -15.333 149.833 -23.166 221.5 -23.499s143.5 12.834 215.5 39.501s135.667 66.334 191 119.001c105.333 94.667 180 218 224 370c0 0.666992 -81.5 0.833984 -244.5 0.500977
s-244.833 -0.5 -245.5 -0.5c-30.667 0 -51.5 9.83301 -62.5 29.5s-9.16699 39.167 5.5 58.5s37 29 67 29c45.333 0 125.333 0.833008 240 2.5s203.334 2.16699 266.001 1.5c34.667 199.333 12.334 338.666 -66.999 417.999c-34.667 35.333 -76.834 61.166 -126.501 77.499
s-102 23 -157 20s-106.833 -9.66699 -155.5 -20s-97.667 -24.5 -147 -42.5c-34.667 -13.333 -62.667 -9.33301 -84 12c-18 18 -21.333 37.667 -10 59c8 14 22.333 25 43 33c48 18 95 33.333 141 46s97.5 23 154.5 31s110.333 10.833 160 8.5s99.5 -12.333 149.5 -30
s93.333 -43.5 130 -77.5c36 -31.333 64.667 -68.833 86 -112.5s35 -90 41 -139s7.83301 -96.833 5.5 -143.5s-8.16602 -94.667 -17.499 -144c-44.667 -248.667 -152.667 -445.334 -324 -590.001c-71.333 -58 -150.166 -102.333 -236.499 -133s-173 -47 -260 -49
s-176.167 6.33301 -267.5 25c-34.667 8 -48.667 26.333 -42 55z" />
    <glyph glyph-name="afii10048" unicode="&#x42e;" horiz-adv-x="1783" 
d="M86 94c45.333 176.667 88.3359 373.336 129.003 590.003c-8.66699 34.667 -2.66699 66 18 94l105 635c4.66699 34.667 19.667 51.667 45 51c23.333 -0.666992 43.666 -13.334 60.999 -38.001c12.667 -19.333 17.667 -39.333 15 -60l-94 -569
c39.333 -0.666992 66 -1 80 -1s40.667 0.666992 80 2s65.666 2.33301 78.999 3c22 138 70 250.667 144 338c1.33301 2 12.666 9.33301 33.999 22c69.333 76 146.666 137.667 231.999 185c42 22.667 84.667 41 128 55s88.333 23.833 135 29.5s92.834 3.16699 138.501 -7.5
s87.167 -29.667 124.5 -57c58 -42 103.667 -96.5 137 -163.5s53.333 -138.167 60 -213.5s5.83398 -149.5 -2.49902 -222.5s-23.166 -143.5 -44.499 -211.5c-17.333 -55.333 -38.833 -108.666 -64.5 -159.999s-56.5 -100.833 -92.5 -148.5s-75.333 -89.834 -118 -126.501
s-90.834 -67.5 -144.501 -92.5s-109.834 -40.833 -168.501 -47.5c-68 -8 -131.167 -2.16699 -189.5 17.5s-107.833 50 -148.5 91s-74.167 89.333 -100.5 145s-44.833 116.5 -55.5 182.5c-12 70 -18 145.667 -18 227c-131.333 -3.33301 -216 -4 -254 -2
c-29.333 -168 -72.333 -366.667 -129 -596c-8 -34.667 -25.667 -51.334 -53 -50.001c-24 1.33301 -43.333 14 -58 38c-12 19.333 -15.333 39.666 -10 60.999zM754.003 504.002c19.333 -160.667 63.002 -272.665 131.002 -335.998c42.667 -40 89.167 -63.667 139.5 -71
s98.166 -1.33301 143.499 18s89.333 46.666 132 81.999s79.667 74.333 111 117s56.666 85.334 75.999 128.001c67.333 140 100 287 98 441c-6 195.333 -60 325 -162 389c-58.667 35.333 -119.5 48.166 -182.5 38.499s-124 -35.334 -183 -77.001s-111.667 -90 -158 -145
s-81.833 -109.833 -106.5 -164.5l-7 -21c-40 -128.667 -50.667 -261.667 -32 -399z" />
    <glyph glyph-name="afii10049" unicode="&#x42f;" horiz-adv-x="1101" 
d="M47 47c34.667 72 62.1709 127.331 82.5039 165.998s48.666 88.834 84.999 150.501s74.333 115.334 114 161.001s81.834 85.834 126.501 120.501c-45.333 15.333 -86 33 -122 53s-68.333 43.833 -97 71.5s-48.667 60.167 -60 97.5s-12 78 -2 122
c14.667 64 41.167 122.333 79.5 175s83.166 96.5 134.499 131.5s108.666 64.5 171.999 88.5s126.166 41.5 188.499 52.5s124.833 16.833 187.5 17.5c47.333 0 78 -15 92 -45c14 -14 21.667 -28.333 23 -43c8.66699 -24 11.667 -53.333 9 -88s-6.66699 -63.667 -12 -87
s-13.333 -51.666 -24 -84.999c-20.667 -62 -50 -168 -88 -318c-28.667 -100.667 -51 -182.667 -67 -246s-32 -140.333 -48 -231s-26 -175.334 -30 -254.001c-0.666992 -36.667 -14.334 -58 -41.001 -64c-23.333 -5.33301 -44 2.33398 -62 23.001
c-12.667 16 -18.667 35.333 -18 58c4.66699 138.667 32 314 82 526c-1.33301 0 -4 -0.666992 -8 -2s-7 -2 -9 -2c-10 1.33301 -26.333 2.66602 -49 3.99902s-39.667 2.66602 -51 3.99902l-14 -14c-40 -25.333 -78.667 -57.333 -116 -96s-69 -75.5 -95 -110.5
s-54.333 -79.833 -85 -134.5s-54 -98.334 -70 -131.001l-65 -136c-8 -16 -21.667 -25.667 -41 -29s-38 -1.5 -56 5.5s-32.167 18.833 -42.5 35.5s-11.5 34.334 -3.5 53.001zM338.004 992.998c-12.667 -42 -11.6709 -79.668 2.99609 -113.001s37.5 -59.833 68.5 -79.5
s67.833 -36.167 110.5 -49.5s82.834 -22.333 120.501 -27s73.5 -7 107.5 -7c2.66699 0 14 -2 34 -6c10.667 41.333 17.667 66.333 21 75c6 21.333 17.667 67.333 35 138s31.666 124.334 42.999 161.001c2.66699 8.66699 7.33398 21.5 14.001 38.5s11.834 30.667 15.501 41
s8.33398 24.666 14.001 42.999s9.16699 33 10.5 44s2.83301 25.333 4.5 43s0.5 31.167 -3.5 40.5c-61.333 -2 -121.666 -9.66699 -180.999 -23s-117.833 -32.666 -175.5 -57.999s-108 -60.5 -151 -105.5s-73.167 -96.833 -90.5 -155.5z" />
    <glyph glyph-name="afii10065" unicode="&#x430;" horiz-adv-x="1056" 
d="M2 336c-0.666992 62 5.67285 125.838 19.0059 191.505s33 129.834 59 192.501s60.5 120.834 103.5 174.501s91.167 96.167 144.5 127.5c119.333 66.667 234.666 81.667 345.999 45c30.667 -10.667 59.334 -26.334 86.001 -47.001c20 0 36.833 -10.833 50.5 -32.5
s17.167 -44.834 10.5 -69.501c-62 -182.667 -90.667 -392.334 -86 -629.001c0 -106.667 19.333 -158 58 -154c17.333 0.666992 33.666 9.5 48.999 26.5s26.5 32.833 33.5 47.5s15.167 33.667 24.5 57c1.33301 4 2.33301 6.66699 3 8c16 36.667 37.333 49 64 37
c22 -9.33301 37 -29 45 -59c6 -21.333 5.33301 -41 -2 -59c-57.333 -140.667 -127 -214.667 -209 -222c-38 -4.66699 -70.833 7.16602 -98.5 35.499s-48.834 63.833 -63.501 106.5c-13.333 34 -22.333 79.667 -27 137c-54 -110.667 -120.667 -192 -200 -244
c-30.667 -20.667 -61.834 -35.834 -93.501 -45.501s-64.834 -11.834 -99.501 -6.50098s-65.334 20.666 -92.001 45.999c-78.667 73.333 -120.334 185.333 -125.001 336zM139.007 240.005c9.33301 -38 25.501 -69.6641 48.501 -94.9971s52.5 -35.333 88.5 -30
c22.667 4 45 12.667 67 26s42.667 30.666 62 51.999s35.5 40.833 48.5 58.5s27.167 38.167 42.5 61.5c30 52 54.167 112 72.5 180s35.333 140.167 51 216.5s32.5 138.833 50.5 187.5c-0.666992 1.33301 -2.66699 2.66602 -6 3.99902s-5.66602 2.66602 -6.99902 3.99902
c-2 0.666992 -19 5 -51 13c-42.667 10 -85 10 -127 0c-92.667 -28 -166.334 -80.667 -221.001 -158c-54.667 -76 -93.834 -160.667 -117.501 -254s-24.167 -182 -1.5 -266z" />
    <glyph glyph-name="afii10066" unicode="&#x431;" horiz-adv-x="1058" 
d="M82.5 356c1.66699 48.667 6.83301 97.9941 15.5 147.994c8 46 28.167 128.833 60.5 248.5s58.166 191.167 77.499 214.5c24.667 62 49.834 116 75.501 162s59.667 91.667 102 137s89.5 80.666 141.5 105.999c30.667 16.667 68.834 28.834 114.501 36.501
s87 12.334 124 14.001s76.167 9.66699 117.5 24s75.666 36.5 102.999 66.5c25.333 25.333 53.666 33.333 84.999 24c24.667 -8 38 -23 40 -45c1.33301 -18 -7 -36.667 -25 -56c-20 -21.333 -42.167 -40 -66.5 -56s-45.666 -28.5 -63.999 -37.5s-44.166 -17.5 -77.499 -25.5
s-57.166 -13.167 -71.499 -15.5s-42.166 -6.16602 -83.499 -11.499s-67.666 -8.66602 -78.999 -9.99902c-38 -5.33301 -72.833 -18.5 -104.5 -39.5s-59.334 -48.5 -83.001 -82.5s-43.167 -66 -58.5 -96s-31 -65.333 -47 -106c-10 -22.667 -19 -45.667 -27 -69
c76.667 66 149.667 109.667 219 131c68 19.333 127.167 21.666 177.5 6.99902s91.833 -42.5 124.5 -83.5s56.667 -88.333 72 -142s22 -110.5 20 -170.5s-12.333 -116 -31 -168c-14.667 -40 -34 -81.167 -58 -123.5s-52.167 -83.666 -84.5 -123.999
s-67 -77.166 -104 -110.499s-76.833 -60.666 -119.5 -81.999s-85.334 -34.833 -128.001 -40.5s-86.834 0 -132.501 17s-88.834 45.833 -129.501 86.5c-33.333 33.333 -58 74.833 -74 124.5s-23.167 98.834 -21.5 147.501zM236.499 428.494
c-1.66699 -28.333 -1.00195 -60.999 1.99805 -97.999s12.5 -69.833 28.5 -98.5s38.333 -52 67 -70c38 -24.667 76.333 -37.334 115 -38.001s74.167 8.83301 106.5 28.5s61.833 43.667 88.5 72s51 60.833 73 97.5c90.667 146 118.667 283 84 411c-12 46 -28.5 82 -49.5 108
s-44.167 42 -69.5 48s-53.166 5.5 -83.499 -1.5s-60.166 -18.833 -89.499 -35.5s-58.833 -36.667 -88.5 -60s-56.334 -46.5 -80.001 -69.5s-45.167 -46.167 -64.5 -69.5c-13.333 -46 -22.666 -87.667 -27.999 -125c-6 -38 -9.83301 -71.167 -11.5 -99.5z" />
    <glyph glyph-name="afii10067" unicode="&#x432;" horiz-adv-x="905" 
d="M63.5 359.5c5.66699 90.333 26.168 178.83 61.501 265.497l37.5 93c10.333 24.667 24.833 54.834 43.5 90.501s37.167 65.834 55.5 90.501s40.666 49.167 66.999 73.5s54.166 43.5 83.499 57.5c41.333 18.667 85.333 29.834 132 33.501s92.334 -3 137.001 -20
s79 -44.5 103 -82.5c22.667 -32.667 35.167 -67.667 37.5 -105s-4 -72.666 -19 -105.999s-34.5 -64.5 -58.5 -93.5s-51.333 -54.5 -82 -76.5c9.33301 -2 20.666 -7.66699 33.999 -17c36 -17.333 64.5 -40 85.5 -68s33.5 -58.167 37.5 -90.5s1.5 -65.833 -7.5 -100.5
s-24.167 -68.334 -45.5 -101.001c-40 -60.667 -92.167 -112 -156.5 -154s-132.166 -68.667 -203.499 -80c-68.667 -9.33301 -132 0.166992 -190 28.5s-99.333 73.5 -124 135.5c-24.667 60.667 -34.167 136.167 -28.5 226.5zM188.001 318.497
c-1.33301 -30.333 3.83008 -60.334 15.4971 -90.001s29.834 -53.167 54.501 -70.5c24 -16.667 52 -26.834 84 -30.501s62.5 -2.33398 91.5 3.99902s57.833 16.5 86.5 30.5c12 6 26.333 14.167 43 24.5s34.834 23.333 54.501 39s36.167 31.834 49.5 48.501
s22.833 33.667 28.5 51s2.5 33.333 -9.5 48c-14.667 20.667 -34.667 37.167 -60 49.5s-52.333 20.333 -81 24s-56.667 4.83398 -84 3.50098s-53.333 -4.66602 -78 -9.99902c-10 -4 -19 -4 -27 0c-55.333 -16.667 -109 -26 -161 -28
c-3.33301 -32 -5.66602 -63.167 -6.99902 -93.5zM235.997 572.996c100 8.66699 207.668 45.001 323.001 109.001c146 90 173.333 156.333 82 199c-34 15.333 -67 23.166 -99 23.499s-61 -6.16699 -87 -19.5s-50.333 -30.5 -73 -51.5s-43.167 -46.333 -61.5 -76
s-34.333 -59.5 -48 -89.5s-25.834 -61.667 -36.501 -95z" />
    <glyph glyph-name="afii10068" unicode="&#x433;" horiz-adv-x="845" 
d="M41.5 306c2.33301 58.667 21.1621 110.332 56.4951 154.999c21.333 25.333 45.833 48.666 73.5 69.999s58.167 40.5 91.5 57.5s63.833 31.333 91.5 43l101.5 41c40 15.667 71 28.5 93 38.5c4 2 13 6 27 12s25 11 33 15s16.667 9.83301 26 17.5s16 15.834 20 24.501
c8.66699 24 6.33398 47.333 -6.99902 70s-31.333 40.334 -54 53.001c-15.333 7.33301 -31.166 12.833 -47.499 16.5s-30.666 6.33398 -42.999 8.00098s-28.166 1 -47.499 -2s-33.333 -5 -42 -6s-24.167 -5.5 -46.5 -13.5l-42 -15c-5.66699 -2 -21.167 -8.33301 -46.5 -19
l-43 -18c-25.333 -10 -47.5 -4.16699 -66.5 17.5s-28.167 47.167 -27.5 76.5s12.667 48.666 36 57.999l44 18.5l45.5 19c11.667 5 27.334 11.167 47.001 18.5s35.5 12.5 47.5 15.5l48 11.5c20 4.66699 36.333 6.5 49 5.5s29 -1.83301 49 -2.5
c49.333 -6 94.666 -22 135.999 -48s74.333 -60.667 99 -104c24.667 -38.667 38.167 -83.834 40.5 -135.501s-8.16699 -97.834 -31.5 -138.501c-8.66699 -14.667 -19.167 -28 -31.5 -40s-27.5 -23 -45.5 -33s-33.167 -17.833 -45.5 -23.5s-30 -13.167 -53 -22.5l-46.5 -19
c-10.667 -4.66699 -30.834 -12.5 -60.501 -23.5l-80 -30.5c-23.667 -9.33301 -50.667 -21.666 -81 -36.999s-55.666 -30.666 -75.999 -45.999s-37.333 -33.5 -51 -54.5s-20.167 -42.5 -19.5 -64.5c2.66699 -41.333 16.167 -75.5 40.5 -102.5s54.5 -45 90.5 -54
s73.833 -12.667 113.5 -11s77.834 9.33398 114.501 23.001s66.334 30.5 89.001 50.5c23.333 19.333 46 21.166 68 5.49902s34.5 -37.167 37.5 -64.5s-3.5 -50.666 -19.5 -69.999c-72.667 -62.667 -156.334 -98.834 -251.001 -108.501s-181.667 12.833 -261 67.5
c-44.667 34 -80.167 77.5 -106.5 130.5s-38.333 108.833 -36 167.5z" />
    <glyph glyph-name="afii10069" unicode="&#x434;" horiz-adv-x="921" 
d="M-121 -555c10.667 88.667 64.0029 172.002 160.003 250.002c61.333 51.333 156.833 108.833 286.5 172.5s215.167 108.5 256.5 134.5l4 2c2 1.33301 3.33301 2.66602 4 3.99902c5.33301 39.333 8.66602 68 9.99902 86c-38.667 -42.667 -79 -75.334 -121 -98.001
c-122.667 -67.333 -227 -65.333 -313 6c-38.667 35.333 -70 78.833 -94 130.5s-39.667 105.167 -47 160.5c-15.333 118 -3.83301 238 34.5 360s99.166 220.333 182.499 295c108 98 219 141.667 333 131c50.667 -4.66699 94.834 -19.334 132.501 -44.001s56.5 -59 56.5 -103
c24.667 6.66699 44.667 3 60 -11s18.666 -37 9.99902 -69c-4 -14 -12.333 -50.333 -25 -109c6 -6 8 -20.333 6 -43c-22 -125.333 -40.333 -212 -55 -260c-4 -40.667 -10.333 -116 -19 -226s-17.834 -203.167 -27.501 -279.5s-22.834 -150.166 -39.501 -221.499
c-22.667 -93.333 -50.834 -176.333 -84.501 -249s-79.167 -136.334 -136.5 -191.001c-36 -34.667 -75.667 -63 -119 -85s-90.166 -35.833 -140.499 -41.5s-97.833 3.83301 -142.5 28.5c-53.333 28 -97.166 66.333 -131.499 115s-47.833 100.334 -40.5 155.001z
M16.0029 -515.998c-8.66699 -24.667 -5.16699 -50.334 10.5 -77.001s36.334 -48.667 62.001 -66s50.167 -29 73.5 -35c66.667 -12.667 130.167 3 190.5 47s103.166 99.333 128.499 166c36.667 90 66 197.667 88 323c-30.667 -17.333 -92.167 -48.5 -184.5 -93.5
s-161.833 -83.5 -208.5 -115.5l-21 -13.5l-24 -15.5l-23 -15.5c-11.333 -7.66699 -19.5 -13.667 -24.5 -18l-20.5 -18.5c-8.66699 -8 -15.5 -15.167 -20.5 -21.5s-10 -13.666 -15 -21.999s-8.83301 -16.5 -11.5 -24.5zM169.003 531.502
c-12.667 -79 -9.66992 -157.834 8.99707 -236.501c30 -104.667 73.667 -168.334 131 -191.001c34.667 -15.333 69.334 -15.333 104.001 0s65 40 91 74c62 74 107 182.667 135 326c24 156 43 261 57 315c-9.33301 -3.33301 -14.666 -5.33301 -15.999 -6
c-18.667 -1.33301 -34.667 3.83398 -48 15.501s-18.666 26.834 -15.999 45.501c4 18.667 -1.5 33.167 -16.5 43.5s-34 16 -57 17s-45.5 0.333008 -67.5 -2s-39 -5.83301 -51 -10.5c-73.333 -28 -132.666 -83.333 -177.999 -166
c-38.667 -70.667 -64.334 -145.5 -77.001 -224.5z" />
    <glyph glyph-name="afii10070" unicode="&#x435;" horiz-adv-x="989" 
d="M70 186c-44.667 128 -35.334 280.333 27.999 457c66.667 179.333 151.334 302.333 254.001 369c46 28.667 94.833 49.667 146.5 63s105.334 16.833 161.001 10.5s105.5 -24.833 149.5 -55.5c53.333 -38 92.5 -84.333 117.5 -139s27.5 -111.334 7.5 -170.001
c-39.333 -104.667 -153.333 -176.334 -342 -215.001c-103.333 -19.333 -228.333 -29 -375 -29c-14.667 -89.333 -14.667 -162.333 0 -219c16.667 -60.667 49.667 -106.667 99 -138s103.5 -43.166 162.5 -35.499s110.5 33.5 154.5 77.5c20.667 20.667 49 27 85 19
c32 -7.33301 51 -21.666 57 -42.999c5.33301 -16 -0.333984 -32.667 -17.001 -50c-36.667 -36.667 -81 -66.334 -133 -89.001s-105.833 -35.667 -161.5 -39s-109.5 1.5 -161.5 14.5s-98.833 37.833 -140.5 74.5s-72.167 82.334 -91.5 137.001zM250 600
c99.333 0 179.997 4.66797 241.997 14.001c41.333 5.33301 74.5 10.166 99.5 14.499s56.333 14.666 94 30.999s63.834 36.833 78.501 61.5c22.667 40.667 26.334 82 11.001 124s-43.666 73.667 -84.999 95c-50 24 -100.333 29.833 -151 17.5s-95 -39.166 -133 -80.499
c-68.667 -70.667 -120.667 -163 -156 -277z" />
    <glyph glyph-name="afii10072" unicode="&#x436;" horiz-adv-x="1486" 
d="M-40 15c-3.33301 24.667 6.66895 47.6641 30.002 68.9971c16.667 16 35.667 24.333 57 25c29.333 0.666992 56.333 9.16699 81 25.5s45.667 38.333 63 66s32.666 56.667 45.999 87s24.5 64 33.5 101s16.167 69 21.5 96s9.66602 54.5 12.999 82.5
c20 138.667 17.333 235 -8 289c-7.33301 12.667 -18.666 22 -33.999 28s-28.833 9.33301 -40.5 10s-29 0.333984 -52 -0.999023s-36.833 -2 -41.5 -2c-36.667 0 -56.667 13.667 -60 41c-2.66699 24.667 7 47 29 67c17.333 15.333 36.666 23 57.999 23
c7.33301 0 21 0.166992 41 0.5s35.5 0.5 46.5 0.5s25.833 -0.666992 44.5 -2s34 -3.83301 46 -7.5s25 -8.5 39 -14.5s26 -14.167 36 -24.5s18.333 -22.5 25 -36.5c39.333 -72 49 -184.667 29 -338c29.333 6.66699 86.666 10 171.999 10
c26 143.333 65.667 280.666 119 411.999c10 22.667 29.667 36.167 59 40.5s54.333 -1.5 75 -17.5s25.667 -37.333 15 -64c-48 -116 -84 -241 -108 -375c40.667 -1.33301 100 -2 178 -2c1.33301 0 3.16602 -0.666992 5.49902 -2s4.5 -2 6.5 -2c10 46.667 21.667 90 35 130
s31.333 80.333 54 121s48.167 75.5 76.5 104.5s63 52.667 104 71s85.833 27.833 134.5 28.5c32.667 0 51 -15.333 55 -46c4 -28.667 -4.66699 -55.667 -26 -81c-15.333 -17.333 -32.666 -26.333 -51.999 -27c-34.667 0 -66 -7.16699 -94 -21.5s-50.833 -32.333 -68.5 -54
s-33.334 -48.334 -47.001 -80.001s-23.834 -61.667 -30.501 -90s-12.667 -59.833 -18 -94.5c-5.33301 -36.667 -8.16602 -72.5 -8.49902 -107.5s3 -71.667 10 -110s17.833 -72.166 32.5 -101.499s36.334 -54.833 65.001 -76.5s62.667 -35.167 102 -40.5
c29.333 -4.66699 42.333 -23.334 39 -56.001c-3.33301 -31.333 -17.666 -57.666 -42.999 -78.999c-17.333 -15.333 -35.333 -21.666 -54 -18.999c-54.667 8.66699 -101.667 28.167 -141 58.5s-69.5 68 -90.5 113s-35.833 92.333 -44.5 142s-12 101.5 -10 155.5
c-22 0 -54.667 0.666992 -98 2s-76.333 2 -99 2c-2.66699 -22 -17 -169.333 -43 -442c-3.33301 -24 -19 -40.667 -47 -50s-54.667 -8 -80 4s-36.333 32 -33 60c14.667 176.667 29 320 43 430c-73.333 5.33301 -126.333 -2.66699 -159 -24c-8 -4 -15.667 -6 -23 -6
c-12 -45.333 -25.833 -87.5 -41.5 -126.5s-35.5 -78 -59.5 -117s-50.167 -72.333 -78.5 -100s-62 -50.167 -101 -67.5s-80.833 -26.666 -125.5 -27.999c-36 -1.33301 -56 11.334 -60 38.001z" />
    <glyph glyph-name="afii10073" unicode="&#x437;" horiz-adv-x="860" 
d="M-77 99c8.66699 23.333 26.0029 40.666 52.0029 51.999c22 9.33301 42 9.66602 60 0.999023c49.333 -22.667 104.5 -38.667 165.5 -48s123.5 -8 187.5 4s114.333 37.333 151 76c31.333 31.333 50.666 72.666 57.999 123.999s-4.66699 94 -36 128
c-30.667 28.667 -82.334 44.334 -155.001 47.001c-20 -6 -38.667 -13.333 -56 -22c-14 -6 -27.667 -5.83301 -41 0.5s-24.333 16.5 -33 30.5c-12.667 4 -22 12 -28 24s-6.66699 25 -2 39c1.33301 8.66699 7.33301 18.334 18 29.001c5.33301 14 16.333 24 33 30
c16.667 8 49 22.333 97 43s84.667 38 110 52c18 9.33301 32.667 17.333 44 24s25.833 16 43.5 28s31.167 25 40.5 39s14.333 28 15 42c1.33301 18 -1.33398 33.667 -8.00098 47s-16.834 23.5 -30.501 30.5s-28.334 12.5 -44.001 16.5s-34.5 5.5 -56.5 4.5s-42 -2 -60 -3
s-39.167 -4 -63.5 -9l-57.5 -11.5c-14 -2.66699 -30.833 -6.5 -50.5 -11.5s-31.167 -7.83301 -34.5 -8.5c-25.333 -6 -47.666 2.5 -66.999 25.5s-28.666 48.667 -27.999 77s13 45.5 37 51.5c6 1.33301 20.667 5 44 11s39 9.83301 47 11.5l43.5 9.5
c21 4.66699 36.833 7.66699 47.5 9l44 5.5c18.667 2.33301 34.334 3.33301 47.001 3s27 -1 43 -2s31 -3.16699 45 -6.5c61.333 -12 114.5 -40 159.5 -84s68.833 -96 71.5 -156c5.33301 -109.333 -50 -200 -166 -272c38.667 -12.667 71.667 -36 99 -70
c36.667 -54.667 52.167 -115.667 46.5 -183s-28.834 -126.333 -69.501 -177c-49.333 -64.667 -118.833 -112 -208.5 -142s-180.167 -41.833 -271.5 -35.5s-174.333 25.833 -249 58.5c-34 14.667 -45.333 37.334 -34 68.001z" />
    <glyph glyph-name="afii10074" unicode="&#x438;" horiz-adv-x="976" 
d="M47 418c6 72.667 23.166 173.331 51.499 301.998s46.166 216.334 53.499 263.001c4 24.667 19.833 38.334 47.5 41.001s53.834 -4.83301 78.501 -22.5s35 -39.5 31 -65.5c-8 -49.333 -23.167 -122 -45.5 -218s-37.166 -168 -44.499 -216
c-15.333 -100 -19.333 -178 -12 -234c3.33301 -74.667 18.333 -121.667 45 -141c27.333 -20 90.666 2.66699 189.999 68c77.333 53.333 139.666 106.333 186.999 159c2 5.33301 6 9.66602 12 12.999l32 145l34 155.5c8 38.333 15.833 85.5 23.5 141.5s11.834 108 12.501 156
c0 28.667 16 52 48 70c30.667 16.667 57 19.334 79 8.00098c16 -8.66699 23.667 -24.667 23 -48c-0.666992 -67.333 -7 -137.333 -19 -210s-29 -156 -51 -250s-37 -163 -45 -207c7.33301 -16.667 5.33301 -32.334 -6 -47.001c-12 -63.333 -18 -129.666 -18 -198.999
c0 -27.333 -16.333 -50 -49 -68c-31.333 -17.333 -58 -20 -80 -8c-16 8 -23.667 23 -23 45c0 34 1.33301 58.667 4 74c-171.333 -130.667 -317.333 -162 -438 -94c-99.333 58 -139.666 187 -120.999 387z" />
    <glyph glyph-name="afii10075" unicode="&#x439;" horiz-adv-x="997" 
d="M43 198c0.666992 33.333 1.00195 67.3379 1.00195 102.005c0 3.33301 0.166992 5.66602 0.5 6.99902s0.5 3.16602 0.5 5.49902v6.5c3.33301 80 19 192 47 336s45 242.333 51 295c4.66699 31.333 22.334 55.666 53.001 72.999c29.333 16.667 52.333 17.334 69 2.00098
c12 -10 16.667 -27.333 14 -52c-6.66699 -52.667 -21.834 -136.5 -45.501 -251.5s-38.834 -203.167 -45.501 -264.5c-8 -52.667 -12 -118.334 -12 -197.001c0 -50 6.33301 -81.333 19 -94c32 -32 112.667 -1.66699 242 91c2 2 3.66699 3.5 5 4.5
s2.66602 1.83301 3.99902 2.5l80.5 55.5c16.333 11.667 38.833 29.667 67.5 54s52 47.166 70 68.499c6 111.333 16.167 207.666 30.5 288.999s39.5 158 75.5 230c13.333 26 38.333 42 75 48c34 6 57.333 0 70 -18c8.66699 -12.667 8 -29 -2 -49
c-52 -105.333 -82.667 -234.333 -92 -387c12 -8.66699 19 -20.834 21 -36.501s-2.33301 -33.5 -13 -53.5c-2 -2.66699 -4.33301 -7.5 -7 -14.5s-5 -11.833 -7 -14.5l-4 -96.5l-4.5 -107c-1 -23.667 -3.16699 -53.834 -6.5 -90.501s-7.33301 -69.667 -12 -99
c-4 -27.333 -22.833 -48.166 -56.5 -62.499s-60.5 -14.166 -80.5 0.500977c-14 10 -19.333 26 -16 48c9.33301 68.667 16 145 20 229c-38.667 -35.333 -103.334 -82.333 -194.001 -141l-44.5 -28c-24.333 -15.333 -43.666 -27.166 -57.999 -35.499s-34.333 -18.5 -60 -30.5
s-47.5 -19.833 -65.5 -23.5s-37.333 -4.5 -58 -2.5s-38.667 9 -54 21c-26.667 20 -46.5 46.667 -59.5 80s-19.167 66.666 -18.5 99.999zM342.002 1378c-2 28.667 12.668 52.3369 44.001 71.0039c30 17.333 56.667 20.666 80 9.99902c16 -8 24.667 -22.667 26 -44
c2.66699 -30 11.667 -52.5 27 -67.5s34.333 -22.333 57 -22s47 4 73 11s52.333 17.5 79 31.5s50.334 27.667 71.001 41s37.667 25.666 51 36.999c24 21.333 47.167 27.666 69.5 18.999s34 -24.834 35 -48.501s-9.16699 -46.5 -30.5 -68.5
c-26.667 -23.333 -58.334 -45.666 -95.001 -66.999s-76.167 -40.333 -118.5 -57s-84.333 -27.334 -126 -32.001s-79.834 -3 -114.501 5s-63.667 27.333 -87 58s-37 71.667 -41 123z" />
    <glyph glyph-name="afii10076" unicode="&#x43a;" horiz-adv-x="868" 
d="M43 37c37.333 360.667 107.668 693.665 211.001 998.998c12.667 36.667 32.667 53 60 49c22.667 -2.66699 39.334 -16.667 50.001 -42c9.33301 -21.333 10.333 -43.333 3 -66c-47.333 -138 -85 -271 -113 -399c26 11.333 51.833 25.666 77.5 42.999s48.667 34.333 69 51
s42.166 38 65.499 64s42.333 48.167 57 66.5s33.167 43.5 55.5 75.5s38.833 56.333 49.5 73l49.5 77.5l45.5 71.5c21.333 32.667 44 41 68 25c20.667 -13.333 32 -35.666 34 -66.999c2 -22.667 -2.66699 -42.334 -14 -59.001c-4.66699 -6.66699 -16.334 -24.667 -35.001 -54
l-38 -59l-37 -55l-41.5 -60l-40 -54.5c-17 -23 -32 -42.167 -45 -57.5l-44.5 -50.5l-49 -51.5c13.333 -8.66699 26.833 -20.834 40.5 -36.501s24.5 -29.667 32.5 -42l30.5 -49l23.5 -38.5l21 -33.5l22.5 -35.5l20.5 -33l21.5 -35.5c5 -8.33301 11.333 -19.666 19 -33.999
s13.834 -26.666 18.501 -36.999l15 -34.5c5.33301 -12.667 10 -25 14 -37c8 -24.667 0.333008 -45 -23 -61s-50 -21.833 -80 -17.5s-49 18.833 -57 43.5c-22 62 -61.667 135 -119 219c-42 66.667 -70 108.334 -84 125.001c-8.66699 14.667 -16.667 25.667 -24 33
c0 0.666992 -0.666992 1.5 -2 2.5s-2 2.16699 -2 3.5c-2 0 -4.33301 0.333008 -7 1s-4.66699 1 -6 1c-32.667 -18 -60.667 -31.667 -84 -41c-20 -8 -36.333 -6.66699 -49 4c-24 -119.333 -43.667 -254.666 -59 -405.999c-4 -31.333 -16.667 -52 -38 -62s-41.333 -7 -60 9
s-26.334 40 -23.001 72z" />
    <glyph glyph-name="afii10077" unicode="&#x43b;" horiz-adv-x="1067" 
d="M-80.5 69c5 18 16.166 28.999 33.499 32.999c44.667 10.667 86 27.834 124 51.501s70.5 50.334 97.5 80.001s52 65 75 106s42 81.167 57 120.5s29.667 83.666 44 132.999s26 93.833 35 133.5l31.5 132.5c12 48.667 22.667 88.667 32 120c4 17.333 15.167 29 33.5 35
s36.5 6 54.5 0c8 6 16.667 10 26 12c38 9.33301 83.167 14.833 135.5 16.5s99 1.16699 140 -1.5s86.5 -2.33398 136.5 0.999023c18.667 2 32.334 -6.33301 41.001 -25s11.334 -36.667 8.00098 -54l-91.5 -325c-19.667 -71.333 -44 -167.833 -73 -289.5
s-51.833 -231.167 -68.5 -328.5c-6 -32.667 -23.333 -54.667 -52 -66c-26 -10 -47.333 -6 -64 12c-12.667 14 -17 34.333 -13 61c37.333 210 107.333 495.333 210 856c-16 0 -45.667 0.666992 -89 2s-79.833 1.5 -109.5 0.5s-58.167 -3.83301 -85.5 -8.5
c-7.33301 -26 -16.333 -60.667 -27 -104l-27.5 -110.5c-7.66699 -30.333 -17.5 -66.666 -29.5 -108.999s-23.5 -78.833 -34.5 -109.5s-24.833 -64.834 -41.5 -102.501s-33.667 -70.167 -51 -97.5s-37.833 -55.666 -61.5 -84.999s-48.834 -54.333 -75.501 -75
s-57.167 -39.5 -91.5 -56.5s-70.833 -30.167 -109.5 -39.5c-46.667 -12 -83 -1.33301 -109 32c-12 14.667 -15.5 31 -10.5 49z" />
    <glyph glyph-name="afii10078" unicode="&#x43c;" horiz-adv-x="1267" 
d="M47 115c68.667 208.667 112.337 346.996 131.004 414.996c2 6 7 22.833 15 50.5l18 62c4 13.667 9 34 15 61s10.167 49.333 12.5 67s3.5 37.334 3.5 59.001s-2 40.834 -6 57.501c-20 22.667 -23.333 53 -10 91c11.333 31.333 28 50.666 50 57.999
c15.333 4.66699 29.666 0.666992 42.999 -12c28.667 -24.667 46 -57.334 52 -98.001c7.33301 -2.66699 14.833 -7.16699 22.5 -13.5s14.5 -13 20.5 -20s12.167 -16.167 18.5 -27.5l15.5 -28.5c4 -7.66699 8.83301 -18.167 14.5 -31.5s9.66699 -23 12 -29
s5.66602 -15.333 9.99902 -28s6.83301 -19.667 7.5 -21c6.66699 -15.333 17.5 -42.166 32.5 -80.499s29.833 -73 44.5 -104s30.334 -57.5 47.001 -79.5l119 136.5l128.5 147c31.667 37 68.167 83.333 109.5 139s76.666 108.5 105.999 158.5
c18 26.667 35.667 38.834 53 36.501s31.5 -14.833 42.5 -37.5s14.167 -46 9.5 -70l-44.5 -225l-48 -246.5c-11 -59 -23.333 -132.667 -37 -221s-23.834 -169.5 -30.501 -243.5c-2 -32 -13.667 -53.833 -35 -65.5s-41.833 -10 -61.5 5s-27.834 38.5 -24.501 70.5
c17.333 190.667 51.666 410 102.999 658c-43.333 -53.333 -107 -127.666 -191 -222.999l-162 -185c-18 -27.333 -41.667 -29.333 -71 -6c-12.667 8.66699 -24.834 19.5 -36.501 32.5s-21.334 24.833 -29.001 35.5s-16.667 26.167 -27 46.5l-21.5 43
c-4 8.33301 -11 24.5 -21 48.5s-15.667 38 -17 42c-7.33301 15.333 -18.5 40.833 -33.5 76.5s-27.167 63.167 -36.5 82.5c-4 6 -6 11.667 -6 17c-24 -85.333 -37.667 -136.666 -41 -153.999c-29.333 -111.333 -79.666 -273 -150.999 -485c-10 -30 -26.667 -48 -50 -54
s-42.666 0.5 -57.999 19.5s-17.666 43.5 -6.99902 73.5z" />
    <glyph glyph-name="afii10079" unicode="&#x43d;" horiz-adv-x="1079" 
d="M47 76c44.667 124 82.998 263.337 114.998 418.004c-9.33301 42.667 -2.66602 74 20.001 94c20 132.667 32.333 224.667 37 276c-6.66699 11.333 -7.33398 25.666 -2.00098 42.999c0.666992 4 2 11 4 21s3.33301 18 4 24c4 23.333 22 43.333 54 60
c33.333 17.333 59.666 19.333 78.999 6c11.333 -8.66699 16.333 -22.334 15 -41.001c-6.66699 -104 -23.667 -233 -51 -387c45.333 0 113.333 2.66699 204 8s159 8 205 8c20 153.333 61.667 283 125 389c15.333 28 40.333 43 75 45c30 2 50 -6.33301 60 -25
c8 -15.333 5.33301 -34.333 -8 -57c-35.333 -61.333 -63 -132.333 -83 -213s-32.667 -155 -38 -223s-12.5 -146.5 -21.5 -235.5s-20.167 -163.5 -33.5 -223.5c-6.66699 -28 -26 -48 -58 -60c-31.333 -12 -56 -10 -74 6c-14.667 12 -19 31 -13 57
c6.66699 28.667 12.834 60.667 18.501 96s9.83398 65.166 12.501 89.499s6.16699 58.166 10.5 101.499l9.5 93c-27.333 -0.666992 -91.166 -3.66699 -191.499 -9s-177.166 -7.66602 -230.499 -6.99902c-28.667 -124.667 -66.334 -251 -113.001 -379
c-10.667 -28.667 -31.667 -46.334 -63 -53.001c-29.333 -6 -51 0.333008 -65 19c-10.667 15.333 -11.667 35 -3 59z" />
    </font>
</defs>
</svg>
