<?xml version="1.0" encoding="utf-8"?>
<!-- Generator: Adobe Illustrator 21.0.2, SVG Export Plug-In . SVG Version: 6.00 Build 0)  -->
<svg version="1.1" id="Lag_1" xmlns="http://www.w3.org/2000/svg" xmlns:xlink="http://www.w3.org/1999/xlink" x="0px" y="0px"
	 viewBox="0 0 22.7 21.5" style="enable-background:new 0 0 22.7 21.5;" xml:space="preserve">
<style type="text/css">
	.st0{fill:url(#SVGID_1_);}
	.st1{fill:url(#SVGID_2_);}
	.st2{fill:#323232;}
</style>
<g>
	
		<linearGradient id="SVGID_1_" gradientUnits="userSpaceOnUse" x1="-507.386" y1="2271.5608" x2="443.396" y2="2271.5608" gradientTransform="matrix(-7.546060e-02 0 0 -7.546060e-02 -62.1078 176.6444)">
		<stop  offset="0" style="stop-color:#00D2FF"/>
		<stop  offset="0.5" style="stop-color:#00C6FF"/>
		<stop  offset="1" style="stop-color:#1FA2FF"/>
	</linearGradient>
	<path class="st0" d="M-23.8,23.3h-71.7v-36.1h71.7V23.3z M-80.6,8.3h41.7V2.2h-41.7V8.3z"/>
</g>
<g>
	
		<linearGradient id="SVGID_2_" gradientUnits="userSpaceOnUse" x1="-506.3831" y1="2321.0034" x2="345.5011" y2="2321.0034" gradientTransform="matrix(-7.546060e-02 0 0 -7.546060e-02 -62.1078 176.6444)">
		<stop  offset="0" style="stop-color:#00D2FF"/>
		<stop  offset="0.5" style="stop-color:#00C6FF"/>
		<stop  offset="1" style="stop-color:#1FA2FF"/>
	</linearGradient>
	<polygon class="st1" points="-23.9,15.8 -38.9,15.8 -38.9,2.2 -88.2,2.2 -88.2,-12.8 -23.9,-12.8 	"/>
</g>
<path class="st2" d="M2.6,3.9c0-0.6,0.2-1.1,0.6-1.4c0.4-0.4,0.9-0.6,1.6-0.6c0.6,0,1.2,0.2,1.6,0.6C6.8,2.9,7,3.4,7,4
	c0,0.6-0.2,1-0.6,1.4C6,5.8,5.5,6,4.8,6h0C4.2,6,3.6,5.8,3.2,5.4C2.8,5,2.6,4.5,2.6,3.9z M2.9,19.3V7.6h3.9v11.7H2.9z M8.9,19.3h3.9
	v-6.5c0-0.4,0-0.7,0.1-0.9c0.2-0.4,0.4-0.7,0.7-1c0.3-0.3,0.7-0.4,1.3-0.4c1.3,0,2,0.9,2,2.6v6.2h3.9v-6.7c0-1.7-0.4-3-1.2-3.9
	c-0.8-0.9-1.9-1.3-3.2-1.3c-1.5,0-2.7,0.6-3.5,1.9v0h0l0,0V7.6H8.9c0,0.4,0,1.5,0,3.5C8.9,13,8.9,15.7,8.9,19.3z"/>
</svg>
