<?xml version="1.0" encoding="utf-8"?>
<!-- Generator: Adobe Illustrator 21.0.2, SVG Export Plug-In . SVG Version: 6.00 Build 0)  -->
<svg version="1.1" id="Lag_1" xmlns="http://www.w3.org/2000/svg" xmlns:xlink="http://www.w3.org/1999/xlink" x="0px" y="0px"
	 viewBox="0 0 22.7 21.5" style="enable-background:new 0 0 22.7 21.5;" xml:space="preserve">
<style type="text/css">
	.st0{fill:url(#SVGID_1_);}
	.st1{fill:url(#SVGID_2_);}
	.st2{fill:#323232;}
</style>
<g>
	
		<linearGradient id="SVGID_1_" gradientUnits="userSpaceOnUse" x1="-507.386" y1="2271.5608" x2="443.396" y2="2271.5608" gradientTransform="matrix(-7.546060e-02 0 0 -7.546060e-02 -62.1078 176.6444)">
		<stop  offset="0" style="stop-color:#00D2FF"/>
		<stop  offset="0.5" style="stop-color:#00C6FF"/>
		<stop  offset="1" style="stop-color:#1FA2FF"/>
	</linearGradient>
	<path class="st0" d="M-23.8,23.3h-71.7v-36.1h71.7V23.3z M-80.6,8.3h41.7V2.2h-41.7V8.3z"/>
</g>
<g>
	
		<linearGradient id="SVGID_2_" gradientUnits="userSpaceOnUse" x1="-506.3831" y1="2321.0034" x2="345.5011" y2="2321.0034" gradientTransform="matrix(-7.546060e-02 0 0 -7.546060e-02 -62.1078 176.6444)">
		<stop  offset="0" style="stop-color:#00D2FF"/>
		<stop  offset="0.5" style="stop-color:#00C6FF"/>
		<stop  offset="1" style="stop-color:#1FA2FF"/>
	</linearGradient>
	<polygon class="st1" points="-23.9,15.8 -38.9,15.8 -38.9,2.2 -88.2,2.2 -88.2,-12.8 -23.9,-12.8 	"/>
</g>
<path class="st2" d="M7.6,16.3c-2-0.3-3.6-1.4-4-3c0.6,0,1.2,0,1.8,0c0,0,0-0.1,0-0.1c-1-0.3-1.8-0.7-2.4-1.5
	C2.4,10.9,2.1,10,2.1,8.9C2.7,9.2,3.3,9.4,4,9.5C3.1,8.8,2.5,7.9,2.3,6.8C2,5.8,2.2,4.7,2.7,3.7C5,6.5,8,8,11.6,8.2
	c0-0.2,0-0.3-0.1-0.4c-0.2-1.8,0.7-3.6,2.3-4.4c1.6-0.8,3.6-0.5,4.9,0.8c0.1,0.1,0.2,0.1,0.3,0.1c0.8-0.2,1.5-0.5,2.2-0.8
	c0.1,0,0.1-0.1,0.3-0.1c-0.2,0.5-0.4,1-0.7,1.3c-0.3,0.4-0.7,0.7-1,1c0.8-0.1,1.5-0.3,2.3-0.6c-0.1,0.1-0.1,0.2-0.1,0.2
	c-0.5,0.7-1.1,1.3-1.8,1.8c-0.1,0.1-0.2,0.2-0.2,0.4c0,4.5-1.8,8.1-5.6,10.6c-2.2,1.5-4.7,2-7.3,1.9c-2-0.1-3.9-0.7-5.7-1.8
	c-0.1,0-0.1-0.1-0.2-0.1C3.7,18.2,5.7,17.7,7.6,16.3z"/>
</svg>
