<svg xmlns="http://www.w3.org/2000/svg" viewBox="0 0 120 34"><defs><style>.cls-1{fill:#333;}.cls-2{fill:#fff;}</style></defs><title>Asset 2</title><g id="Layer_2" data-name="Layer 2"><g id="Layer_1-2" data-name="Layer 1"><rect x="0.5" y="0.5" width="119" height="33" rx="3.5" ry="3.5"/><path class="cls-1" d="M116,1a3,3,0,0,1,3,3V30a3,3,0,0,1-3,3H4a3,3,0,0,1-3-3V4A3,3,0,0,1,4,1H116m0-1H4A4,4,0,0,0,0,4V30a4,4,0,0,0,4,4H116a4,4,0,0,0,4-4V4a4,4,0,0,0-4-4Z"/><g id="_Group_" data-name=" Group "><g id="_Group_2" data-name=" Group 2"><g id="_Group_3" data-name=" Group 3"><path id="_Path_" data-name=" Path " class="cls-2" d="M22.25,17.27a4.42,4.42,0,0,1,2.09-3.7,4.5,4.5,0,0,0-3.55-1.92c-1.49-.16-2.94.89-3.71.89s-1.95-.88-3.21-.85a4.73,4.73,0,0,0-4,2.43c-1.72,3-.44,7.36,1.21,9.77.83,1.18,1.79,2.5,3.05,2.46s1.7-.79,3.19-.79,1.91.79,3.2.76,2.16-1.19,2.95-2.38a9.8,9.8,0,0,0,1.36-2.75A4.25,4.25,0,0,1,22.25,17.27Z"/><path id="_Path_2" data-name=" Path 2" class="cls-2" d="M19.81,10.06a4.32,4.32,0,0,0,1-3.1A4.39,4.39,0,0,0,18,8.43a4.17,4.17,0,0,0-1,3A3.63,3.63,0,0,0,19.81,10.06Z"/></g></g><path class="cls-2" d="M42.72,23.36H38.5l-1,3H35.7l4-11.06h1.85l4,11.06H43.73ZM38.94,22h3.34l-1.65-4.85h0Z"/><path class="cls-2" d="M54.17,22.32c0,2.5-1.35,4.11-3.37,4.11A2.73,2.73,0,0,1,48.26,25h0v4H46.57V18.28h1.6v1.35h0a2.87,2.87,0,0,1,2.57-1.43C52.82,18.2,54.17,19.82,54.17,22.32Zm-1.71,0c0-1.64-.84-2.71-2.13-2.71s-2.11,1.1-2.11,2.71S49.07,25,50.33,25,52.46,24,52.46,22.32Z"/><path class="cls-2" d="M63,22.32c0,2.5-1.34,4.11-3.37,4.11A2.71,2.71,0,0,1,57.14,25h0v4H55.45V18.28h1.6v1.35h0a2.85,2.85,0,0,1,2.56-1.43C61.69,18.2,63,19.82,63,22.32Zm-1.7,0c0-1.64-.85-2.71-2.13-2.71s-2.12,1.1-2.12,2.71S57.94,25,59.21,25s2.13-1.07,2.13-2.71Z"/><path class="cls-2" d="M68.9,23.27c.13,1.09,1.19,1.81,2.65,1.81s2.4-.72,2.4-1.71-.61-1.37-2-1.72l-1.44-.35c-2-.49-3-1.44-3-3,0-1.91,1.66-3.22,4-3.22s3.94,1.31,4,3.22H73.85c-.1-1.1-1-1.77-2.35-1.77s-2.24.68-2.24,1.66c0,.78.58,1.24,2,1.59l1.22.3c2.27.54,3.21,1.45,3.21,3.07,0,2.07-1.64,3.36-4.27,3.36-2.45,0-4.1-1.26-4.21-3.26Z"/><path class="cls-2" d="M79.27,16.38v1.9H80.8v1.31H79.27V24c0,.69.3,1,1,1a3.27,3.27,0,0,0,.54,0v1.31a4.69,4.69,0,0,1-.92.07c-1.63,0-2.27-.61-2.27-2.17V19.59H76.43V18.28H77.6v-1.9Z"/><path class="cls-2" d="M81.69,22.32c0-2.54,1.49-4.13,3.82-4.13s3.82,1.59,3.82,4.13-1.47,4.13-3.82,4.13S81.69,24.86,81.69,22.32Zm6,0c0-1.74-.8-2.77-2.14-2.77s-2.14,1-2.14,2.77.8,2.76,2.14,2.76,2.14-1,2.14-2.76Z"/><path class="cls-2" d="M90.7,18.28h1.58v1.38h0a1.91,1.91,0,0,1,1.93-1.46,2.62,2.62,0,0,1,.57.06v1.55a2.32,2.32,0,0,0-.74-.1,1.67,1.67,0,0,0-1.74,1.6,2.09,2.09,0,0,0,0,.25v4.79H90.7Z"/><path class="cls-2" d="M102.45,24c-.22,1.46-1.65,2.47-3.47,2.47-2.35,0-3.8-1.57-3.8-4.1s1.46-4.16,3.73-4.16,3.63,1.53,3.63,4v.57H96.85v.1a2.11,2.11,0,0,0,1.91,2.28,2.25,2.25,0,0,0,.26,0A1.81,1.81,0,0,0,100.88,24Zm-5.59-2.41h4a1.94,1.94,0,0,0-1.83-2h-.15a2,2,0,0,0-2,2Z"/></g><g id="_Group_4" data-name=" Group 4"><path class="cls-2" d="M37.76,9.21h.71a.89.89,0,0,0,1-.77V8.36c0-.49-.36-.8-1-.8a1,1,0,0,0-1.07.8v0h-.78a1.65,1.65,0,0,1,1.76-1.56h.12c1,0,1.78.58,1.78,1.42a1.24,1.24,0,0,1-1,1.22v.06a1.24,1.24,0,0,1,1.18,1.29,1.77,1.77,0,0,1-1.94,1.58h0a1.77,1.77,0,0,1-2-1.51.13.13,0,0,0,0-.06h.8c0,.5.51.83,1.2.83s1.14-.37,1.14-.89-.42-.85-1.16-.85h-.74Z"/><path class="cls-2" d="M41.4,11.14c0-.72.54-1.13,1.5-1.19L44,9.88V9.54c0-.42-.28-.66-.82-.66s-.75.16-.83.44h-.77c.08-.69.73-1.13,1.64-1.13s1.57.5,1.57,1.35v2.74H44v-.56H44a1.33,1.33,0,0,1-1.21.62,1.21,1.21,0,0,1-1.33-1.07A.57.57,0,0,0,41.4,11.14ZM44,10.8v-.33l-1,.06c-.55,0-.8.22-.8.58s.31.57.74.57a1,1,0,0,0,1-.85Z"/><path class="cls-2" d="M46.87,8.93v3.35h-.79v-4h2.64v.66Z"/><path class="cls-2" d="M53.52,10.27c0,1.28-.65,2.07-1.66,2.07a1.27,1.27,0,0,1-1.23-.67h-.07v1.94h-.79V8.27h.76v.66h.06a1.41,1.41,0,0,1,1.26-.73C52.87,8.2,53.52,9,53.52,10.27Zm-.82,0c0-.85-.4-1.36-1.07-1.36s-1.08.53-1.08,1.37.41,1.35,1.08,1.35S52.7,11.12,52.7,10.27Z"/><path class="cls-2" d="M54.57,13.71V13l.26,0a.69.69,0,0,0,.72-.56l.06-.2-1.45-4H55l1,3.18h.06l1-3.18h.84l-1.49,4.17c-.35,1-.72,1.29-1.54,1.29A1.83,1.83,0,0,1,54.57,13.71Z"/><path class="cls-2" d="M58.55,11.14h.79c.07.35.4.54.87.54s.85-.23.85-.59-.29-.58-.85-.58h-.6V9.9h.59c.48,0,.72-.18.72-.52s-.24-.52-.72-.52-.77.19-.82.51h-.76A1.41,1.41,0,0,1,60.2,8.19c.95,0,1.5.43,1.5,1.11a.83.83,0,0,1-.64.82v.06a.91.91,0,0,1,.79.91c0,.76-.65,1.26-1.64,1.26S58.62,12,58.55,11.14Z"/><path class="cls-2" d="M63,12.28v-4h.78V11h.06l1.85-2.76h.79v4h-.79V9.51h-.06l-1.85,2.77Z"/><path class="cls-2" d="M70.79,8.93H69.52v3.35h-.79V8.93H67.47V8.27h3.32Z"/><path class="cls-2" d="M75.05,11.2a1.64,1.64,0,0,1-1.74,1.16,1.84,1.84,0,0,1-1.87-1.78,2.64,2.64,0,0,1,0-.29,1.84,1.84,0,0,1,1.59-2.08l.26,0c1.11,0,1.79.76,1.79,2v.28H72.27v0a1.06,1.06,0,0,0,1,1.15h.1a1,1,0,0,0,1-.48ZM72.27,9.9h2a1,1,0,0,0-.89-1h-.1a1,1,0,0,0-1,1v0Z"/><path class="cls-2" d="M78.41,8.27h1.8c.79,0,1.25.4,1.25,1a.87.87,0,0,1-.68.85v.06a.92.92,0,0,1,.86.92c0,.7-.53,1.16-1.41,1.16H78.41Zm.78.61v1H80c.48,0,.71-.18.71-.52s-.2-.51-.62-.51Zm0,1.62v1.17h.94c.47,0,.72-.21.72-.58s-.29-.59-.82-.59Z"/></g></g></g></svg>