<svg xmlns="http://www.w3.org/2000/svg" xmlns:xlink="http://www.w3.org/1999/xlink" viewBox="0 0 120 34"><defs><style>.cls-1{fill:#333;}.cls-10,.cls-2,.cls-9{fill:#fff;}.cls-3{fill:url(#linear-gradient);}.cls-4{fill:url(#linear-gradient-2);}.cls-5{fill:url(#linear-gradient-3);}.cls-6{fill:url(#linear-gradient-4);}.cls-7{opacity:0.2;}.cls-7,.cls-8,.cls-9{isolation:isolate;}.cls-8{opacity:0.12;}.cls-9{opacity:0.25;}.cls-10{stroke:#fff;stroke-miterlimit:10;stroke-width:0.2px;}</style><linearGradient id="linear-gradient" x1="17.2" y1="-3956.95" x2="2.25" y2="-3971.89" gradientTransform="matrix(1, 0, 0, -1, 0, -3950)" gradientUnits="userSpaceOnUse"><stop offset="0" stop-color="#00a0ff"/><stop offset="0.01" stop-color="#00a2ff"/><stop offset="0.26" stop-color="#00beff"/><stop offset="0.51" stop-color="#00d2ff"/><stop offset="0.76" stop-color="#00dfff"/><stop offset="1" stop-color="#00e3ff"/></linearGradient><linearGradient id="linear-gradient-2" x1="27.91" y1="-3967" x2="6.37" y2="-3967" gradientTransform="matrix(1, 0, 0, -1, 0, -3950)" gradientUnits="userSpaceOnUse"><stop offset="0" stop-color="#ffe000"/><stop offset="0.41" stop-color="#ffbd00"/><stop offset="0.78" stop-color="#ffa600"/><stop offset="1" stop-color="#ff9c00"/></linearGradient><linearGradient id="linear-gradient-3" x1="19.89" y1="-3969.04" x2="-0.37" y2="-3989.31" gradientTransform="matrix(1, 0, 0, -1, 0, -3950)" gradientUnits="userSpaceOnUse"><stop offset="0" stop-color="#ff3743"/><stop offset="1" stop-color="#e30864"/></linearGradient><linearGradient id="linear-gradient-4" x1="4.28" y1="-3949.35" x2="13.33" y2="-3958.4" gradientTransform="matrix(1, 0, 0, -1, 0, -3950)" gradientUnits="userSpaceOnUse"><stop offset="0" stop-color="#00a06f"/><stop offset="0.07" stop-color="#00a86e"/><stop offset="0.48" stop-color="#00cf6e"/><stop offset="0.8" stop-color="#00e76d"/><stop offset="1" stop-color="#00ef6d"/></linearGradient></defs><title>Asset 1</title><g id="Layer_2" data-name="Layer 2"><g id="Layer_1-2" data-name="Layer 1"><rect x="0.5" y="0.5" width="119" height="33" rx="3.5" ry="3.5"/><path class="cls-1" d="M116,1a3,3,0,0,1,3,3V30a3,3,0,0,1-3,3H4a3,3,0,0,1-3-3V4A3,3,0,0,1,4,1H116m0-1H4A4,4,0,0,0,0,4V30a4,4,0,0,0,4,4H116a4,4,0,0,0,4-4V4a4,4,0,0,0-4-4Z"/><path class="cls-2" d="M59.23,18.56A3.79,3.79,0,1,0,63,22.35,3.73,3.73,0,0,0,59.23,18.56Zm0,6.08a2.3,2.3,0,1,1,2.14-2.29A2.19,2.19,0,0,1,59.23,24.64Zm-8.29-6.08a3.79,3.79,0,1,0,3.8,3.79A3.73,3.73,0,0,0,50.94,18.56Zm0,6.08a2.3,2.3,0,0,1,0-4.59,2.18,2.18,0,0,1,2.13,2.3A2.18,2.18,0,0,1,50.94,24.64Zm-9.87-4.92v1.61h3.85a3.39,3.39,0,0,1-.88,2,3.93,3.93,0,0,1-3,1.18,4.28,4.28,0,0,1,0-8.55A4.08,4.08,0,0,1,44,17.13L45.1,16a5.58,5.58,0,0,0-4-1.62,5.88,5.88,0,1,0,0,11.76,5.35,5.35,0,0,0,4.1-1.65,5.27,5.27,0,0,0,1.4-3.75,5.05,5.05,0,0,0-.09-1ZM81.42,21a3.52,3.52,0,0,0-3.24-2.41,3.6,3.6,0,0,0-3.58,3.79,3.7,3.7,0,0,0,3.76,3.78,3.79,3.79,0,0,0,3.16-1.67l-1.29-.86a2.16,2.16,0,0,1-1.87,1,1.9,1.9,0,0,1-1.83-1.15l5.06-2.09Zm-5.17,1.26a2.09,2.09,0,0,1,2-2.21,1.47,1.47,0,0,1,1.41.81ZM72.14,25.9H73.8V14.77H72.14Zm-2.73-6.49h-.06a2.6,2.6,0,0,0-2-.85,3.79,3.79,0,0,0,0,7.57,2.57,2.57,0,0,0,2-.86h.06v.55c0,1.45-.77,2.22-2,2.22a2.1,2.1,0,0,1-1.91-1.35L64,27.3a3.61,3.61,0,0,0,3.36,2.23c2,0,3.6-1.14,3.6-3.94v-6.8H69.41ZM67.5,24.64a2.17,2.17,0,0,1-2.11-2.28,2.19,2.19,0,0,1,2.11-2.31,2.13,2.13,0,0,1,2,2.31A2.11,2.11,0,0,1,67.5,24.64Zm21.71-9.87h-4V25.9h1.66V21.69h2.32a3.46,3.46,0,1,0,0-6.92Zm.05,5.37H86.89V16.32h2.37a1.91,1.91,0,1,1,0,3.82Zm10.26-1.6a3.12,3.12,0,0,0-3,1.7l1.47.62A1.58,1.58,0,0,1,99.55,20a1.6,1.6,0,0,1,1.75,1.44v.11a3.67,3.67,0,0,0-1.73-.43c-1.59,0-3.21.87-3.21,2.51a2.57,2.57,0,0,0,2.76,2.45A2.35,2.35,0,0,0,101.24,25h.06v.86h1.6V21.62C102.9,19.64,101.43,18.54,99.52,18.54Zm-.2,6.1c-.54,0-1.3-.27-1.3-.94,0-.86,1-1.19,1.76-1.19a2.91,2.91,0,0,1,1.52.37A2,2,0,0,1,99.32,24.64Zm9.43-5.86-1.91,4.83h0l-2-4.83H103l3,6.75-1.69,3.75H106l4.57-10.5Zm-15,7.12h1.66V14.77H93.78Z"/><path class="cls-3" d="M7.08,5.9a1.79,1.79,0,0,0-.41,1.25v19.7a1.79,1.79,0,0,0,.41,1.25l.06.06,11-11v-.26l-11-11Z"/><path class="cls-4" d="M21.85,20.81l-3.67-3.68v-.26l3.67-3.68.09.05,4.35,2.48c1.25.7,1.25,1.86,0,2.57l-4.35,2.47Z"/><path class="cls-5" d="M21.94,20.76,18.18,17,7.08,28.1a1.45,1.45,0,0,0,1.85,0l13-7.39"/><path class="cls-6" d="M21.94,13.24l-13-7.39a1.45,1.45,0,0,0-1.85.05L18.18,17Z"/><path class="cls-7" d="M21.85,20.68,8.93,28a1.47,1.47,0,0,1-1.78,0h0l-.07.07h0l.06.06h0a1.47,1.47,0,0,0,1.78,0l13-7.39Z"/><path class="cls-8" d="M7.08,28a1.77,1.77,0,0,1-.41-1.25v.13a1.77,1.77,0,0,0,.41,1.25L7.15,28Z"/><path class="cls-8" d="M26.29,18.16l-4.44,2.52.09.08,4.35-2.47A1.56,1.56,0,0,0,27.23,17h0A1.66,1.66,0,0,1,26.29,18.16Z"/><path class="cls-9" d="M8.93,6l17.36,9.87A1.64,1.64,0,0,1,27.23,17h0a1.55,1.55,0,0,0-.94-1.28L8.93,5.85c-1.25-.71-2.26-.12-2.26,1.3v.13C6.67,5.86,7.68,5.27,8.93,6Z"/><path class="cls-10" d="M36.06,11.9H35.4V10.11h.52a2.52,2.52,0,0,0,.68-2V5.42h3.57v4.69h.6V11.9h-.66V10.77h-4Zm1.23-3.83a3.51,3.51,0,0,1-.51,2h2.7v-4H37.29Z"/><path class="cls-10" d="M46.12,10.08a2.78,2.78,0,0,1-3.92,0,2.75,2.75,0,0,1-.78-2,2.75,2.75,0,0,1,.78-2,2.76,2.76,0,0,1,3.92,0,2.72,2.72,0,0,1,.79,2A2.72,2.72,0,0,1,46.12,10.08Zm-3.41-.45a2.05,2.05,0,0,0,2.9,0,2.07,2.07,0,0,0,.6-1.53,2.08,2.08,0,0,0-.6-1.54,2.05,2.05,0,0,0-2.9,0,2.11,2.11,0,0,0-.59,1.54A2.1,2.1,0,0,0,42.71,9.63Z"/><path class="cls-10" d="M50.36,10.89A2.73,2.73,0,0,1,47.59,8.1a2.73,2.73,0,0,1,2.77-2.8,2.5,2.5,0,0,1,2,.88l-.48.46A1.81,1.81,0,0,0,50.36,6a2,2,0,0,0-1.47.59,2.07,2.07,0,0,0-.6,1.55,2.06,2.06,0,0,0,.6,1.54,2,2,0,0,0,1.47.59A2.12,2.12,0,0,0,52,9.45l.47.48a2.64,2.64,0,0,1-.91.7A2.86,2.86,0,0,1,50.36,10.89Z"/><path class="cls-10" d="M55.26,10.77h-.69V6.08H53.08V5.42h3.67v.66H55.26Z"/><path class="cls-10" d="M61.47,5.42l-2,4.51a1.33,1.33,0,0,1-1.24,1,1.35,1.35,0,0,1-.53-.12l.18-.64a.65.65,0,0,0,.36.1.68.68,0,0,0,.37-.09,1.1,1.1,0,0,0,.24-.34L59,9.37l-1.8-3.95H58l1.32,3.07h0l1.29-3.07Z"/><path class="cls-10" d="M62.24,10.77V5.42h3.87v5.35h-.69V6.08H62.93v4.69Z"/><path class="cls-10" d="M67.33,10.77V5.42H68V7.71h2.67V5.42h.69v5.35h-.69V8.36H68v2.41Z"/><path class="cls-10" d="M77,10.08a2.78,2.78,0,0,1-3.92,0,2.75,2.75,0,0,1-.78-2,2.75,2.75,0,0,1,.78-2,2.76,2.76,0,0,1,3.92,0,2.76,2.76,0,0,1,.79,2A2.76,2.76,0,0,1,77,10.08Zm-3.41-.45a2.05,2.05,0,0,0,2.9,0,2.07,2.07,0,0,0,.6-1.53,2.08,2.08,0,0,0-.6-1.54,2.05,2.05,0,0,0-2.9,0A2.11,2.11,0,0,0,73,8.1,2.1,2.1,0,0,0,73.56,9.63Z"/><path class="cls-10" d="M80.56,10.77V5.42H82.5a1.54,1.54,0,0,1,1.08.42,1.32,1.32,0,0,1,.46,1,1.11,1.11,0,0,1-.2.67,1.24,1.24,0,0,1-.52.44V8a1.37,1.37,0,0,1,.65.46,1.22,1.22,0,0,1,.25.76,1.39,1.39,0,0,1-.48,1.09,1.65,1.65,0,0,1-1.14.44Zm.69-3.06H82.5a.82.82,0,0,0,.85-.82.83.83,0,0,0-.22-.56.79.79,0,0,0-.6-.25H81.25Zm0,2.4h1.38a.8.8,0,0,0,.64-.28.84.84,0,0,0,0-1.2.87.87,0,0,0-.67-.27H81.25Z"/></g></g></svg>