<?xml version="1.0" encoding="utf-8"?>
<!-- Generator: Adobe Illustrator 21.0.2, SVG Export Plug-In . SVG Version: 6.00 Build 0)  -->
<svg version="1.1" id="Lag_1" xmlns="http://www.w3.org/2000/svg" xmlns:xlink="http://www.w3.org/1999/xlink" x="0px" y="0px"
	 viewBox="0 0 14.7 21.5" style="enable-background:new 0 0 14.7 21.5;" xml:space="preserve">
<style type="text/css">
	.st0{fill:#323232;}
	.st1{fill:none;stroke:url(#SVGID_1_);stroke-width:15;stroke-miterlimit:10;}
	.st2{fill:none;stroke:url(#SVGID_2_);stroke-width:15;stroke-miterlimit:10;}
</style>
<path class="st0" d="M8.7,19.2v-8h2.7L11.8,8H8.7V6c0-0.9,0.3-1.5,1.5-1.5l1.7,0V1.7c-0.3,0-1.3-0.1-2.4-0.1c-2.4,0-4,1.5-4,4.1V8
	H2.8v3.1h2.7v8H8.7L8.7,19.2z"/>
<linearGradient id="SVGID_1_" gradientUnits="userSpaceOnUse" x1="-415.496" y1="2271.5598" x2="351.504" y2="2271.5598" gradientTransform="matrix(-7.546060e-02 0 0 -7.546060e-02 -62.1078 176.6444)">
	<stop  offset="0" style="stop-color:#00D2FF"/>
	<stop  offset="0.5" style="stop-color:#00C6FF"/>
	<stop  offset="1" style="stop-color:#1FA2FF"/>
</linearGradient>
<rect x="-88.1" y="-5.3" transform="matrix(-1 -1.224647e-16 1.224647e-16 -1 -119.3867 10.4622)" class="st1" width="56.7" height="21.1"/>
<linearGradient id="SVGID_2_" gradientUnits="userSpaceOnUse" x1="-414.496" y1="2275.0598" x2="345.5039" y2="2275.0598" gradientTransform="matrix(-7.546060e-02 0 0 -7.546060e-02 -62.1078 176.6444)">
	<stop  offset="0" style="stop-color:#00D2FF"/>
	<stop  offset="0.5" style="stop-color:#00C6FF"/>
	<stop  offset="1" style="stop-color:#1FA2FF"/>
</linearGradient>
<polyline class="st2" points="-88.2,-5.3 -31.4,-5.3 -31.4,15.8 "/>
</svg>
