<?xml version="1.0" encoding="utf-8"?>
<!-- Generator: Adobe Illustrator 21.0.2, SVG Export Plug-In . SVG Version: 6.00 Build 0)  -->
<svg version="1.1" id="Lag_1" xmlns="http://www.w3.org/2000/svg" xmlns:xlink="http://www.w3.org/1999/xlink" x="0px" y="0px"
	 viewBox="0 0 19.8 21.5" style="enable-background:new 0 0 19.8 21.5;" xml:space="preserve">
<style type="text/css">
	.st0{fill:url(#SVGID_1_);}
	.st1{fill:url(#SVGID_2_);}
	.st2{fill:#323232;}
</style>
<g>
	
		<linearGradient id="SVGID_1_" gradientUnits="userSpaceOnUse" x1="-507.386" y1="2271.5608" x2="443.396" y2="2271.5608" gradientTransform="matrix(-7.546060e-02 0 0 -7.546060e-02 -62.1078 176.6444)">
		<stop  offset="0" style="stop-color:#00D2FF"/>
		<stop  offset="0.5" style="stop-color:#00C6FF"/>
		<stop  offset="1" style="stop-color:#1FA2FF"/>
	</linearGradient>
	<path class="st0" d="M-23.8,23.3h-71.7v-36.1h71.7V23.3z M-80.6,8.3h41.7V2.2h-41.7V8.3z"/>
</g>
<g>
	
		<linearGradient id="SVGID_2_" gradientUnits="userSpaceOnUse" x1="-506.3831" y1="2321.0034" x2="345.5011" y2="2321.0034" gradientTransform="matrix(-7.546060e-02 0 0 -7.546060e-02 -62.1078 176.6444)">
		<stop  offset="0" style="stop-color:#00D2FF"/>
		<stop  offset="0.5" style="stop-color:#00C6FF"/>
		<stop  offset="1" style="stop-color:#1FA2FF"/>
	</linearGradient>
	<polygon class="st1" points="-23.9,15.8 -38.9,15.8 -38.9,2.2 -88.2,2.2 -88.2,-12.8 -23.9,-12.8 	"/>
</g>
<g>
	<g>
		<path class="st2" d="M18.4,5.9c-0.3-1.9-1.9-3.5-3.8-3.8C13.8,2,13.1,2,12.3,1.9c-1.4,0-2.7,0-4.1,0c-0.8,0-1.6,0-2.4,0.1
			c-1,0.1-1.9,0.4-2.6,1C1.9,4,1.4,5.4,1.3,6.9c-0.1,1.2-0.1,2.4-0.1,3.7c0,0.4,0,0.7,0,1.1c0,1.2,0,2.5,0.2,3.7
			c0.4,1.8,1.4,3,3.1,3.6c0.9,0.3,1.9,0.3,2.9,0.3c2,0,4,0,6,0c0.7,0,1.4-0.1,2-0.4c1.4-0.5,2.3-1.5,2.8-2.9
			c0.3-0.9,0.3-1.9,0.3-2.9c0-1.4,0-2.8,0-4.2C18.6,7.9,18.6,6.9,18.4,5.9z M16.9,14.3c-0.1,1-0.4,1.9-1.2,2.6
			c-0.6,0.5-1.3,0.6-2,0.6c-1.5,0.1-3,0.1-4.5,0.1c-1.1,0-2.3,0-3.4-0.1c-1.5-0.2-2.5-1.1-2.7-2.7c-0.1-0.7-0.1-1.5-0.1-2.2
			c0-0.9-0.1-1.8,0-2.8c0-1.1,0-2.3,0.1-3.4c0.2-1.5,1.2-2.5,2.7-2.7C6.5,3.6,7.2,3.6,8,3.6c0.9,0,1.8,0,2.7,0c1.1,0,2.3,0,3.4,0.1
			c1.3,0.2,2.2,0.9,2.6,2.2c0.2,0.6,0.2,1.1,0.2,1.7c0,1,0,2,0,3C16.9,11.8,16.9,13.1,16.9,14.3z M9.9,6.1c-2.5,0-4.5,2-4.5,4.4
			c0,2.5,2,4.5,4.5,4.5c2.5,0,4.5-2,4.5-4.5C14.4,8.1,12.4,6.1,9.9,6.1z M9.9,13.4c-1.5,0-2.8-1.3-2.8-2.8c0-1.6,1.3-2.9,2.8-2.8
			c1.6,0,2.8,1.2,2.8,2.8C12.7,12.2,11.5,13.4,9.9,13.4z M14.5,4.9c-0.6,0-1.1,0.5-1.1,1.1c0,0.6,0.5,1.1,1.1,1.1
			c0.6,0,1.1-0.5,1.1-1.1C15.6,5.4,15.1,4.9,14.5,4.9z"/>
	</g>
</g>
</svg>
